<svg xmlns="http://www.w3.org/2000/svg" xmlns:xlink="http://www.w3.org/1999/xlink" viewBox="0 0 700 100"><defs><style>.cls-1{isolation:isolate;}.cls-2{opacity:0.75;}.cls-118,.cls-3,.cls-6{fill:#fff;}.cls-3{fill-rule:evenodd;}.cls-4{fill:#004990;}.cls-5{mix-blend-mode:multiply;}.cls-6{opacity:0;}.cls-7{fill:#fefefe;opacity:0.01;}.cls-8{fill:#fdfdfe;opacity:0.02;}.cls-9{fill:#fcfcfd;opacity:0.03;}.cls-10{fill:#fbfcfd;opacity:0.04;}.cls-11{fill:#fafbfc;opacity:0.05;}.cls-12{fill:#f9fafc;opacity:0.06;}.cls-13{fill:#f8f9fb;opacity:0.07;}.cls-14{fill:#f7f8fa;opacity:0.08;}.cls-15{fill:#f6f7fa;opacity:0.09;}.cls-16{fill:#f5f6f9;opacity:0.1;}.cls-17{fill:#f4f5f9;opacity:0.1;}.cls-18{fill:#f3f5f8;opacity:0.11;}.cls-19{fill:#f2f4f7;opacity:0.12;}.cls-20{fill:#f1f3f7;opacity:0.13;}.cls-21{fill:#f0f2f6;opacity:0.14;}.cls-22{fill:#eff1f6;opacity:0.15;}.cls-23{fill:#eef0f5;opacity:0.16;}.cls-24{fill:#edeff5;opacity:0.17;}.cls-25{fill:#eceff4;opacity:0.18;}.cls-26{fill:#ebeef3;opacity:0.19;}.cls-27{fill:#eaedf3;opacity:0.2;}.cls-28{fill:#e9ecf2;opacity:0.21;}.cls-29{fill:#e8ebf2;opacity:0.22;}.cls-30{fill:#e7eaf1;opacity:0.23;}.cls-31{fill:#e6e9f0;opacity:0.24;}.cls-32{fill:#e5e8f0;opacity:0.25;}.cls-33{fill:#e4e8ef;opacity:0.26;}.cls-34{fill:#e3e7ef;opacity:0.27;}.cls-35{fill:#e2e6ee;opacity:0.28;}.cls-36{fill:#e1e5ee;opacity:0.29;}.cls-37{fill:#e0e4ed;opacity:0.3;}.cls-38{fill:#dfe3ec;opacity:0.3;}.cls-39{fill:#dee2ec;opacity:0.31;}.cls-40{fill:#dde2eb;opacity:0.32;}.cls-41{fill:#dce1eb;opacity:0.33;}.cls-42{fill:#dbe0ea;opacity:0.34;}.cls-43{fill:#dadfea;opacity:0.35;}.cls-44{fill:#d9dee9;opacity:0.36;}.cls-45{fill:#d8dde8;opacity:0.37;}.cls-46{fill:#d7dce8;opacity:0.38;}.cls-47{fill:#d6dbe7;opacity:0.39;}.cls-48{fill:#d5dbe7;opacity:0.4;}.cls-49{fill:#d4dae6;opacity:0.41;}.cls-50{fill:#d3d9e5;opacity:0.42;}.cls-51{fill:#d2d8e5;opacity:0.43;}.cls-52{fill:#d1d7e4;opacity:0.44;}.cls-53{fill:#d0d6e4;opacity:0.45;}.cls-54{fill:#cfd5e3;opacity:0.46;}.cls-55{fill:#ced5e3;opacity:0.47;}.cls-56{fill:#cdd4e2;opacity:0.48;}.cls-57{fill:#ccd3e1;opacity:0.49;}.cls-58{fill:#cbd2e1;opacity:0.5;}.cls-59{fill:#cbd1e0;opacity:0.5;}.cls-60{fill:#cad0e0;opacity:0.51;}.cls-61{fill:#c9cfdf;opacity:0.52;}.cls-62{fill:#c8cede;opacity:0.53;}.cls-63{fill:#c7cede;opacity:0.54;}.cls-64{fill:#c6cddd;opacity:0.55;}.cls-65{fill:#c5ccdd;opacity:0.56;}.cls-66{fill:#c4cbdc;opacity:0.57;}.cls-67{fill:#c3cadc;opacity:0.58;}.cls-68{fill:#c2c9db;opacity:0.59;}.cls-69{fill:#c1c8da;opacity:0.6;}.cls-70{fill:#c0c8da;opacity:0.61;}.cls-71{fill:#bfc7d9;opacity:0.62;}.cls-72{fill:#bec6d9;opacity:0.63;}.cls-73{fill:#bdc5d8;opacity:0.64;}.cls-74{fill:#bcc4d7;opacity:0.65;}.cls-75{fill:#bbc3d7;opacity:0.66;}.cls-76{fill:#bac2d6;opacity:0.67;}.cls-77{fill:#b9c1d6;opacity:0.68;}.cls-78{fill:#b8c1d5;opacity:0.69;}.cls-79{fill:#b7c0d5;opacity:0.7;}.cls-80{fill:#b6bfd4;opacity:0.7;}.cls-81{fill:#b5bed3;opacity:0.71;}.cls-82{fill:#b4bdd3;opacity:0.72;}.cls-83{fill:#b3bcd2;opacity:0.73;}.cls-84{fill:#b2bbd2;opacity:0.74;}.cls-85{fill:#b1bbd1;opacity:0.75;}.cls-86{fill:#b0bad1;opacity:0.76;}.cls-87{fill:#afb9d0;opacity:0.77;}.cls-88{fill:#aeb8cf;opacity:0.78;}.cls-89{fill:#adb7cf;opacity:0.79;}.cls-90{fill:#acb6ce;opacity:0.8;}.cls-91{fill:#abb5ce;opacity:0.81;}.cls-92{fill:#aab4cd;opacity:0.82;}.cls-93{fill:#a9b4cc;opacity:0.83;}.cls-94{fill:#a8b3cc;opacity:0.84;}.cls-95{fill:#a7b2cb;opacity:0.85;}.cls-96{fill:#a6b1cb;opacity:0.86;}.cls-97{fill:#a5b0ca;opacity:0.87;}.cls-98{fill:#a4afca;opacity:0.88;}.cls-99{fill:#a3aec9;opacity:0.89;}.cls-100{fill:#a2aec8;opacity:0.9;}.cls-101{fill:#a1adc8;opacity:0.9;}.cls-102{fill:#a0acc7;opacity:0.91;}.cls-103{fill:#9fabc7;opacity:0.92;}.cls-104{fill:#9eaac6;opacity:0.93;}.cls-105{fill:#9da9c5;opacity:0.94;}.cls-106{fill:#9ca8c5;opacity:0.95;}.cls-107{fill:#9ba7c4;opacity:0.96;}.cls-108{fill:#9aa7c4;opacity:0.97;}.cls-109{fill:#99a6c3;opacity:0.98;}.cls-110{fill:#98a5c3;opacity:0.99;}.cls-111{fill:#97a4c2;}.cls-112{fill:url(#linear-gradient);}.cls-113{fill:none;}.cls-114{fill:#c8c8c8;}.cls-115{fill:#b5b5b5;}.cls-116{fill:#c1c1c1;}.cls-117{fill:#a8a8a8;}.cls-119{fill:#666;}</style><linearGradient id="linear-gradient" x1="175.75" y1="27.17" x2="200.85" y2="27.17" gradientUnits="userSpaceOnUse"><stop offset="0.5" stop-color="#fff"/><stop offset="0.5" stop-color="#f2f2f2"/></linearGradient></defs><title>Instructions</title><g class="cls-1"><g id="Layer_2" data-name="Layer 2"><g id="Content"><g class="cls-2"><path class="cls-3" d="M700,0,575,87.83C565.44,94.52,548.13,100,536.49,100h-373c-11.64,0-28.95-5.48-38.48-12.17L0,0"/></g><path class="cls-4" d="M242.36,24.77h14.45v2.7h-5.68V42.61H248V27.47h-5.65Z"/><path class="cls-4" d="M255.11,36.14c0-4,2.38-6.8,6.52-6.8s6.53,2.85,6.53,6.8S265.78,43,261.63,43,255.11,40.11,255.11,36.14Zm10.2,0c0-2.23-1.13-4.55-3.68-4.55S258,33.91,258,36.14s1.13,4.57,3.67,4.57S265.31,38.39,265.31,36.14Z"/><path class="cls-4" d="M281.88,42.61h-2.8v-1.8H279A4.34,4.34,0,0,1,275.36,43c-3.37,0-4.82-1.7-4.82-5.07v-8.2h2.85v7.92c0,2.28.92,3.1,2.47,3.1,2.37,0,3.17-1.52,3.17-3.52v-7.5h2.85Z"/><path class="cls-4" d="M293.61,34a2.74,2.74,0,0,0-2.95-2.42c-1.48,0-3.55.77-3.55,4.7,0,2.15.95,4.42,3.42,4.42a3.08,3.08,0,0,0,3.08-3h2.85c-.53,3.35-2.6,5.2-5.93,5.2-4,0-6.27-2.87-6.27-6.67s2.12-6.95,6.37-6.95c3,0,5.55,1.5,5.83,4.67Z"/><path class="cls-4" d="M298.79,24.77h2.85v6.62h.05a4.51,4.51,0,0,1,3.87-2.05c2.8,0,4.57,1.5,4.57,4.4v8.87h-2.85V34.49c0-2-.85-2.9-2.52-2.9a3.15,3.15,0,0,0-3.12,3.4v7.62h-2.85Z"/><path class="cls-4" d="M320.08,29.69h2.7v1.8h.08a4.32,4.32,0,0,1,4-2.15,3.68,3.68,0,0,1,3.63,2.15,4.67,4.67,0,0,1,4.05-2.15c2.72,0,4.32,1.2,4.32,4.35v8.92H336V35.06c0-2.05-.12-3.47-2.35-3.47-1.92,0-2.75,1.27-2.75,3.45v7.57H328v-8.3c0-1.77-.55-2.72-2.27-2.72-1.48,0-2.83,1.2-2.83,3.35v7.67h-2.85Z"/><path class="cls-4" d="M352.66,39.74c0,.7.15,1,.67,1a3.91,3.91,0,0,0,.7-.05v2a7.07,7.07,0,0,1-1.8.32c-1.15,0-2-.4-2.2-1.57A6.61,6.61,0,0,1,345.56,43c-2.32,0-4.42-1.25-4.42-3.77,0-3.23,2.57-3.75,5-4,2.05-.37,3.87-.15,3.87-1.82,0-1.48-1.52-1.75-2.67-1.75-1.6,0-2.73.65-2.85,2.05h-2.85c.2-3.32,3-4.3,5.87-4.3,2.53,0,5.18,1,5.18,3.75Zm-2.85-3.6c-.88.57-2.25.55-3.5.77s-2.33.65-2.33,2.15c0,1.28,1.63,1.65,2.63,1.65,1.25,0,3.2-.65,3.2-2.45Z"/><path class="cls-4" d="M355.81,29.69h2.7v1.75h.05a4.33,4.33,0,0,1,4-2.1c4.07,0,6.05,3.1,6.05,6.87,0,3.48-1.75,6.75-5.58,6.75a5,5,0,0,1-4.32-2h0v6.45h-2.85Zm6.37,1.9c-2.4,0-3.62,1.82-3.62,4.57s1.32,4.55,3.62,4.55c2.6,0,3.58-2.3,3.58-4.55S364.53,31.59,362.18,31.59Z"/><path class="cls-4" d="M378,29.69h2.7v1.8h.07a4.34,4.34,0,0,1,4-2.15,3.66,3.66,0,0,1,3.62,2.15,4.68,4.68,0,0,1,4.05-2.15c2.73,0,4.33,1.2,4.33,4.35v8.92h-2.85V35.06c0-2.05-.13-3.47-2.35-3.47-1.93,0-2.75,1.27-2.75,3.45v7.57h-2.85v-8.3c0-1.77-.55-2.72-2.28-2.72-1.47,0-2.82,1.2-2.82,3.35v7.67H378Z"/><path class="cls-4" d="M410.53,39.74c0,.7.15,1,.68,1a4,4,0,0,0,.7-.05v2a7.23,7.23,0,0,1-1.8.32c-1.15,0-2-.4-2.2-1.57A6.64,6.64,0,0,1,403.43,43c-2.32,0-4.42-1.25-4.42-3.77,0-3.23,2.57-3.75,5-4,2-.37,3.88-.15,3.88-1.82,0-1.48-1.53-1.75-2.68-1.75-1.6,0-2.72.65-2.85,2.05h-2.84c.19-3.32,3-4.3,5.87-4.3,2.52,0,5.17,1,5.17,3.75Zm-2.85-3.6c-.87.57-2.25.55-3.5.77s-2.32.65-2.32,2.15c0,1.28,1.62,1.65,2.62,1.65,1.25,0,3.2-.65,3.2-2.45Z"/><path class="cls-4" d="M413.61,29.69h2.67v2.5h.05a4.19,4.19,0,0,1,3.78-2.85,5.94,5.94,0,0,1,1.07.08v2.75A8.42,8.42,0,0,0,420,32c-1.95,0-3.5,1.57-3.5,4.42v6.15h-2.85Z"/><path class="cls-4" d="M422.49,24.77h2.84V34.91l5.15-5.22H434l-5,4.75,5.43,8.17H431l-4-6.27L425.33,38v4.62h-2.84Z"/><path class="cls-4" d="M438.06,36.89c0,2,1.1,3.82,3.47,3.82a3,3,0,0,0,3.15-2.15h2.7a5.65,5.65,0,0,1-5.85,4.4c-4,0-6.32-2.82-6.32-6.8,0-3.67,2.4-6.82,6.25-6.82,4.07,0,6.57,3.67,6.1,7.55ZM444.71,35a3.33,3.33,0,1,0-6.65,0Z"/><path class="cls-4" d="M449.73,29.69h2.68v2.5h0a4.17,4.17,0,0,1,3.77-2.85,6.09,6.09,0,0,1,1.08.08v2.75a8.56,8.56,0,0,0-1.23-.13c-1.95,0-3.5,1.57-3.5,4.42v6.15h-2.85Z"/><path class="cls-4" d="M460.68,38.46c.15,1.65,1.4,2.25,2.93,2.25,1.07,0,2.95-.22,2.87-1.7s-2.15-1.67-4.22-2.15-4.15-1.2-4.15-3.82c0-2.82,3.05-3.7,5.4-3.7,2.65,0,5.05,1.1,5.4,4h-3c-.25-1.34-1.37-1.72-2.62-1.72-.83,0-2.35.2-2.35,1.32,0,1.4,2.1,1.6,4.2,2.08s4.17,1.22,4.17,3.77c0,3.08-3.1,4.2-5.77,4.2-3.25,0-5.68-1.45-5.73-4.5Z"/><path class="cls-4" d="M477.18,29.69h2.13V28.62c0-3.3,1.72-3.85,3.57-3.85a8.32,8.32,0,0,1,2,.17v2.23a4.79,4.79,0,0,0-1.32-.15c-.78,0-1.4.27-1.4,1.35v1.32h2.42v2.13h-2.42V42.61h-2.85V31.82h-2.13Z"/><path class="cls-4" d="M485.73,36.14c0-4,2.38-6.8,6.53-6.8s6.52,2.85,6.52,6.8S496.41,43,492.26,43,485.73,40.11,485.73,36.14Zm10.2,0c0-2.23-1.12-4.55-3.67-4.55s-3.68,2.32-3.68,4.55,1.13,4.57,3.68,4.57S495.93,38.39,495.93,36.14Z"/><path class="cls-4" d="M501.16,29.69h2.67v2.5h.05a4.19,4.19,0,0,1,3.78-2.85,5.94,5.94,0,0,1,1.07.08v2.75a8.42,8.42,0,0,0-1.22-.13c-1.95,0-3.5,1.57-3.5,4.42v6.15h-2.85Z"/><path class="cls-4" d="M243.66,59.69h2.7v1.8h.08a4.32,4.32,0,0,1,4-2.15A3.66,3.66,0,0,1,254,61.49a4.68,4.68,0,0,1,4-2.15c2.73,0,4.33,1.2,4.33,4.35v8.92h-2.85V65.06c0-2.05-.13-3.47-2.35-3.47-1.93,0-2.75,1.27-2.75,3.45v7.57h-2.85v-8.3c0-1.77-.55-2.72-2.28-2.72-1.47,0-2.82,1.2-2.82,3.35v7.67h-2.85Z"/><path class="cls-4" d="M264.81,66.14c0-4,2.38-6.8,6.52-6.8s6.53,2.85,6.53,6.8S275.48,73,271.33,73,264.81,70.11,264.81,66.14Zm10.2,0c0-2.23-1.13-4.55-3.68-4.55s-3.67,2.32-3.67,4.55,1.13,4.57,3.67,4.57S275,68.39,275,66.14Z"/><path class="cls-4" d="M280.24,59.69h2.67v2.5h0a4.19,4.19,0,0,1,3.77-2.85,6.09,6.09,0,0,1,1.08.08v2.75a8.56,8.56,0,0,0-1.23-.13c-1.95,0-3.49,1.57-3.49,4.42v6.15h-2.85Z"/><path class="cls-4" d="M290.81,66.89c0,2,1.1,3.82,3.47,3.82a3,3,0,0,0,3.15-2.15h2.7a5.65,5.65,0,0,1-5.85,4.4c-4,0-6.32-2.82-6.32-6.8,0-3.67,2.4-6.82,6.25-6.82,4.07,0,6.57,3.67,6.1,7.55ZM297.46,65a3.33,3.33,0,1,0-6.65,0Z"/><path class="cls-4" d="M309.51,54.77h2.85v2.7h-2.85Zm0,4.92h2.85V72.61h-2.85Z"/><path class="cls-4" d="M315.46,59.69h2.7v1.9l0,0a4.63,4.63,0,0,1,4-2.3c2.8,0,4.58,1.5,4.58,4.4v8.87H324V64.49c0-2-.85-2.9-2.53-2.9a3.15,3.15,0,0,0-3.12,3.4v7.62h-2.85Z"/><path class="cls-4" d="M328.54,59.69h2.12V58.62c0-3.3,1.73-3.85,3.57-3.85a8.32,8.32,0,0,1,2,.17v2.23a4.79,4.79,0,0,0-1.32-.15c-.78,0-1.4.27-1.4,1.35v1.32h2.42v2.13h-2.42V72.61h-2.85V61.82h-2.12Z"/><path class="cls-4" d="M337.09,66.14c0-4,2.37-6.8,6.52-6.8s6.52,2.85,6.52,6.8S347.76,73,343.61,73,337.09,70.11,337.09,66.14Zm10.19,0c0-2.23-1.12-4.55-3.67-4.55s-3.68,2.32-3.68,4.55,1.13,4.57,3.68,4.57S347.28,68.39,347.28,66.14Z"/><path class="cls-4" d="M352.51,59.69h2.67v2.5h.05A4.19,4.19,0,0,1,359,59.34a5.94,5.94,0,0,1,1.07.08v2.75a8.42,8.42,0,0,0-1.22-.13c-1.95,0-3.5,1.57-3.5,4.42v6.15h-2.85Z"/><path class="cls-4" d="M361.31,59.69H364v1.8h.07a4.34,4.34,0,0,1,4-2.15,3.66,3.66,0,0,1,3.62,2.15,4.68,4.68,0,0,1,4.05-2.15c2.73,0,4.33,1.2,4.33,4.35v8.92h-2.85V65.06c0-2.05-.13-3.47-2.35-3.47-1.93,0-2.75,1.27-2.75,3.45v7.57h-2.85v-8.3c0-1.77-.55-2.72-2.28-2.72-1.47,0-2.82,1.2-2.82,3.35v7.67h-2.85Z"/><path class="cls-4" d="M393.88,69.74c0,.7.15,1,.68,1a4,4,0,0,0,.7,0v2a7.23,7.23,0,0,1-1.8.32c-1.15,0-2-.4-2.2-1.57A6.64,6.64,0,0,1,386.78,73c-2.32,0-4.42-1.25-4.42-3.77,0-3.23,2.57-3.75,5-4,2.05-.37,3.88-.15,3.88-1.82,0-1.48-1.53-1.75-2.68-1.75-1.6,0-2.72.65-2.85,2h-2.85c.2-3.32,3-4.3,5.88-4.3,2.52,0,5.17,1,5.17,3.75ZM391,66.14c-.87.57-2.25.55-3.5.77s-2.32.65-2.32,2.15c0,1.28,1.62,1.65,2.62,1.65,1.25,0,3.2-.65,3.2-2.45Z"/><path class="cls-4" d="M395.66,59.69h2.15V55.82h2.85v3.87h2.57v2.13h-2.57v6.89c0,1.18.1,1.78,1.37,1.78a4.87,4.87,0,0,0,1.2-.1v2.2c-.62,0-1.22.15-1.85.15-3,0-3.52-1.15-3.57-3.3V61.82h-2.15Z"/><path class="cls-4" d="M405.36,54.77h2.85v2.7h-2.85Zm0,4.92h2.85V72.61h-2.85Z"/><path class="cls-4" d="M410.71,66.14c0-4,2.37-6.8,6.52-6.8s6.53,2.85,6.53,6.8S421.38,73,417.23,73,410.71,70.11,410.71,66.14Zm10.2,0c0-2.23-1.13-4.55-3.68-4.55s-3.67,2.32-3.67,4.55,1.12,4.57,3.67,4.57S420.91,68.39,420.91,66.14Z"/><path class="cls-4" d="M426.13,59.69h2.7v1.9l.05,0a4.65,4.65,0,0,1,4-2.3c2.8,0,4.57,1.5,4.57,4.4v8.87h-2.85V64.49c-.05-2-.85-2.9-2.52-2.9A3.15,3.15,0,0,0,429,65v7.62h-2.85Z"/><path class="cls-4" d="M446.83,66.14c0-4,2.38-6.8,6.53-6.8s6.52,2.85,6.52,6.8S457.51,73,453.36,73,446.83,70.11,446.83,66.14Zm10.2,0c0-2.23-1.12-4.55-3.67-4.55s-3.68,2.32-3.68,4.55,1.13,4.57,3.68,4.57S457,68.39,457,66.14Z"/><path class="cls-4" d="M462.26,59.69H465v1.9l.05,0a4.63,4.63,0,0,1,4-2.3c2.8,0,4.58,1.5,4.58,4.4v8.87h-2.85V64.49c-.05-2-.85-2.9-2.53-2.9a3.15,3.15,0,0,0-3.12,3.4v7.62h-2.85Z"/><path class="cls-4" d="M482.26,59.69h2.15V55.82h2.85v3.87h2.57v2.13h-2.57v6.89c0,1.18.1,1.78,1.37,1.78a4.87,4.87,0,0,0,1.2-.1v2.2c-.62,0-1.22.15-1.85.15-3,0-3.52-1.15-3.57-3.3V61.82h-2.15Z"/><path class="cls-4" d="M491.88,59.69h2.68v2.5h.05a4.17,4.17,0,0,1,3.77-2.85,6.09,6.09,0,0,1,1.08.08v2.75a8.56,8.56,0,0,0-1.23-.13c-2,0-3.5,1.57-3.5,4.42v6.15h-2.85Z"/><path class="cls-4" d="M500.76,54.77h2.85v2.7h-2.85Zm0,4.92h2.85V72.61h-2.85Z"/><path class="cls-4" d="M517.53,69.74c0,.7.15,1,.68,1a4,4,0,0,0,.7,0v2a7.23,7.23,0,0,1-1.8.32c-1.15,0-2-.4-2.2-1.57A6.64,6.64,0,0,1,510.43,73c-2.32,0-4.42-1.25-4.42-3.77,0-3.23,2.57-3.75,5-4,2-.37,3.88-.15,3.88-1.82,0-1.48-1.53-1.75-2.68-1.75-1.6,0-2.72.65-2.85,2h-2.85c.2-3.32,3-4.3,5.88-4.3,2.52,0,5.17,1,5.17,3.75Zm-2.85-3.6c-.87.57-2.25.55-3.5.77s-2.32.65-2.32,2.15c0,1.28,1.62,1.65,2.62,1.65,1.25,0,3.2-.65,3.2-2.45Z"/><path class="cls-4" d="M520.68,54.77h2.85V72.61h-2.85Z"/><path class="cls-4" d="M528.78,68.46c.15,1.65,1.4,2.25,2.93,2.25,1.07,0,2.95-.22,2.87-1.7s-2.15-1.67-4.22-2.15-4.15-1.2-4.15-3.82c0-2.82,3-3.7,5.4-3.7,2.65,0,5,1.1,5.39,4h-3c-.25-1.34-1.37-1.72-2.62-1.72-.83,0-2.35.2-2.35,1.32,0,1.4,2.1,1.6,4.2,2.08s4.17,1.22,4.17,3.77c0,3.08-3.1,4.2-5.77,4.2-3.25,0-5.68-1.45-5.73-4.5Z"/><g class="cls-5"><path class="cls-6" d="M184.36,47.26l3,11.84a1.68,1.68,0,0,0,1.93,1.24l28.41-5.27a1.67,1.67,0,0,0,0-3.28l-31.42-6.58A1.68,1.68,0,0,0,184.36,47.26Z"/><path class="cls-7" d="M184.4,47.37l3,11.73a1.66,1.66,0,0,0,1.91,1.22l28.14-5.21a1.66,1.66,0,0,0,0-3.25l-31.12-6.52A1.66,1.66,0,0,0,184.4,47.37Z"/><path class="cls-8" d="M184.44,47.48l2.95,11.62a1.65,1.65,0,0,0,1.9,1.21l27.87-5.16a1.64,1.64,0,0,0,0-3.22l-30.82-6.46A1.64,1.64,0,0,0,184.44,47.48Z"/><path class="cls-9" d="M184.48,47.59,187.4,59.1a1.64,1.64,0,0,0,1.88,1.2l27.6-5.12a1.63,1.63,0,0,0,0-3.19L186.39,45.6A1.62,1.62,0,0,0,184.48,47.59Z"/><path class="cls-10" d="M184.52,47.7l2.89,11.4a1.63,1.63,0,0,0,1.86,1.19l27.33-5.07a1.61,1.61,0,0,0,0-3.16l-30.23-6.33A1.61,1.61,0,0,0,184.52,47.7Z"/><path class="cls-11" d="M184.56,47.81l2.86,11.29a1.6,1.6,0,0,0,1.84,1.17l27.07-5a1.59,1.59,0,0,0,0-3.13l-29.93-6.27A1.59,1.59,0,0,0,184.56,47.81Z"/><path class="cls-12" d="M184.6,47.92l2.83,11.17a1.6,1.6,0,0,0,1.83,1.17l26.79-5a1.59,1.59,0,0,0,0-3.11L186.46,46A1.58,1.58,0,0,0,184.6,47.92Z"/><path class="cls-13" d="M184.64,48l2.81,11.06a1.57,1.57,0,0,0,1.8,1.16l26.52-4.92a1.56,1.56,0,0,0,0-3.07l-29.33-6.14A1.56,1.56,0,0,0,184.64,48Z"/><path class="cls-14" d="M184.68,48.14l2.78,11a1.54,1.54,0,0,0,1.78,1.15l26.26-4.87a1.55,1.55,0,0,0,0-3l-29-6.08A1.54,1.54,0,0,0,184.68,48.14Z"/><path class="cls-15" d="M184.72,48.25l2.75,10.84a1.52,1.52,0,0,0,1.76,1.13l26-4.81a1.53,1.53,0,0,0,0-3l-28.73-6A1.53,1.53,0,0,0,184.72,48.25Z"/><path class="cls-16" d="M184.75,48.36l2.73,10.73a1.51,1.51,0,0,0,1.75,1.12l25.71-4.77a1.52,1.52,0,0,0,0-3l-28.44-6A1.52,1.52,0,0,0,184.75,48.36Z"/><path class="cls-17" d="M184.79,48.47l2.7,10.62a1.49,1.49,0,0,0,1.73,1.11l25.45-4.72a1.5,1.5,0,0,0,0-2.95l-28.14-5.9A1.51,1.51,0,0,0,184.79,48.47Z"/><path class="cls-18" d="M184.83,48.59l2.67,10.5a1.49,1.49,0,0,0,1.71,1.1l25.18-4.67a1.49,1.49,0,0,0,0-2.92l-27.84-5.84A1.49,1.49,0,0,0,184.83,48.59Z"/><path class="cls-19" d="M184.87,48.7l2.64,10.38a1.46,1.46,0,0,0,1.7,1.09l24.9-4.61a1.48,1.48,0,0,0,0-2.9L186.6,46.89A1.48,1.48,0,0,0,184.87,48.7Z"/><path class="cls-20" d="M184.91,48.81l2.61,10.27a1.45,1.45,0,0,0,1.68,1.08l24.64-4.57a1.46,1.46,0,0,0,0-2.86L186.62,47A1.46,1.46,0,0,0,184.91,48.81Z"/><path class="cls-21" d="M185,48.92l2.58,10.16a1.44,1.44,0,0,0,1.66,1.07l24.37-4.52a1.44,1.44,0,0,0,0-2.83l-27-5.65A1.44,1.44,0,0,0,185,48.92Z"/><path class="cls-22" d="M185,49l2.55,10a1.42,1.42,0,0,0,1.64,1.06l24.1-4.47a1.43,1.43,0,0,0,0-2.81l-26.65-5.58A1.43,1.43,0,0,0,185,49Z"/><path class="cls-23" d="M185,49.14l2.52,9.94a1.41,1.41,0,0,0,1.63,1L213,55.7a1.41,1.41,0,0,0,0-2.77l-26.35-5.52A1.41,1.41,0,0,0,185,49.14Z"/><path class="cls-24" d="M185.07,49.25l2.49,9.83a1.39,1.39,0,0,0,1.61,1l23.56-4.37a1.4,1.4,0,0,0,0-2.74l-26-5.46A1.4,1.4,0,0,0,185.07,49.25Z"/><path class="cls-25" d="M185.1,49.36l2.47,9.72a1.36,1.36,0,0,0,1.59,1l23.29-4.32a1.38,1.38,0,0,0,0-2.71l-25.75-5.4A1.39,1.39,0,0,0,185.1,49.36Z"/><path class="cls-26" d="M185.14,49.47l2.44,9.6a1.36,1.36,0,0,0,1.57,1l23-4.28a1.37,1.37,0,0,0,0-2.68L186.75,47.8A1.37,1.37,0,0,0,185.14,49.47Z"/><path class="cls-27" d="M185.18,49.58l2.41,9.49a1.33,1.33,0,0,0,1.56,1l22.75-4.22a1.35,1.35,0,0,0,0-2.65l-25.16-5.27A1.35,1.35,0,0,0,185.18,49.58Z"/><path class="cls-28" d="M185.22,49.69l2.38,9.38a1.33,1.33,0,0,0,1.54,1l22.48-4.17a1.34,1.34,0,0,0,0-2.62l-24.86-5.21A1.34,1.34,0,0,0,185.22,49.69Z"/><path class="cls-29" d="M185.26,49.8l2.35,9.27a1.31,1.31,0,0,0,1.52,1l22.22-4.12a1.33,1.33,0,0,0,0-2.6l-24.56-5.14A1.32,1.32,0,0,0,185.26,49.8Z"/><path class="cls-30" d="M185.3,49.91l2.32,9.16a1.3,1.3,0,0,0,1.51,1L211.07,56a1.31,1.31,0,0,0,0-2.56l-24.26-5.08A1.3,1.3,0,0,0,185.3,49.91Z"/><path class="cls-31" d="M185.34,50l2.29,9a1.28,1.28,0,0,0,1.49,1l21.67-4a1.29,1.29,0,0,0,0-2.53l-24-5A1.28,1.28,0,0,0,185.34,50Z"/><path class="cls-32" d="M185.38,50.13l2.26,8.94a1.27,1.27,0,0,0,1.47.94l21.41-4a1.27,1.27,0,0,0,0-2.5l-23.67-5A1.26,1.26,0,0,0,185.38,50.13Z"/><path class="cls-33" d="M185.42,50.24l2.23,8.82a1.25,1.25,0,0,0,1.45.94l21.14-3.93a1.26,1.26,0,0,0,0-2.47L186.9,48.71A1.25,1.25,0,0,0,185.42,50.24Z"/><path class="cls-34" d="M185.45,50.35l2.21,8.71a1.25,1.25,0,0,0,1.44.93L210,56.11a1.24,1.24,0,0,0,0-2.44l-23.07-4.83A1.24,1.24,0,0,0,185.45,50.35Z"/><path class="cls-35" d="M185.49,50.46l2.18,8.6a1.21,1.21,0,0,0,1.42.91l20.6-3.82a1.23,1.23,0,0,0,0-2.41L186.94,49A1.23,1.23,0,0,0,185.49,50.46Z"/><path class="cls-36" d="M185.53,50.58l2.15,8.48a1.2,1.2,0,0,0,1.4.9l20.33-3.78a1.21,1.21,0,0,0,0-2.38L187,49.1A1.21,1.21,0,0,0,185.53,50.58Z"/><path class="cls-37" d="M185.57,50.69l2.12,8.37a1.19,1.19,0,0,0,1.38.89l20.06-3.73a1.2,1.2,0,0,0,0-2.35L187,49.23A1.19,1.19,0,0,0,185.57,50.69Z"/><path class="cls-38" d="M185.61,50.8l2.09,8.26a1.18,1.18,0,0,0,1.37.88l19.79-3.68a1.18,1.18,0,0,0,0-2.32L187,49.36A1.18,1.18,0,0,0,185.61,50.8Z"/><path class="cls-39" d="M185.65,50.91l2.06,8.15a1.15,1.15,0,0,0,1.35.86l19.52-3.62a1.17,1.17,0,0,0,0-2.29L187,49.48A1.17,1.17,0,0,0,185.65,50.91Z"/><path class="cls-40" d="M185.69,51l2,8a1.14,1.14,0,0,0,1.33.86l19.25-3.58a1.15,1.15,0,0,0,0-2.26L187,49.61A1.15,1.15,0,0,0,185.69,51Z"/><path class="cls-41" d="M185.73,51.13l2,7.92a1.13,1.13,0,0,0,1.31.85l19-3.53a1.14,1.14,0,0,0,0-2.23l-21-4.4A1.14,1.14,0,0,0,185.73,51.13Z"/><path class="cls-42" d="M185.77,51.24l2,7.81a1.12,1.12,0,0,0,1.3.84l18.71-3.48a1.12,1.12,0,0,0,0-2.2l-20.69-4.34A1.12,1.12,0,0,0,185.77,51.24Z"/><path class="cls-43" d="M185.8,51.35l1.95,7.7a1.09,1.09,0,0,0,1.28.82l18.44-3.43a1.11,1.11,0,0,0,0-2.17L187.11,50A1.12,1.12,0,0,0,185.8,51.35Z"/><path class="cls-44" d="M185.84,51.46l1.92,7.59a1.08,1.08,0,0,0,1.26.81l18.17-3.38a1.09,1.09,0,0,0,0-2.14l-20.08-4.21A1.1,1.1,0,0,0,185.84,51.46Z"/><path class="cls-45" d="M185.88,51.57l1.89,7.48a1.07,1.07,0,0,0,1.25.8l17.9-3.33a1.08,1.08,0,0,0,0-2.11l-19.79-4.15A1.08,1.08,0,0,0,185.88,51.57Z"/><path class="cls-46" d="M185.92,51.68l1.86,7.37a1.05,1.05,0,0,0,1.23.79l17.63-3.29a1.06,1.06,0,0,0,0-2.08l-19.49-4.08A1.06,1.06,0,0,0,185.92,51.68Z"/><path class="cls-47" d="M186,51.79,187.79,59a1,1,0,0,0,1.21.78l17.36-3.23a1,1,0,0,0,0-2.05l-19.19-4A1,1,0,0,0,186,51.79Z"/><path class="cls-48" d="M186,51.9,187.8,59a1,1,0,0,0,1.19.77l17.1-3.18a1,1,0,0,0,0-2l-18.89-4A1,1,0,0,0,186,51.9Z"/><path class="cls-49" d="M186,52l1.77,7a1,1,0,0,0,1.18.76l16.82-3.13a1,1,0,0,0,0-2l-18.6-3.9A1,1,0,0,0,186,52Z"/><path class="cls-50" d="M186.08,52.12,187.82,59a1,1,0,0,0,1.16.75l16.55-3.09a1,1,0,0,0,0-2l-18.3-3.83A1,1,0,0,0,186.08,52.12Z"/><path class="cls-51" d="M186.12,52.23,187.83,59a1,1,0,0,0,1.14.73l16.29-3a1,1,0,0,0,0-1.93l-18-3.77A1,1,0,0,0,186.12,52.23Z"/><path class="cls-52" d="M186.15,52.34l1.69,6.7a1,1,0,0,0,1.12.72l16-3a1,1,0,0,0,0-1.9l-17.7-3.71A1,1,0,0,0,186.15,52.34Z"/><path class="cls-53" d="M186.19,52.45,187.85,59a1,1,0,0,0,1.11.71l15.74-2.94a1,1,0,0,0,0-1.87l-17.4-3.64A1,1,0,0,0,186.19,52.45Z"/><path class="cls-54" d="M186.23,52.57,187.86,59a.94.94,0,0,0,1.09.71l15.48-2.89a.94.94,0,0,0,0-1.84l-17.1-3.58A.94.94,0,0,0,186.23,52.57Z"/><path class="cls-55" d="M186.27,52.68l1.6,6.35a.91.91,0,0,0,1.07.69l15.21-2.83a.92.92,0,0,0,0-1.81l-16.8-3.52A.92.92,0,0,0,186.27,52.68Z"/><path class="cls-56" d="M186.31,52.79,187.88,59a.9.9,0,0,0,1.06.68l14.93-2.78a.91.91,0,0,0,0-1.78l-16.51-3.46A.91.91,0,0,0,186.31,52.79Z"/><path class="cls-57" d="M186.35,52.9,187.89,59a.89.89,0,0,0,1,.67L203.6,57a.89.89,0,0,0,0-1.75L187.4,51.82A.89.89,0,0,0,186.35,52.9Z"/><path class="cls-58" d="M186.39,53l1.51,6a.87.87,0,0,0,1,.66L203.32,57a.88.88,0,0,0,0-1.72L187.42,52A.87.87,0,0,0,186.39,53Z"/><path class="cls-59" d="M186.43,53.12,187.91,59a.84.84,0,0,0,1,.64L203,57a.86.86,0,0,0,0-1.69l-15.61-3.27A.85.85,0,0,0,186.43,53.12Z"/><path class="cls-60" d="M186.47,53.23l1.45,5.8a.84.84,0,0,0,1,.63l13.86-2.59a.85.85,0,0,0,0-1.66l-15.32-3.2A.84.84,0,0,0,186.47,53.23Z"/><path class="cls-61" d="M186.51,53.34,187.93,59a.83.83,0,0,0,1,.63l13.59-2.54a.83.83,0,0,0,0-1.63l-15-3.15A.83.83,0,0,0,186.51,53.34Z"/><path class="cls-62" d="M186.54,53.45l1.4,5.57a.81.81,0,0,0,.95.62l13.32-2.49a.82.82,0,0,0,0-1.6L187.5,52.46A.82.82,0,0,0,186.54,53.45Z"/><path class="cls-63" d="M186.58,53.56,188,59a.79.79,0,0,0,.93.6l13.06-2.44a.8.8,0,0,0,0-1.57l-14.41-3A.81.81,0,0,0,186.58,53.56Z"/><path class="cls-64" d="M186.62,53.67,188,59a.78.78,0,0,0,.92.59l12.78-2.39a.79.79,0,0,0,0-1.54l-14.12-3A.79.79,0,0,0,186.62,53.67Z"/><path class="cls-65" d="M186.66,53.78,188,59a.77.77,0,0,0,.9.58l12.51-2.34a.77.77,0,0,0,0-1.51l-13.82-2.9A.77.77,0,0,0,186.66,53.78Z"/><path class="cls-66" d="M186.7,53.89,188,59a.76.76,0,0,0,.88.57l12.25-2.29a.76.76,0,0,0,0-1.48L187.59,53A.76.76,0,0,0,186.7,53.89Z"/><path class="cls-67" d="M186.74,54,188,59a.72.72,0,0,0,.87.56l12-2.24a.74.74,0,0,0,0-1.45l-13.22-2.77A.74.74,0,0,0,186.74,54Z"/><path class="cls-68" d="M186.78,54.11,188,59a.71.71,0,0,0,.85.55l11.7-2.19a.73.73,0,0,0,0-1.42l-12.93-2.71A.72.72,0,0,0,186.78,54.11Z"/><path class="cls-69" d="M186.82,54.22,188,59a.7.7,0,0,0,.83.54l11.44-2.14a.71.71,0,0,0,0-1.39l-12.63-2.65A.7.7,0,0,0,186.82,54.22Z"/><path class="cls-70" d="M186.86,54.33,188,59a.68.68,0,0,0,.81.53L200,57.44a.69.69,0,0,0,0-1.36L187.67,53.5A.69.69,0,0,0,186.86,54.33Z"/><path class="cls-71" d="M186.89,54.44,188,59a.67.67,0,0,0,.8.51l10.89-2a.68.68,0,0,0,0-1.33l-12-2.52A.68.68,0,0,0,186.89,54.44Z"/><path class="cls-72" d="M186.93,54.56,188,59a.65.65,0,0,0,.78.5l10.63-2a.66.66,0,0,0,0-1.3l-11.74-2.46A.66.66,0,0,0,186.93,54.56Z"/><path class="cls-73" d="M187,54.67,188.05,59a.65.65,0,0,0,.76.49l10.36-2a.64.64,0,0,0,0-1.26l-11.43-2.4A.65.65,0,0,0,187,54.67Z"/><path class="cls-74" d="M187,54.78,188.06,59a.63.63,0,0,0,.74.49l10.09-1.9a.63.63,0,0,0,0-1.24L187.76,54A.63.63,0,0,0,187,54.78Z"/><path class="cls-75" d="M187.05,54.89l1,4.11a.61.61,0,0,0,.73.47l9.81-1.84a.62.62,0,0,0,0-1.21l-10.84-2.27A.62.62,0,0,0,187.05,54.89Z"/><path class="cls-76" d="M187.09,55l1,4a.6.6,0,0,0,.71.46l9.55-1.79a.6.6,0,0,0,0-1.18L187.8,54.28A.6.6,0,0,0,187.09,55Z"/><path class="cls-77" d="M187.13,55.11l1,3.89a.58.58,0,0,0,.69.45l9.28-1.75a.59.59,0,0,0,0-1.15l-10.24-2.14A.58.58,0,0,0,187.13,55.11Z"/><path class="cls-78" d="M187.17,55.22,188.1,59a.57.57,0,0,0,.68.44l9-1.7a.57.57,0,0,0,0-1.12l-9.94-2.08A.57.57,0,0,0,187.17,55.22Z"/><path class="cls-79" d="M187.21,55.33l.9,3.67a.55.55,0,0,0,.66.42l8.74-1.64a.56.56,0,0,0,0-1.09l-9.65-2A.55.55,0,0,0,187.21,55.33Z"/><path class="cls-80" d="M187.24,55.44l.88,3.56a.53.53,0,0,0,.64.41l8.47-1.6a.54.54,0,0,0,0-1.05l-9.35-2A.54.54,0,0,0,187.24,55.44Z"/><path class="cls-81" d="M187.28,55.55l.85,3.44a.52.52,0,0,0,.62.41l8.2-1.55a.53.53,0,0,0,0-1l-9-1.89A.52.52,0,0,0,187.28,55.55Z"/><path class="cls-82" d="M187.32,55.66l.82,3.33a.51.51,0,0,0,.61.4l7.93-1.5a.51.51,0,0,0,0-1l-8.76-1.83A.5.5,0,0,0,187.32,55.66Z"/><path class="cls-83" d="M187.36,55.77l.79,3.22a.48.48,0,0,0,.59.38l7.66-1.44a.5.5,0,0,0,0-1L188,55.18A.5.5,0,0,0,187.36,55.77Z"/><path class="cls-84" d="M187.4,55.88l.76,3.11a.47.47,0,0,0,.57.37l7.39-1.4a.48.48,0,0,0,0-.94L188,55.31A.49.49,0,0,0,187.4,55.88Z"/><path class="cls-85" d="M187.44,56l.73,3a.46.46,0,0,0,.55.36L195.85,58a.47.47,0,0,0,0-.91L188,55.44A.47.47,0,0,0,187.44,56Z"/><path class="cls-86" d="M187.48,56.1l.7,2.89a.45.45,0,0,0,.54.35l6.85-1.3a.45.45,0,0,0,0-.88L188,55.57A.45.45,0,0,0,187.48,56.1Z"/><path class="cls-87" d="M187.52,56.21l.67,2.78a.43.43,0,0,0,.52.33l6.58-1.25a.43.43,0,0,0,0-.85L188,55.7A.43.43,0,0,0,187.52,56.21Z"/><path class="cls-88" d="M187.56,56.32,188.2,59a.4.4,0,0,0,.5.33l6.32-1.2a.42.42,0,0,0,0-.82l-7-1.46A.41.41,0,0,0,187.56,56.32Z"/><path class="cls-89" d="M187.59,56.43l.62,2.55a.4.4,0,0,0,.48.32l6.05-1.15a.4.4,0,0,0,0-.79L188.07,56A.41.41,0,0,0,187.59,56.43Z"/><path class="cls-90" d="M187.63,56.55l.59,2.43a.39.39,0,0,0,.47.31l5.77-1.11a.38.38,0,0,0,0-.75l-6.37-1.34A.39.39,0,0,0,187.63,56.55Z"/><path class="cls-91" d="M187.67,56.66l.56,2.32a.36.36,0,0,0,.45.29l5.51-1.05a.37.37,0,0,0,0-.73l-6.07-1.27A.38.38,0,0,0,187.67,56.66Z"/><path class="cls-92" d="M187.71,56.77l.53,2.21a.35.35,0,0,0,.43.28l5.24-1a.36.36,0,0,0,0-.7l-5.77-1.21A.36.36,0,0,0,187.71,56.77Z"/><path class="cls-93" d="M187.75,56.88l.5,2.1a.34.34,0,0,0,.42.27l5-1a.34.34,0,0,0,0-.67l-5.48-1.15A.34.34,0,0,0,187.75,56.88Z"/><path class="cls-94" d="M187.79,57l.47,2a.33.33,0,0,0,.4.26l4.7-.91a.33.33,0,0,0,0-.64l-5.17-1.08A.33.33,0,0,0,187.79,57Z"/><path class="cls-95" d="M187.83,57.1l.44,1.87a.31.31,0,0,0,.38.25l4.43-.85a.31.31,0,0,0,0-.61l-4.87-1A.31.31,0,0,0,187.83,57.1Z"/><path class="cls-96" d="M187.87,57.21l.41,1.76a.29.29,0,0,0,.36.24l4.16-.8a.3.3,0,0,0,0-.58l-4.57-1A.29.29,0,0,0,187.87,57.21Z"/><path class="cls-97" d="M187.91,57.32l.38,1.65a.29.29,0,0,0,.35.23l3.89-.76a.28.28,0,0,0,0-.54l-4.28-.9A.27.27,0,0,0,187.91,57.32Z"/><path class="cls-98" d="M187.94,57.43,188.3,59a.26.26,0,0,0,.33.22l3.62-.71a.27.27,0,0,0,0-.52l-4-.83A.27.27,0,0,0,187.94,57.43Z"/><path class="cls-99" d="M188,57.54l.33,1.43a.24.24,0,0,0,.31.2l3.35-.65a.25.25,0,0,0,0-.49l-3.68-.77A.25.25,0,0,0,188,57.54Z"/><path class="cls-100" d="M188,57.65l.3,1.32a.23.23,0,0,0,.29.19l3.09-.61a.23.23,0,0,0,0-.45l-3.38-.71A.23.23,0,0,0,188,57.65Z"/><path class="cls-101" d="M188.06,57.76l.27,1.21a.22.22,0,0,0,.28.18l2.81-.56a.22.22,0,0,0,0-.43l-3.09-.64A.21.21,0,0,0,188.06,57.76Z"/><path class="cls-102" d="M188.1,57.87l.24,1.09a.2.2,0,0,0,.26.18l2.54-.51a.21.21,0,0,0,0-.4l-2.79-.58A.2.2,0,0,0,188.1,57.87Z"/><path class="cls-103" d="M188.14,58l.21,1a.18.18,0,0,0,.24.16l2.28-.45a.19.19,0,0,0,0-.37l-2.49-.52A.18.18,0,0,0,188.14,58Z"/><path class="cls-104" d="M188.18,58.09l.18.87a.17.17,0,0,0,.23.15l2-.41a.17.17,0,0,0,0-.33l-2.19-.46A.17.17,0,0,0,188.18,58.09Z"/><path class="cls-105" d="M188.22,58.2l.15.76a.16.16,0,0,0,.21.14l1.73-.36a.16.16,0,0,0,0-.31l-1.89-.4A.16.16,0,0,0,188.22,58.2Z"/><path class="cls-106" d="M188.26,58.31l.12.65a.15.15,0,0,0,.19.13l1.47-.31a.15.15,0,0,0,0-.28l-1.59-.34A.14.14,0,0,0,188.26,58.31Z"/><path class="cls-107" d="M188.29,58.42l.1.54a.12.12,0,0,0,.17.11l1.2-.26a.12.12,0,0,0,0-.24l-1.29-.28A.14.14,0,0,0,188.29,58.42Z"/><path class="cls-108" d="M188.33,58.53l.07.43a.12.12,0,0,0,.16.1l.92-.21a.11.11,0,0,0,0-.22l-1-.21A.12.12,0,0,0,188.33,58.53Z"/><path class="cls-109" d="M188.37,58.65l0,.3a.1.1,0,0,0,.14.1l.66-.16a.1.1,0,0,0,0-.19l-.7-.15A.11.11,0,0,0,188.37,58.65Z"/><path class="cls-110" d="M188.41,58.76V59a.09.09,0,0,0,.12.09l.39-.12a.08.08,0,0,0,0-.15l-.4-.09A.09.09,0,0,0,188.41,58.76Z"/><path class="cls-111" d="M188.45,58.87l0,.08a.07.07,0,0,0,.1.07l.12-.06a.07.07,0,0,0,0-.13l-.1,0S188.46,58.83,188.45,58.87Z"/></g><path class="cls-112" d="M188.3,39.72a12.55,12.55,0,1,1,12.55-12.55A12.55,12.55,0,0,1,188.3,39.72Z"/><path class="cls-113" d="M201.05,27.56A12.55,12.55,0,0,0,188.5,15v25.1A12.55,12.55,0,0,0,201.05,27.56Z"/><path class="cls-113" d="M175.94,27.56A12.55,12.55,0,0,0,188.5,40.11V15A12.55,12.55,0,0,0,175.94,27.56Z"/><path class="cls-114" d="M188.5,10.76V15a12.55,12.55,0,1,1,0,25.1V59.44S198.91,44,203.42,35.29a16.76,16.76,0,0,0,1.7-5.25A16.83,16.83,0,0,0,188.5,10.76Z"/><path class="cls-114" d="M175.94,27.56A12.55,12.55,0,0,1,188.5,15V10.76a16.81,16.81,0,0,0-16.81,16.8,15.66,15.66,0,0,0,.19,2.48,16.74,16.74,0,0,0,1.65,5.17c4.5,8.72,15,24.23,15,24.23V40.11A12.55,12.55,0,0,1,175.94,27.56Z"/><path class="cls-113" d="M200.85,27.17A12.55,12.55,0,0,0,188.3,14.62v25.1A12.55,12.55,0,0,0,200.85,27.17Z"/><path class="cls-113" d="M175.75,27.17A12.55,12.55,0,0,0,188.3,39.72V14.62A12.55,12.55,0,0,0,175.75,27.17Z"/><path class="cls-115" d="M188.3,10.36v4.26a12.55,12.55,0,0,1,0,25.1V59.05s10.41-15.41,14.93-24.16a16.6,16.6,0,0,0,1.69-5.24A16.83,16.83,0,0,0,188.3,10.36Z"/><path class="cls-116" d="M175.75,27.17A12.55,12.55,0,0,1,188.3,14.62V10.36a16.83,16.83,0,0,0-16.62,19.29,16.49,16.49,0,0,0,1.66,5.17c4.49,8.71,15,24.23,15,24.23V39.72A12.55,12.55,0,0,1,175.75,27.17Z"/><path class="cls-117" d="M186.16,31.68A5.15,5.15,0,1,1,193,29.19,5.16,5.16,0,0,1,186.16,31.68Zm3.73-8a3.67,3.67,0,1,0,1.78,4.88A3.67,3.67,0,0,0,189.89,23.68Z"/><path class="cls-118" d="M185.8,48.76l-.56-.68.5-.47a4.73,4.73,0,0,1,5.66-.31c-.88-2.61-1.75-5.26-2.2-7a52.66,52.66,0,0,0-1.8-5.54c-.36-1-.74-2-1.1-3.14-.73-2.28-.76-4.22-.08-5.46A2.77,2.77,0,0,1,188,24.78c2.06-.52,3.17,1.82,4.44,4.54.27.56.55,1.16.86,1.77.68,1.36,1.09,2.24,1.48,3,.57,1.19,1.06,2.22,2.23,4.46l.07.14a1.22,1.22,0,0,1,.15-.17,3.31,3.31,0,0,1,2.55-.92,6.13,6.13,0,0,1,4.17,2.45,3.22,3.22,0,0,1,4.14-.34,14.75,14.75,0,0,1,3.25,3.3,3.27,3.27,0,0,1,2.29-.62,4.23,4.23,0,0,1,3.27,1.88L218,45.52a34.14,34.14,0,0,1,3.51,4.27,22.51,22.51,0,0,1,1.71,5c.26,1,.56,2,.9,3.22a72,72,0,0,1,2.62,10.5c.06.63.08,1.27.1,1.89a9.88,9.88,0,0,0,.57,3.68,5.21,5.21,0,0,0,1.25,1.54,2.08,2.08,0,0,1,.86,1.29c.12,2.65-2.48,6-4.94,8.14a19.94,19.94,0,0,1-6.22,3.87,9.8,9.8,0,0,1-4.87.61l-.28,0-.18-.22a17,17,0,0,0-4.12-3.92C207.54,84.42,197,75.1,195,71.9a24.46,24.46,0,0,1-2.63-7.43c-.32-1.29-.64-2.62-1.06-4l-.21-.68c-1.18-4-1.72-5.77-2.78-7.55A28.33,28.33,0,0,0,185.8,48.76Z"/><path class="cls-119" d="M189.54,29.21h0a1.49,1.49,0,0,0,.84-.85,2.88,2.88,0,0,0-.18-2.29l-.67.3a2.09,2.09,0,0,1,.17,1.7.86.86,0,0,1-.43.45,1.13,1.13,0,0,1-.93,0c-.43-.22-.83-.92-1.17-2.1l-.71.21c.41,1.42.9,2.23,1.55,2.56A1.84,1.84,0,0,0,189.54,29.21Z"/><path class="cls-119" d="M185.8,48.76l-.56-.68.5-.47a4.73,4.73,0,0,1,5.66-.31c-.88-2.61-1.75-5.26-2.2-7a52.66,52.66,0,0,0-1.8-5.54c-.36-1-.74-2-1.1-3.14-.73-2.28-.76-4.22-.08-5.46A2.77,2.77,0,0,1,188,24.78c2.06-.52,3.17,1.82,4.44,4.54.27.56.55,1.16.86,1.77.68,1.36,1.09,2.24,1.48,3,.57,1.19,1.06,2.22,2.23,4.46l.07.14a1.22,1.22,0,0,1,.15-.17,3.31,3.31,0,0,1,2.55-.92,6.13,6.13,0,0,1,4.17,2.45,3.22,3.22,0,0,1,4.14-.34,14.75,14.75,0,0,1,3.25,3.3,3.27,3.27,0,0,1,2.29-.62,4.23,4.23,0,0,1,3.27,1.88L218,45.52a34.14,34.14,0,0,1,3.51,4.27,22.51,22.51,0,0,1,1.71,5c.26,1,.56,2,.9,3.22a72,72,0,0,1,2.62,10.5c.06.63.08,1.27.1,1.89a9.88,9.88,0,0,0,.57,3.68,5.21,5.21,0,0,0,1.25,1.54,2.08,2.08,0,0,1,.86,1.29c.12,2.65-2.48,6-4.94,8.14a19.94,19.94,0,0,1-6.22,3.87,9.8,9.8,0,0,1-4.87.61l-.28,0-.18-.22a17,17,0,0,0-4.12-3.92C207.54,84.42,197,75.1,195,71.9a24.46,24.46,0,0,1-2.63-7.43c-.32-1.29-.64-2.62-1.06-4l-.21-.68c-1.18-4-1.72-5.77-2.78-7.55A28.33,28.33,0,0,0,185.8,48.76Zm6.73,10.57.2.68c.44,1.46.77,2.8,1.08,4.11a23.82,23.82,0,0,0,2.46,7c1.77,2.85,12.1,12.07,13.47,13a18.18,18.18,0,0,1,4.21,4c3.21.36,7-1.89,9.59-4.16,2.72-2.42,4.5-5.19,4.46-6.86a4.51,4.51,0,0,0-.38-.38,6.35,6.35,0,0,1-1.59-2,10.66,10.66,0,0,1-.72-4.28c0-.59,0-1.2-.1-1.81a73.91,73.91,0,0,0-2.55-10.21c-.36-1.19-.65-2.28-.92-3.25a22,22,0,0,0-1.56-4.65,33.89,33.89,0,0,0-3.33-4l-1.11-1.24c-1-1.11-1.44-1.32-2.24-1.37a1.82,1.82,0,0,0-1.29.34l1.09,1.52c.34.47.63.89.88,1.21,1,1.31,1.6,1.43,1.56,1.42l0,1.48c-.29,0-1.33-.16-2.72-2-.25-.33-.55-.76-.89-1.24-1.34-1.88-3.37-4.73-4.81-5.61a1.83,1.83,0,0,0-2.6.4c.42.88.92,1.92,1.38,2.9.6,1.28,1.18,2.49,1.38,2.86a6.72,6.72,0,0,0,1,1.27l-1.05,1a8.35,8.35,0,0,1-1.24-1.6c-.22-.4-.78-1.58-1.42-2.94-.53-1.12-1.11-2.35-1.57-3.29a4.65,4.65,0,0,0-3.58-2.54,1.86,1.86,0,0,0-1.37.53,1.17,1.17,0,0,0-.39.62c1.5,3.08,2.82,6.26,3.37,7.59l.13.32a6.71,6.71,0,0,0,.38.83l.18.1.33.19-.76,1.27-.28-.16c-.68-.37-.77-.59-1.21-1.66l-.14-.32c-.64-1.56-2.36-5.69-4.16-9.14C194.48,37,194,36,193.41,34.77c-.38-.8-.8-1.66-1.47-3-.31-.63-.6-1.24-.87-1.81-1-2.13-1.86-4-2.74-3.73a1.25,1.25,0,0,0-.81.63c-.48.86-.41,2.43.19,4.29.35,1.11.72,2.11,1.08,3.08a54.71,54.71,0,0,1,1.84,5.68c.62,2.4,2,6.56,3.19,9.9.57,1.66,1.06,3.09,1.32,3.91l.37,1.23c.73,2.37,1.73,5.61,2.05,6.34a3.68,3.68,0,0,1-.47,2.93l-1.27-.77a2.25,2.25,0,0,0,.38-1.57c-.35-.81-1.32-4-2.1-6.49l-.38-1.23c-.24-.77-.7-2.11-1.23-3.66a7.26,7.26,0,0,0-1.88-1.94,3.32,3.32,0,0,0-3.26-.25,27.7,27.7,0,0,1,2.25,3.14C190.76,53.38,191.31,55.25,192.53,59.33Z"/><path class="cls-119" d="M188.89,51.47a2.06,2.06,0,0,0,.23-2.82,2.48,2.48,0,0,0-1.68-1.13,1.63,1.63,0,0,0-1.25.52l.51.54a1,1,0,0,1,.69-.33c.33,0,.71.32,1.15.86a1.36,1.36,0,0,1-.19,1.85Z"/></g></g></g></svg>