<svg xmlns="http://www.w3.org/2000/svg" xmlns:xlink="http://www.w3.org/1999/xlink" viewBox="0 0 35.04 36.63"><defs><style>.cls-1{isolation:isolate;}.cls-2{mix-blend-mode:multiply;}.cls-3,.cls-4,.cls-5{fill:#fff;}.cls-3{opacity:0;}.cls-4{opacity:0.01;}.cls-5{opacity:0.02;}.cls-6{fill:#fdfeff;opacity:0.03;}.cls-7{fill:#fbfeff;opacity:0.04;}.cls-8{fill:#fafcfe;opacity:0.05;}.cls-9{fill:#f8fbfe;opacity:0.06;}.cls-10{fill:#f7f9fb;opacity:0.07;}.cls-11{fill:#f7f8fa;opacity:0.08;}.cls-12{fill:#f6f6fa;opacity:0.09;}.cls-13{fill:#f5f6fa;opacity:0.1;}.cls-14{fill:#f3f5f9;opacity:0.1;}.cls-15{fill:#f3f5f8;opacity:0.11;}.cls-16{fill:#f3f4f6;opacity:0.12;}.cls-17{fill:#f1f4f8;opacity:0.13;}.cls-18{fill:#f0f2f6;opacity:0.14;}.cls-19{fill:#f0f1f5;opacity:0.15;}.cls-20{fill:#eff0f5;opacity:0.16;}.cls-21{fill:#eeeff4;opacity:0.17;}.cls-22{fill:#edeff3;opacity:0.18;}.cls-23{fill:#ebeef2;opacity:0.19;}.cls-24{fill:#eaedf2;opacity:0.2;}.cls-25{fill:#e9ecf1;opacity:0.21;}.cls-26{fill:#e8ebf1;opacity:0.22;}.cls-27{fill:#e7e9f0;opacity:0.23;}.cls-28{fill:#e6e9f0;opacity:0.24;}.cls-29{fill:#e5e8ef;opacity:0.25;}.cls-30{fill:#e4e7ee;opacity:0.26;}.cls-31{fill:#e3e7ef;opacity:0.27;}.cls-32{fill:#e2e6ee;opacity:0.28;}.cls-33{fill:#e1e5ee;opacity:0.29;}.cls-34{fill:#e0e4ed;opacity:0.3;}.cls-35{fill:#dfe3eb;opacity:0.3;}.cls-36{fill:#dee2ec;opacity:0.31;}.cls-37{fill:#dde2eb;opacity:0.32;}.cls-38{fill:#dce1eb;opacity:0.33;}.cls-39{fill:#dbe1ea;opacity:0.34;}.cls-40{fill:#dae0ea;opacity:0.35;}.cls-41{fill:#d9dee9;opacity:0.36;}.cls-42{fill:#d8dde9;opacity:0.37;}.cls-43{fill:#d7dce8;opacity:0.38;}.cls-44{fill:#d6dbe8;opacity:0.39;}.cls-45{fill:#d5dce7;opacity:0.4;}.cls-46{fill:#d4dbe7;opacity:0.41;}.cls-47{fill:#d3d9e5;opacity:0.42;}.cls-48{fill:#d2d8e5;opacity:0.43;}.cls-49,.cls-50{fill:#d1d7e4;}.cls-49{opacity:0.44;}.cls-50{opacity:0.45;}.cls-51{fill:#d0d6e3;opacity:0.46;}.cls-52{fill:#ced6e3;opacity:0.47;}.cls-53{fill:#cdd5e2;opacity:0.48;}.cls-54{fill:#cdd4e1;opacity:0.49;}.cls-55{fill:#cdd3e1;opacity:0.5;}.cls-56{fill:#cdd2e1;opacity:0.5;}.cls-57{fill:#cbd1e1;opacity:0.51;}.cls-58{fill:#cad0e0;opacity:0.52;}.cls-59{fill:#c9cede;opacity:0.53;}.cls-60{fill:#c8cede;opacity:0.54;}.cls-61{fill:#c6ccdd;opacity:0.55;}.cls-62{fill:#c5cbdc;opacity:0.56;}.cls-63{fill:#c4cbdc;opacity:0.57;}.cls-64{fill:#c3cadb;opacity:0.58;}.cls-65{fill:#c2c9da;opacity:0.59;}.cls-66{fill:#c2c8da;opacity:0.6;}.cls-67{fill:#c1c8da;opacity:0.61;}.cls-68{fill:#c0c7d8;opacity:0.62;}.cls-69{fill:#bfc7d9;opacity:0.63;}.cls-70{fill:#bec6d8;opacity:0.64;}.cls-71{fill:#bcc4d7;opacity:0.65;}.cls-72{fill:#bbc3d7;opacity:0.66;}.cls-73{fill:#bac2d6;opacity:0.67;}.cls-74{fill:#b9c1d6;opacity:0.68;}.cls-75{fill:#b8c1d5;opacity:0.69;}.cls-76{fill:#b7c0d5;opacity:0.7;}.cls-77{fill:#b7bfd4;opacity:0.7;}.cls-78{fill:#b6bed3;opacity:0.71;}.cls-79{fill:#b5bdd3;opacity:0.72;}.cls-80{fill:#b4bcd2;opacity:0.73;}.cls-81{fill:#b2bbd2;opacity:0.74;}.cls-82{fill:#b1bbd1;opacity:0.75;}.cls-83{fill:#b0bad1;opacity:0.76;}.cls-84{fill:#afb9d0;opacity:0.77;}.cls-85{fill:#aeb9cf;opacity:0.78;}.cls-86{fill:#adb8cf;opacity:0.79;}.cls-87{fill:#adb7ce;opacity:0.8;}.cls-88{fill:#acb5ce;opacity:0.81;}.cls-89{fill:#abb4cd;opacity:0.82;}.cls-90{fill:#aab5cd;opacity:0.83;}.cls-91{fill:#a8b4cc;opacity:0.84;}.cls-92{fill:#a7b3cc;opacity:0.85;}.cls-93{fill:#a6b2cb;opacity:0.86;}.cls-94{fill:#a6b1cb;opacity:0.87;}.cls-95{fill:#a5b0ca;opacity:0.88;}.cls-96{fill:#a4afca;opacity:0.89;}.cls-97{fill:#a3afc8;opacity:0.9;}.cls-98{fill:#a2aec9;opacity:0.9;}.cls-99{fill:#a0adc8;opacity:0.91;}.cls-100{fill:#a0acc8;opacity:0.92;}.cls-101{fill:#9fabc7;opacity:0.93;}.cls-102{fill:#9eaac6;opacity:0.94;}.cls-103{fill:#9ca8c5;opacity:0.95;}.cls-104{fill:#9ca7c3;opacity:0.96;}.cls-105{fill:#9aa7c4;opacity:0.97;}.cls-106{fill:#99a6c3;opacity:0.98;}.cls-107{fill:#98a5c3;opacity:0.99;}.cls-108{fill:#98a4c2;}.cls-109{fill:url(#linear-gradient);}.cls-110{fill:none;}.cls-111{fill:#70c277;}.cls-112{fill:#47a762;}</style><linearGradient id="linear-gradient" x1="3.12" y1="12.34" x2="21.57" y2="12.34" gradientTransform="translate(22 -2.2) rotate(78.58)" gradientUnits="userSpaceOnUse"><stop offset="0.5" stop-color="#fff"/><stop offset="0.5" stop-color="#f3f3f3"/></linearGradient></defs><title>Marker-Green</title><g class="cls-1"><g id="Layer_2" data-name="Layer 2"><g id="Layer_1-2" data-name="Layer 1"><g class="cls-2"><path class="cls-3" d="M9.54,27l2.21,8.7a1.23,1.23,0,0,0,1.41.91L34,32.74a1.23,1.23,0,0,0,0-2.41L11,25.5A1.22,1.22,0,0,0,9.54,27Z"/><path class="cls-4" d="M9.57,27.08l2.19,8.62a1.21,1.21,0,0,0,1.4.9l20.67-3.83a1.22,1.22,0,0,0,0-2.39L11,25.59A1.22,1.22,0,0,0,9.57,27.08Z"/><path class="cls-5" d="M9.6,27.16l2.16,8.54a1.21,1.21,0,0,0,1.39.89L33.63,32.8a1.21,1.21,0,0,0,0-2.37L11,25.69A1.2,1.2,0,0,0,9.6,27.16Z"/><path class="cls-6" d="M9.62,27.24l2.15,8.46a1.2,1.2,0,0,0,1.38.88l20.28-3.76a1.19,1.19,0,0,0,0-2.34L11,25.78A1.2,1.2,0,0,0,9.62,27.24Z"/><path class="cls-7" d="M9.65,27.33l2.13,8.37a1.19,1.19,0,0,0,1.36.87l20.08-3.72a1.18,1.18,0,0,0,0-2.32L11,25.88A1.19,1.19,0,0,0,9.65,27.33Z"/><path class="cls-8" d="M9.68,27.41l2.11,8.29a1.17,1.17,0,0,0,1.35.86L33,32.88a1.17,1.17,0,0,0,0-2.3L11.06,26A1.18,1.18,0,0,0,9.68,27.41Z"/><path class="cls-9" d="M9.71,27.49l2.08,8.21a1.16,1.16,0,0,0,1.34.85L32.82,32.9a1.16,1.16,0,0,0,0-2.27L11.07,26.07A1.16,1.16,0,0,0,9.71,27.49Z"/><path class="cls-10" d="M9.74,27.57l2.06,8.12a1.15,1.15,0,0,0,1.33.85l19.48-3.61a1.15,1.15,0,0,0,0-2.25L11.09,26.16A1.15,1.15,0,0,0,9.74,27.57Z"/><path class="cls-11" d="M9.77,27.65l2,8a1.13,1.13,0,0,0,1.31.84L32.41,33a1.14,1.14,0,0,0,0-2.24L11.11,26.26A1.13,1.13,0,0,0,9.77,27.65Z"/><path class="cls-12" d="M9.8,27.73l2,8a1.12,1.12,0,0,0,1.3.83L32.21,33a1.13,1.13,0,0,0,0-2.22L11.12,26.35A1.12,1.12,0,0,0,9.8,27.73Z"/><path class="cls-13" d="M9.82,27.81l2,7.88a1.13,1.13,0,0,0,1.29.83L32,33a1.12,1.12,0,0,0,0-2.19L11.14,26.45A1.12,1.12,0,0,0,9.82,27.81Z"/><path class="cls-14" d="M9.85,27.89l2,7.8a1.11,1.11,0,0,0,1.28.82L31.8,33a1.11,1.11,0,0,0,0-2.17L11.15,26.54A1.1,1.1,0,0,0,9.85,27.89Z"/><path class="cls-15" d="M9.88,28l2,7.71a1.1,1.1,0,0,0,1.26.81l18.5-3.43a1.1,1.1,0,0,0,0-2.15L11.17,26.64A1.09,1.09,0,0,0,9.88,28Z"/><path class="cls-16" d="M9.91,28.06l1.94,7.63a1.08,1.08,0,0,0,1.24.8l18.3-3.39a1.09,1.09,0,0,0,0-2.13L11.18,26.73A1.09,1.09,0,0,0,9.91,28.06Z"/><path class="cls-17" d="M9.94,28.14l1.91,7.55a1.08,1.08,0,0,0,1.24.79l18.1-3.36a1.07,1.07,0,0,0,0-2.1l-20-4.19A1.07,1.07,0,0,0,9.94,28.14Z"/><path class="cls-18" d="M10,28.22l1.89,7.47a1.06,1.06,0,0,0,1.22.78L31,33.15a1.06,1.06,0,0,0,0-2.08l-19.8-4.15A1.06,1.06,0,0,0,10,28.22Z"/><path class="cls-19" d="M10,28.3l1.87,7.38a1,1,0,0,0,1.21.78l17.7-3.28a1,1,0,0,0,0-2.06L11.23,27A1,1,0,0,0,10,28.3Z"/><path class="cls-20" d="M10,28.38l1.86,7.3a1,1,0,0,0,1.19.77L30.58,33.2a1,1,0,0,0,0-2L11.24,27.11A1,1,0,0,0,10,28.38Z"/><path class="cls-21" d="M10.05,28.46l1.83,7.22a1,1,0,0,0,1.19.76l17.31-3.21a1,1,0,0,0,0-2l-19.14-4A1,1,0,0,0,10.05,28.46Z"/><path class="cls-22" d="M10.08,28.54l1.81,7.14a1,1,0,0,0,1.17.75l17.11-3.17a1,1,0,0,0,0-2l-18.92-4A1,1,0,0,0,10.08,28.54Z"/><path class="cls-23" d="M10.11,28.62l1.79,7.06a1,1,0,0,0,1.16.74L30,33.29a1,1,0,0,0,0-2L11.29,27.4A1,1,0,0,0,10.11,28.62Z"/><path class="cls-24" d="M10.14,28.71l1.77,7a1,1,0,0,0,1.14.73l16.72-3.1a1,1,0,0,0,0-1.94L11.31,27.49A1,1,0,0,0,10.14,28.71Z"/><path class="cls-25" d="M10.17,28.79l1.74,6.89a1,1,0,0,0,1.14.73l16.51-3.07a1,1,0,0,0,0-1.93L11.32,27.59A1,1,0,0,0,10.17,28.79Z"/><path class="cls-26" d="M10.2,28.87l1.72,6.81A1,1,0,0,0,13,36.4l16.32-3a1,1,0,0,0,0-1.91l-18-3.78A1,1,0,0,0,10.2,28.87Z"/><path class="cls-27" d="M10.23,29l1.7,6.73a1,1,0,0,0,1.11.71l16.12-3a1,1,0,0,0,0-1.88L11.35,27.78A1,1,0,0,0,10.23,29Z"/><path class="cls-28" d="M10.25,29l1.69,6.65a1,1,0,0,0,1.09.7l15.92-3a1,1,0,0,0,0-1.86l-17.6-3.69A1,1,0,0,0,10.25,29Z"/><path class="cls-29" d="M10.28,29.11l1.66,6.56a.94.94,0,0,0,1.09.7l15.72-2.92a.94.94,0,0,0,0-1.84L11.38,28A.94.94,0,0,0,10.28,29.11Z"/><path class="cls-30" d="M10.31,29.19,12,35.67a.93.93,0,0,0,1.07.69l15.53-2.88a.93.93,0,0,0,0-1.82L11.4,28.06A.93.93,0,0,0,10.31,29.19Z"/><path class="cls-31" d="M10.34,29.27,12,35.67a.91.91,0,0,0,1,.68L28.34,33.5a.91.91,0,0,0,0-1.79L11.41,28.16A.91.91,0,0,0,10.34,29.27Z"/><path class="cls-32" d="M10.37,29.36,12,35.67a.91.91,0,0,0,1,.67l15.13-2.81a.9.9,0,0,0,0-1.77l-16.73-3.5A.9.9,0,0,0,10.37,29.36Z"/><path class="cls-33" d="M10.4,29.44,12,35.67a.89.89,0,0,0,1,.66l14.94-2.77a.89.89,0,0,0,0-1.75L11.44,28.35A.89.89,0,0,0,10.4,29.44Z"/><path class="cls-34" d="M10.43,29.52,12,35.67a.88.88,0,0,0,1,.65l14.73-2.74a.88.88,0,0,0,0-1.72L11.46,28.45A.87.87,0,0,0,10.43,29.52Z"/><path class="cls-35" d="M10.45,29.6,12,35.67a.86.86,0,0,0,1,.64l14.54-2.7a.87.87,0,0,0,0-1.7L11.48,28.54A.88.88,0,0,0,10.45,29.6Z"/><path class="cls-36" d="M10.48,29.68l1.51,6a.86.86,0,0,0,1,.63l14.34-2.66a.86.86,0,0,0,0-1.68L11.49,28.64A.86.86,0,0,0,10.48,29.68Z"/><path class="cls-37" d="M10.51,29.76,12,35.67a.86.86,0,0,0,1,.63l14.14-2.63a.85.85,0,0,0,0-1.66L11.51,28.73A.85.85,0,0,0,10.51,29.76Z"/><path class="cls-38" d="M10.54,29.84,12,35.66a.83.83,0,0,0,1,.63l13.94-2.6a.83.83,0,0,0,0-1.63L11.52,28.83A.83.83,0,0,0,10.54,29.84Z"/><path class="cls-39" d="M10.57,29.92,12,35.66a.82.82,0,0,0,1,.62l13.75-2.56a.83.83,0,0,0,0-1.62L11.54,28.92A.82.82,0,0,0,10.57,29.92Z"/><path class="cls-40" d="M10.6,30,12,35.66a.82.82,0,0,0,1,.61l13.54-2.52a.82.82,0,0,0,0-1.6L11.55,29A.8.8,0,0,0,10.6,30Z"/><path class="cls-41" d="M10.63,30.09,12,35.66a.8.8,0,0,0,.93.6l13.35-2.48a.81.81,0,0,0,0-1.58L11.57,29.11A.8.8,0,0,0,10.63,30.09Z"/><path class="cls-42" d="M10.65,30.17,12,35.66a.79.79,0,0,0,.92.59L26.11,33.8a.79.79,0,0,0,0-1.55l-14.54-3A.79.79,0,0,0,10.65,30.17Z"/><path class="cls-43" d="M10.68,30.25l1.37,5.41a.77.77,0,0,0,.9.58l13-2.41a.78.78,0,0,0,0-1.53l-14.32-3A.78.78,0,0,0,10.68,30.25Z"/><path class="cls-44" d="M10.71,30.33l1.34,5.33a.76.76,0,0,0,.89.57L25.7,33.86a.77.77,0,0,0,0-1.51l-14.1-3A.76.76,0,0,0,10.71,30.33Z"/><path class="cls-45" d="M10.74,30.41l1.32,5.25a.75.75,0,0,0,.88.56L25.5,33.88a.75.75,0,0,0,0-1.48L11.63,29.49A.76.76,0,0,0,10.74,30.41Z"/><path class="cls-46" d="M10.77,30.49l1.3,5.17a.74.74,0,0,0,.86.55l12.36-2.3a.74.74,0,0,0,0-1.46L11.64,29.59A.74.74,0,0,0,10.77,30.49Z"/><path class="cls-47" d="M10.8,30.57l1.28,5.08a.72.72,0,0,0,.85.55l12.16-2.26a.73.73,0,0,0,0-1.44L11.66,29.68A.73.73,0,0,0,10.8,30.57Z"/><path class="cls-48" d="M10.83,30.66l1.25,5a.71.71,0,0,0,.84.54l12-2.22a.73.73,0,0,0,0-1.42L11.68,29.78A.72.72,0,0,0,10.83,30.66Z"/><path class="cls-49" d="M10.85,30.74l1.24,4.91a.72.72,0,0,0,.83.54L24.68,34a.71.71,0,0,0,0-1.39l-13-2.73A.72.72,0,0,0,10.85,30.74Z"/><path class="cls-50" d="M10.88,30.82l1.22,4.83a.69.69,0,0,0,.81.53L24.48,34a.7.7,0,0,0,0-1.37L11.71,30A.7.7,0,0,0,10.88,30.82Z"/><path class="cls-51" d="M10.91,30.9l1.2,4.75a.68.68,0,0,0,.8.52l11.37-2.12a.69.69,0,0,0,0-1.35L11.72,30.06A.69.69,0,0,0,10.91,30.9Z"/><path class="cls-52" d="M10.94,31l1.17,4.67a.68.68,0,0,0,.79.51l11.17-2.09a.68.68,0,0,0,0-1.33L11.74,30.16A.68.68,0,0,0,10.94,31Z"/><path class="cls-53" d="M11,31.06l1.15,4.59a.67.67,0,0,0,.78.5l11-2a.67.67,0,0,0,0-1.31L11.75,30.25A.66.66,0,0,0,11,31.06Z"/><path class="cls-54" d="M11,31.14l1.13,4.51a.65.65,0,0,0,.76.49l10.78-2a.66.66,0,0,0,0-1.29L11.77,30.35A.65.65,0,0,0,11,31.14Z"/><path class="cls-55" d="M11,31.22l1.11,4.43a.64.64,0,0,0,.75.48l10.57-2a.65.65,0,0,0,0-1.27L11.78,30.44A.64.64,0,0,0,11,31.22Z"/><path class="cls-56" d="M11.05,31.3l1.09,4.35a.63.63,0,0,0,.74.47l10.38-1.94a.63.63,0,0,0,0-1.24L11.8,30.54A.63.63,0,0,0,11.05,31.3Z"/><path class="cls-57" d="M11.08,31.39l1.07,4.25a.62.62,0,0,0,.73.47l10.18-1.9a.62.62,0,0,0,0-1.22L11.81,30.63A.63.63,0,0,0,11.08,31.39Z"/><path class="cls-58" d="M11.11,31.47l1.05,4.17a.6.6,0,0,0,.71.46l10-1.86a.61.61,0,0,0,0-1.2l-11-2.31A.61.61,0,0,0,11.11,31.47Z"/><path class="cls-59" d="M11.14,31.55l1,4.09a.58.58,0,0,0,.69.45l9.79-1.83a.6.6,0,0,0,0-1.17L11.85,30.82A.6.6,0,0,0,11.14,31.55Z"/><path class="cls-60" d="M11.17,31.63l1,4a.58.58,0,0,0,.69.44l9.59-1.79a.59.59,0,0,0,0-1.15L11.86,30.92A.59.59,0,0,0,11.17,31.63Z"/><path class="cls-61" d="M11.2,31.71l1,3.93a.58.58,0,0,0,.67.44l9.39-1.76a.58.58,0,0,0,0-1.13L11.88,31A.58.58,0,0,0,11.2,31.71Z"/><path class="cls-62" d="M11.23,31.79l1,3.85a.56.56,0,0,0,.66.43L22,34.35a.57.57,0,0,0,0-1.11L11.89,31.11A.56.56,0,0,0,11.23,31.79Z"/><path class="cls-63" d="M11.25,31.87l.94,3.77a.56.56,0,0,0,.65.42l9-1.69a.55.55,0,0,0,0-1.08l-9.93-2.08A.55.55,0,0,0,11.25,31.87Z"/><path class="cls-64" d="M11.28,32l.92,3.69a.55.55,0,0,0,.64.41l8.79-1.65a.54.54,0,0,0,0-1.06l-9.72-2A.54.54,0,0,0,11.28,32Z"/><path class="cls-65" d="M11.31,32l.9,3.6a.52.52,0,0,0,.62.4l8.6-1.61a.53.53,0,0,0,0-1l-9.49-2A.53.53,0,0,0,11.31,32Z"/><path class="cls-66" d="M11.34,32.12l.88,3.51a.51.51,0,0,0,.61.4l8.4-1.57a.53.53,0,0,0,0-1L12,31.49A.52.52,0,0,0,11.34,32.12Z"/><path class="cls-67" d="M11.37,32.2l.85,3.43a.51.51,0,0,0,.6.39L21,34.48a.51.51,0,0,0,0-1L12,31.59A.5.5,0,0,0,11.37,32.2Z"/><path class="cls-68" d="M11.4,32.28l.83,3.35a.49.49,0,0,0,.59.38l8-1.5a.5.5,0,0,0,0-1L12,31.68A.5.5,0,0,0,11.4,32.28Z"/><path class="cls-69" d="M11.43,32.36l.81,3.27a.47.47,0,0,0,.57.37l7.81-1.46a.49.49,0,0,0,0-1L12,31.78A.48.48,0,0,0,11.43,32.36Z"/><path class="cls-70" d="M11.45,32.44l.8,3.19a.46.46,0,0,0,.56.36l7.6-1.43a.47.47,0,0,0,0-.93L12,31.87A.48.48,0,0,0,11.45,32.44Z"/><path class="cls-71" d="M11.48,32.52l.77,3.11a.46.46,0,0,0,.55.35l7.41-1.39a.46.46,0,0,0,0-.91L12,32A.46.46,0,0,0,11.48,32.52Z"/><path class="cls-72" d="M11.51,32.6l.75,3a.44.44,0,0,0,.53.34L20,34.62a.46.46,0,0,0,0-.89l-8-1.67A.45.45,0,0,0,11.51,32.6Z"/><path class="cls-73" d="M11.54,32.69l.73,2.94a.43.43,0,0,0,.52.33l7-1.31a.44.44,0,0,0,0-.87l-7.74-1.62A.44.44,0,0,0,11.54,32.69Z"/><path class="cls-74" d="M11.57,32.77l.71,2.86a.42.42,0,0,0,.5.33l6.82-1.29a.43.43,0,0,0,0-.84l-7.52-1.58A.43.43,0,0,0,11.57,32.77Z"/><path class="cls-75" d="M11.6,32.85l.68,2.78a.42.42,0,0,0,.5.32L19.4,34.7a.42.42,0,0,0,0-.82l-7.31-1.53A.41.41,0,0,0,11.6,32.85Z"/><path class="cls-76" d="M11.63,32.93l.66,2.69a.4.4,0,0,0,.48.32l6.42-1.21a.41.41,0,0,0,0-.8l-7.08-1.49A.41.41,0,0,0,11.63,32.93Z"/><path class="cls-77" d="M11.65,33l.65,2.61a.39.39,0,0,0,.47.31L19,34.75A.39.39,0,0,0,19,34l-6.87-1.44A.4.4,0,0,0,11.65,33Z"/><path class="cls-78" d="M11.68,33.09l.63,2.53a.37.37,0,0,0,.45.3l6-1.14a.38.38,0,0,0,0-.75l-6.65-1.4A.39.39,0,0,0,11.68,33.09Z"/><path class="cls-79" d="M11.71,33.17l.6,2.45a.37.37,0,0,0,.45.29l5.82-1.1a.37.37,0,0,0,0-.73l-6.43-1.35A.37.37,0,0,0,11.71,33.17Z"/><path class="cls-80" d="M11.74,33.25l.58,2.37a.35.35,0,0,0,.43.28l5.63-1.06a.37.37,0,0,0,0-.72l-6.21-1.3A.36.36,0,0,0,11.74,33.25Z"/><path class="cls-81" d="M11.77,33.34l.56,2.28a.34.34,0,0,0,.42.27l5.43-1a.35.35,0,0,0,0-.69l-6-1.25A.35.35,0,0,0,11.77,33.34Z"/><path class="cls-82" d="M11.8,33.42l.54,2.2a.33.33,0,0,0,.4.26l5.23-1a.34.34,0,0,0,0-.67L12.2,33A.34.34,0,0,0,11.8,33.42Z"/><path class="cls-83" d="M11.83,33.5l.51,2.12a.33.33,0,0,0,.4.25l5-.95a.33.33,0,0,0,0-.65l-5.55-1.16A.33.33,0,0,0,11.83,33.5Z"/><path class="cls-84" d="M11.85,33.58l.5,2a.31.31,0,0,0,.38.24L17.57,35a.32.32,0,0,0,0-.63L12.23,33.2A.33.33,0,0,0,11.85,33.58Z"/><path class="cls-85" d="M11.88,33.66l.48,2a.3.3,0,0,0,.37.24L17.36,35a.31.31,0,0,0,0-.6L12.25,33.3A.31.31,0,0,0,11.88,33.66Z"/><path class="cls-86" d="M11.91,33.74l.46,1.87a.29.29,0,0,0,.35.24L17.16,35a.3.3,0,0,0,0-.58l-4.9-1A.3.3,0,0,0,11.91,33.74Z"/><path class="cls-87" d="M11.94,33.82l.43,1.79a.28.28,0,0,0,.34.23L17,35a.29.29,0,0,0,0-.56l-4.67-1A.28.28,0,0,0,11.94,33.82Z"/><path class="cls-88" d="M12,33.9l.41,1.71a.27.27,0,0,0,.33.22l4-.78a.27.27,0,0,0,0-.53l-4.46-.94A.27.27,0,0,0,12,33.9Z"/><path class="cls-89" d="M12,34l.39,1.63a.25.25,0,0,0,.31.21l3.85-.74a.26.26,0,0,0,0-.51l-4.24-.89A.25.25,0,0,0,12,34Z"/><path class="cls-90" d="M12,34.07l.37,1.54a.24.24,0,0,0,.3.2l3.65-.7a.25.25,0,0,0,0-.49l-4-.85A.25.25,0,0,0,12,34.07Z"/><path class="cls-91" d="M12.05,34.15l.35,1.46a.24.24,0,0,0,.29.19l3.45-.66a.24.24,0,0,0,0-.47l-3.8-.8A.24.24,0,0,0,12.05,34.15Z"/><path class="cls-92" d="M12.08,34.23l.33,1.38a.22.22,0,0,0,.28.18l3.25-.63a.22.22,0,0,0,0-.44L12.35,34A.22.22,0,0,0,12.08,34.23Z"/><path class="cls-93" d="M12.11,34.31l.31,1.3a.2.2,0,0,0,.26.17l3.06-.59a.22.22,0,0,0,0-.42l-3.36-.71A.22.22,0,0,0,12.11,34.31Z"/><path class="cls-94" d="M12.14,34.39l.28,1.21a.21.21,0,0,0,.26.17l2.85-.55a.21.21,0,0,0,0-.41l-3.15-.65A.2.2,0,0,0,12.14,34.39Z"/><path class="cls-95" d="M12.17,34.47l.26,1.13a.19.19,0,0,0,.24.16l2.66-.52a.19.19,0,0,0,0-.38l-2.92-.61A.2.2,0,0,0,12.17,34.47Z"/><path class="cls-96" d="M12.2,34.55l.24,1.05a.18.18,0,0,0,.23.15l2.46-.48a.19.19,0,0,0,0-.36l-2.7-.56A.18.18,0,0,0,12.2,34.55Z"/><path class="cls-97" d="M12.23,34.63l.22,1a.16.16,0,0,0,.21.14l2.26-.44a.17.17,0,0,0,0-.34l-2.49-.52A.17.17,0,0,0,12.23,34.63Z"/><path class="cls-98" d="M12.25,34.72l.2.88a.17.17,0,0,0,.21.14l2.06-.41a.17.17,0,0,0,0-.32l-2.26-.47A.17.17,0,0,0,12.25,34.72Z"/><path class="cls-99" d="M12.28,34.8l.18.8a.16.16,0,0,0,.19.13l1.87-.38a.15.15,0,0,0,0-.29l-2-.43A.16.16,0,0,0,12.28,34.8Z"/><path class="cls-100" d="M12.31,34.88l.16.72a.14.14,0,0,0,.17.12l1.67-.34a.14.14,0,0,0,0-.27l-1.82-.38A.14.14,0,0,0,12.31,34.88Z"/><path class="cls-101" d="M12.34,35l.14.64a.12.12,0,0,0,.16.11l1.47-.3a.13.13,0,0,0,0-.25l-1.61-.34A.13.13,0,0,0,12.34,35Z"/><path class="cls-102" d="M12.37,35l.11.56a.12.12,0,0,0,.15.1l1.28-.27a.11.11,0,0,0,0-.22l-1.39-.29A.11.11,0,0,0,12.37,35Z"/><path class="cls-103" d="M12.4,35.12l.09.48a.11.11,0,0,0,.14.09l1.07-.23a.1.1,0,0,0,0-.2L12.52,35A.1.1,0,0,0,12.4,35.12Z"/><path class="cls-104" d="M12.43,35.2l.07.39a.09.09,0,0,0,.12.09l.88-.19a.09.09,0,0,0,0-.18l-1-.2A.08.08,0,0,0,12.43,35.2Z"/><path class="cls-105" d="M12.45,35.28l.06.31a.08.08,0,0,0,.11.08l.68-.15a.08.08,0,0,0,0-.16l-.74-.16A.08.08,0,0,0,12.45,35.28Z"/><path class="cls-106" d="M12.48,35.37l0,.22a.07.07,0,0,0,.1.07l.48-.12a.07.07,0,0,0,0-.13l-.51-.11A.07.07,0,0,0,12.48,35.37Z"/><path class="cls-107" d="M12.51,35.45v.14a.06.06,0,0,0,.09.06l.28-.08a.06.06,0,0,0,0-.11l-.29-.07A.06.06,0,0,0,12.51,35.45Z"/><path class="cls-108" d="M12.54,35.53v.06a0,0,0,0,0,.07,0l.09,0a.06.06,0,0,0,0-.1H12.6S12.55,35.5,12.54,35.53Z"/></g><circle class="cls-109" cx="12.34" cy="12.34" r="9.22" transform="translate(-2.2 22) rotate(-78.58)"/><path class="cls-110" d="M21.71,12.63a9.22,9.22,0,0,0-9.22-9.22V21.85A9.22,9.22,0,0,0,21.71,12.63Z"/><path class="cls-110" d="M3.27,12.63a9.22,9.22,0,0,0,9.22,9.22V3.41A9.22,9.22,0,0,0,3.27,12.63Z"/><path class="cls-111" d="M12.49.29V3.41a9.22,9.22,0,0,1,0,18.44v14.2s7.64-11.32,11-17.74a12.09,12.09,0,0,0,1.25-3.85A12.38,12.38,0,0,0,12.49.29Z"/><path class="cls-112" d="M3.27,12.63a9.22,9.22,0,0,1,9.22-9.22V.29A12.32,12.32,0,0,0,.28,14.46a12.54,12.54,0,0,0,1.21,3.79c3.31,6.41,11,17.8,11,17.8V21.85A9.22,9.22,0,0,1,3.27,12.63Z"/><path class="cls-110" d="M21.57,12.34a9.22,9.22,0,0,0-9.23-9.22V21.57A9.23,9.23,0,0,0,21.57,12.34Z"/><path class="cls-110" d="M3.12,12.34a9.22,9.22,0,0,0,9.22,9.23V3.12A9.22,9.22,0,0,0,3.12,12.34Z"/><path class="cls-112" d="M12.34,0V3.12a9.23,9.23,0,1,1,0,18.45V35.76S20,24.44,23.31,18a12.35,12.35,0,0,0-11-18Z"/><path class="cls-111" d="M3.12,12.34a9.22,9.22,0,0,1,9.22-9.22V0A12.35,12.35,0,0,0,0,12.34a13.83,13.83,0,0,0,.13,1.83A12.12,12.12,0,0,0,1.35,18c3.3,6.41,11,17.8,11,17.8V21.57A9.22,9.22,0,0,1,3.12,12.34Z"/></g></g></g></svg>