<svg xmlns="http://www.w3.org/2000/svg" xmlns:xlink="http://www.w3.org/1999/xlink" viewBox="0 0 34.95 36.63"><defs><style>.cls-1{isolation:isolate;}.cls-2{mix-blend-mode:multiply;}.cls-3,.cls-4,.cls-5{fill:#fff;}.cls-3{opacity:0;}.cls-4{opacity:0.01;}.cls-5{opacity:0.02;}.cls-6{fill:#fdfeff;opacity:0.03;}.cls-7{fill:#fbfeff;opacity:0.04;}.cls-8{fill:#fafcfe;opacity:0.05;}.cls-9{fill:#f8fbfe;opacity:0.06;}.cls-10{fill:#f7f9fb;opacity:0.07;}.cls-11{fill:#f7f8fa;opacity:0.08;}.cls-12{fill:#f6f6fa;opacity:0.09;}.cls-13{fill:#f5f6fa;opacity:0.1;}.cls-14{fill:#f3f5f9;opacity:0.1;}.cls-15{fill:#f3f5f8;opacity:0.11;}.cls-16{fill:#f3f4f6;opacity:0.12;}.cls-17{fill:#f1f4f8;opacity:0.13;}.cls-18{fill:#f0f2f6;opacity:0.14;}.cls-19{fill:#f0f1f5;opacity:0.15;}.cls-20{fill:#eff0f5;opacity:0.16;}.cls-21{fill:#eeeff4;opacity:0.17;}.cls-22{fill:#edeff3;opacity:0.18;}.cls-23{fill:#ebeef2;opacity:0.19;}.cls-24{fill:#eaedf2;opacity:0.2;}.cls-25{fill:#e9ecf1;opacity:0.21;}.cls-26{fill:#e8ebf1;opacity:0.22;}.cls-27{fill:#e7e9f0;opacity:0.23;}.cls-28{fill:#e6e9f0;opacity:0.24;}.cls-29{fill:#e5e8ef;opacity:0.25;}.cls-30{fill:#e4e7ee;opacity:0.26;}.cls-31{fill:#e3e7ef;opacity:0.27;}.cls-32{fill:#e2e6ee;opacity:0.28;}.cls-33{fill:#e1e5ee;opacity:0.29;}.cls-34{fill:#e0e4ed;opacity:0.3;}.cls-35{fill:#dfe3eb;opacity:0.3;}.cls-36{fill:#dee2ec;opacity:0.31;}.cls-37{fill:#dde2eb;opacity:0.32;}.cls-38{fill:#dce1eb;opacity:0.33;}.cls-39{fill:#dbe1ea;opacity:0.34;}.cls-40{fill:#dae0ea;opacity:0.35;}.cls-41{fill:#d9dee9;opacity:0.36;}.cls-42{fill:#d8dde9;opacity:0.37;}.cls-43{fill:#d7dce8;opacity:0.38;}.cls-44{fill:#d6dbe8;opacity:0.39;}.cls-45{fill:#d5dce7;opacity:0.4;}.cls-46{fill:#d4dbe7;opacity:0.41;}.cls-47{fill:#d3d9e5;opacity:0.42;}.cls-48{fill:#d2d8e5;opacity:0.43;}.cls-49,.cls-50{fill:#d1d7e4;}.cls-49{opacity:0.44;}.cls-50{opacity:0.45;}.cls-51{fill:#d0d6e3;opacity:0.46;}.cls-52{fill:#ced6e3;opacity:0.47;}.cls-53{fill:#cdd5e2;opacity:0.48;}.cls-54{fill:#cdd4e1;opacity:0.49;}.cls-55{fill:#cdd3e1;opacity:0.5;}.cls-56{fill:#cdd2e1;opacity:0.5;}.cls-57{fill:#cbd1e1;opacity:0.51;}.cls-58{fill:#cad0e0;opacity:0.52;}.cls-59{fill:#c9cede;opacity:0.53;}.cls-60{fill:#c8cede;opacity:0.54;}.cls-61{fill:#c6ccdd;opacity:0.55;}.cls-62{fill:#c5cbdc;opacity:0.56;}.cls-63{fill:#c4cbdc;opacity:0.57;}.cls-64{fill:#c3cadb;opacity:0.58;}.cls-65{fill:#c2c9da;opacity:0.59;}.cls-66{fill:#c2c8da;opacity:0.6;}.cls-67{fill:#c1c8da;opacity:0.61;}.cls-68{fill:#c0c7d8;opacity:0.62;}.cls-69{fill:#bfc7d9;opacity:0.63;}.cls-70{fill:#bec6d8;opacity:0.64;}.cls-71{fill:#bcc4d7;opacity:0.65;}.cls-72{fill:#bbc3d7;opacity:0.66;}.cls-73{fill:#bac2d6;opacity:0.67;}.cls-74{fill:#b9c1d6;opacity:0.68;}.cls-75{fill:#b8c1d5;opacity:0.69;}.cls-76{fill:#b7c0d5;opacity:0.7;}.cls-77{fill:#b7bfd4;opacity:0.7;}.cls-78{fill:#b6bed3;opacity:0.71;}.cls-79{fill:#b5bdd3;opacity:0.72;}.cls-80{fill:#b4bcd2;opacity:0.73;}.cls-81{fill:#b2bbd2;opacity:0.74;}.cls-82{fill:#b1bbd1;opacity:0.75;}.cls-83{fill:#b0bad1;opacity:0.76;}.cls-84{fill:#afb9d0;opacity:0.77;}.cls-85{fill:#aeb9cf;opacity:0.78;}.cls-86{fill:#adb8cf;opacity:0.79;}.cls-87{fill:#adb7ce;opacity:0.8;}.cls-88{fill:#acb5ce;opacity:0.81;}.cls-89{fill:#abb4cd;opacity:0.82;}.cls-90{fill:#aab5cd;opacity:0.83;}.cls-91{fill:#a8b4cc;opacity:0.84;}.cls-92{fill:#a7b3cc;opacity:0.85;}.cls-93{fill:#a6b2cb;opacity:0.86;}.cls-94{fill:#a6b1cb;opacity:0.87;}.cls-95{fill:#a5b0ca;opacity:0.88;}.cls-96{fill:#a4afca;opacity:0.89;}.cls-97{fill:#a3afc8;opacity:0.9;}.cls-98{fill:#a2aec9;opacity:0.9;}.cls-99{fill:#a0adc8;opacity:0.91;}.cls-100{fill:#a0acc8;opacity:0.92;}.cls-101{fill:#9fabc7;opacity:0.93;}.cls-102{fill:#9eaac6;opacity:0.94;}.cls-103{fill:#9ca8c5;opacity:0.95;}.cls-104{fill:#9ca7c3;opacity:0.96;}.cls-105{fill:#9aa7c4;opacity:0.97;}.cls-106{fill:#99a6c3;opacity:0.98;}.cls-107{fill:#98a5c3;opacity:0.99;}.cls-108{fill:#98a4c2;}.cls-109{fill:url(#linear-gradient);}.cls-110{fill:none;}.cls-111{fill:#f99f39;}.cls-112{fill:#f0793d;}</style><linearGradient id="linear-gradient" x1="3.12" y1="12.34" x2="21.57" y2="12.34" gradientUnits="userSpaceOnUse"><stop offset="0.5" stop-color="#fff"/><stop offset="0.5" stop-color="#f3f3f3"/></linearGradient></defs><title>Marker-Orange</title><g class="cls-1"><g id="Layer_2" data-name="Layer 2"><g id="Layer_1-2" data-name="Layer 1"><g class="cls-2"><path class="cls-3" d="M9.45,27l2.21,8.7a1.23,1.23,0,0,0,1.42.91L34,32.74a1.23,1.23,0,0,0,0-2.41L10.9,25.5A1.23,1.23,0,0,0,9.45,27Z"/><path class="cls-4" d="M9.48,27.08l2.19,8.62a1.22,1.22,0,0,0,1.4.9l20.68-3.83a1.22,1.22,0,0,0,0-2.39L10.91,25.59A1.22,1.22,0,0,0,9.48,27.08Z"/><path class="cls-5" d="M9.51,27.16l2.17,8.54a1.19,1.19,0,0,0,1.39.89L33.54,32.8a1.21,1.21,0,0,0,0-2.37L10.93,25.69A1.2,1.2,0,0,0,9.51,27.16Z"/><path class="cls-6" d="M9.54,27.24l2.15,8.46a1.18,1.18,0,0,0,1.37.88l20.28-3.76a1.19,1.19,0,0,0,0-2.34l-22.43-4.7A1.19,1.19,0,0,0,9.54,27.24Z"/><path class="cls-7" d="M9.57,27.33l2.12,8.37a1.2,1.2,0,0,0,1.37.87l20.08-3.72a1.18,1.18,0,0,0,0-2.32L11,25.88A1.18,1.18,0,0,0,9.57,27.33Z"/><path class="cls-8" d="M9.6,27.41l2.1,8.29a1.17,1.17,0,0,0,1.35.86l19.88-3.68a1.17,1.17,0,0,0,0-2.3L11,26A1.17,1.17,0,0,0,9.6,27.41Z"/><path class="cls-9" d="M9.62,27.49l2.09,8.21a1.16,1.16,0,0,0,1.34.85L32.73,32.9a1.16,1.16,0,0,0,0-2.27L11,26.07A1.16,1.16,0,0,0,9.62,27.49Z"/><path class="cls-10" d="M9.65,27.57l2.07,8.12a1.14,1.14,0,0,0,1.32.85l19.49-3.61a1.15,1.15,0,0,0,0-2.25L11,26.16A1.15,1.15,0,0,0,9.65,27.57Z"/><path class="cls-11" d="M9.68,27.65l2,8a1.14,1.14,0,0,0,1.32.84L32.32,33a1.14,1.14,0,0,0,0-2.24L11,26.26A1.13,1.13,0,0,0,9.68,27.65Z"/><path class="cls-12" d="M9.71,27.73l2,8a1.12,1.12,0,0,0,1.3.83L32.12,33a1.13,1.13,0,0,0,0-2.22L11,26.35A1.13,1.13,0,0,0,9.71,27.73Z"/><path class="cls-13" d="M9.74,27.81l2,7.88a1.12,1.12,0,0,0,1.28.83L31.92,33a1.12,1.12,0,0,0,0-2.19L11.05,26.45A1.11,1.11,0,0,0,9.74,27.81Z"/><path class="cls-14" d="M9.77,27.89l2,7.8a1.12,1.12,0,0,0,1.28.82L31.71,33a1.11,1.11,0,0,0,0-2.17L11.07,26.54A1.1,1.1,0,0,0,9.77,27.89Z"/><path class="cls-15" d="M9.8,28l1.95,7.71A1.1,1.1,0,0,0,13,36.5l18.5-3.43a1.1,1.1,0,0,0,0-2.15L11.08,26.64A1.09,1.09,0,0,0,9.8,28Z"/><path class="cls-16" d="M9.82,28.06l1.94,7.63a1.09,1.09,0,0,0,1.25.8l18.3-3.39a1.09,1.09,0,0,0,0-2.13L11.1,26.73A1.09,1.09,0,0,0,9.82,28.06Z"/><path class="cls-17" d="M9.85,28.14l1.92,7.55a1.07,1.07,0,0,0,1.23.79l18.1-3.36a1.07,1.07,0,0,0,0-2.1l-20-4.19A1.07,1.07,0,0,0,9.85,28.14Z"/><path class="cls-18" d="M9.88,28.22l1.89,7.47a1.07,1.07,0,0,0,1.23.78l17.9-3.32a1.06,1.06,0,0,0,0-2.08L11.13,26.92A1.06,1.06,0,0,0,9.88,28.22Z"/><path class="cls-19" d="M9.91,28.3l1.87,7.38a1.06,1.06,0,0,0,1.21.78L30.7,33.18a1.05,1.05,0,0,0,0-2.06L11.14,27A1,1,0,0,0,9.91,28.3Z"/><path class="cls-20" d="M9.94,28.38l1.85,7.3a1,1,0,0,0,1.2.77l17.5-3.25a1,1,0,0,0,0-2L11.16,27.11A1,1,0,0,0,9.94,28.38Z"/><path class="cls-21" d="M10,28.46l1.83,7.22a1,1,0,0,0,1.18.76l17.31-3.21a1,1,0,0,0,0-2l-19.14-4A1,1,0,0,0,10,28.46Z"/><path class="cls-22" d="M10,28.54l1.8,7.14a1,1,0,0,0,1.18.75l17.11-3.17a1,1,0,0,0,0-2l-18.92-4A1,1,0,0,0,10,28.54Z"/><path class="cls-23" d="M10,28.62l1.79,7.06a1,1,0,0,0,1.16.74l16.91-3.13a1,1,0,0,0,0-2L11.2,27.4A1,1,0,0,0,10,28.62Z"/><path class="cls-24" d="M10.05,28.71l1.77,7a1,1,0,0,0,1.15.73l16.71-3.1a1,1,0,0,0,0-1.94L11.22,27.49A1,1,0,0,0,10.05,28.71Z"/><path class="cls-25" d="M10.08,28.79l1.75,6.89a1,1,0,0,0,1.13.73l16.52-3.07a1,1,0,0,0,0-1.93L11.23,27.59A1,1,0,0,0,10.08,28.79Z"/><path class="cls-26" d="M10.11,28.87l1.72,6.81A1,1,0,0,0,13,36.4l16.32-3a1,1,0,0,0,0-1.91l-18-3.78A1,1,0,0,0,10.11,28.87Z"/><path class="cls-27" d="M10.14,29l1.7,6.73a1,1,0,0,0,1.11.71l16.12-3a1,1,0,0,0,0-1.88L11.27,27.78A1,1,0,0,0,10.14,29Z"/><path class="cls-28" d="M10.17,29l1.68,6.65a1,1,0,0,0,1.09.7l15.93-3a1,1,0,0,0,0-1.86l-17.6-3.69A1,1,0,0,0,10.17,29Z"/><path class="cls-29" d="M10.2,29.11l1.66,6.56a.93.93,0,0,0,1.08.7l15.72-2.92a.94.94,0,0,0,0-1.84L11.3,28A.93.93,0,0,0,10.2,29.11Z"/><path class="cls-30" d="M10.22,29.19l1.64,6.48a.93.93,0,0,0,1.07.69l15.53-2.88a.93.93,0,0,0,0-1.82l-17.17-3.6A.93.93,0,0,0,10.22,29.19Z"/><path class="cls-31" d="M10.25,29.27l1.62,6.4a.92.92,0,0,0,1.06.68L28.26,33.5a.91.91,0,0,0,0-1.79L11.33,28.16A.92.92,0,0,0,10.25,29.27Z"/><path class="cls-32" d="M10.28,29.36l1.6,6.31a.89.89,0,0,0,1,.67l15.13-2.81a.9.9,0,0,0,0-1.77l-16.73-3.5A.9.9,0,0,0,10.28,29.36Z"/><path class="cls-33" d="M10.31,29.44l1.58,6.23a.88.88,0,0,0,1,.66l14.93-2.77a.89.89,0,0,0,0-1.75L11.36,28.35A.89.89,0,0,0,10.31,29.44Z"/><path class="cls-34" d="M10.34,29.52l1.55,6.15a.88.88,0,0,0,1,.65l14.74-2.74a.88.88,0,0,0,0-1.72L11.37,28.45A.87.87,0,0,0,10.34,29.52Z"/><path class="cls-35" d="M10.37,29.6l1.53,6.07a.86.86,0,0,0,1,.64l14.53-2.7a.87.87,0,0,0,0-1.7L11.39,28.54A.87.87,0,0,0,10.37,29.6Z"/><path class="cls-36" d="M10.4,29.68l1.51,6a.85.85,0,0,0,1,.63l14.34-2.66a.86.86,0,0,0,0-1.68L11.4,28.64A.85.85,0,0,0,10.4,29.68Z"/><path class="cls-37" d="M10.42,29.76l1.5,5.91a.85.85,0,0,0,1,.63L27,33.67a.85.85,0,0,0,0-1.66L11.42,28.73A.85.85,0,0,0,10.42,29.76Z"/><path class="cls-38" d="M10.45,29.84l1.47,5.82a.84.84,0,0,0,1,.63l13.94-2.6a.83.83,0,0,0,0-1.63L11.44,28.83A.84.84,0,0,0,10.45,29.84Z"/><path class="cls-39" d="M10.48,29.92l1.45,5.74a.83.83,0,0,0,1,.62l13.74-2.56a.83.83,0,0,0,0-1.62L11.45,28.92A.83.83,0,0,0,10.48,29.92Z"/><path class="cls-40" d="M10.51,30l1.43,5.65a.81.81,0,0,0,.94.61l13.55-2.52a.82.82,0,0,0,0-1.6L11.47,29A.81.81,0,0,0,10.51,30Z"/><path class="cls-41" d="M10.54,30.09,12,35.66a.78.78,0,0,0,.92.6l13.35-2.48a.81.81,0,0,0,0-1.58L11.48,29.11A.8.8,0,0,0,10.54,30.09Z"/><path class="cls-42" d="M10.57,30.17,12,35.66a.8.8,0,0,0,.92.59L26,33.8a.79.79,0,0,0,0-1.55l-14.53-3A.79.79,0,0,0,10.57,30.17Z"/><path class="cls-43" d="M10.6,30.25,12,35.66a.78.78,0,0,0,.9.58l13-2.41a.78.78,0,0,0,0-1.53l-14.32-3A.77.77,0,0,0,10.6,30.25Z"/><path class="cls-44" d="M10.62,30.33,12,35.66a.76.76,0,0,0,.89.57l12.75-2.37a.77.77,0,0,0,0-1.51l-14.1-3A.77.77,0,0,0,10.62,30.33Z"/><path class="cls-45" d="M10.65,30.41,12,35.66a.76.76,0,0,0,.88.56l12.56-2.34a.75.75,0,0,0,0-1.48L11.54,29.49A.76.76,0,0,0,10.65,30.41Z"/><path class="cls-46" d="M10.68,30.49,12,35.66a.75.75,0,0,0,.87.55l12.36-2.3a.74.74,0,0,0,0-1.46L11.56,29.59A.74.74,0,0,0,10.68,30.49Z"/><path class="cls-47" d="M10.71,30.57,12,35.65a.72.72,0,0,0,.85.55L25,33.94a.73.73,0,0,0,0-1.44L11.57,29.68A.73.73,0,0,0,10.71,30.57Z"/><path class="cls-48" d="M10.74,30.66l1.26,5a.71.71,0,0,0,.84.54L24.8,34a.73.73,0,0,0,0-1.42L11.59,29.78A.72.72,0,0,0,10.74,30.66Z"/><path class="cls-49" d="M10.77,30.74,12,35.65a.72.72,0,0,0,.83.54L24.6,34a.71.71,0,0,0,0-1.39l-13-2.73A.71.71,0,0,0,10.77,30.74Z"/><path class="cls-50" d="M10.8,30.82,12,35.65a.71.71,0,0,0,.82.53L24.39,34a.7.7,0,0,0,0-1.37L11.62,30A.69.69,0,0,0,10.8,30.82Z"/><path class="cls-51" d="M10.82,30.9,12,35.65a.69.69,0,0,0,.8.52l11.37-2.12a.69.69,0,0,0,0-1.35L11.64,30.06A.7.7,0,0,0,10.82,30.9Z"/><path class="cls-52" d="M10.85,31,12,35.65a.68.68,0,0,0,.79.51L24,34.07a.68.68,0,0,0,0-1.33L11.65,30.16A.68.68,0,0,0,10.85,31Z"/><path class="cls-53" d="M10.88,31.06,12,35.65a.67.67,0,0,0,.78.5l11-2a.67.67,0,0,0,0-1.31L11.67,30.25A.67.67,0,0,0,10.88,31.06Z"/><path class="cls-54" d="M10.91,31.14,12,35.65a.65.65,0,0,0,.76.49l10.78-2a.66.66,0,0,0,0-1.29L11.68,30.35A.65.65,0,0,0,10.91,31.14Z"/><path class="cls-55" d="M10.94,31.22l1.11,4.43a.64.64,0,0,0,.75.48l10.58-2a.65.65,0,0,0,0-1.27L11.7,30.44A.65.65,0,0,0,10.94,31.22Z"/><path class="cls-56" d="M11,31.3l1.09,4.35a.62.62,0,0,0,.73.47l10.38-1.94a.63.63,0,0,0,0-1.24l-11.47-2.4A.63.63,0,0,0,11,31.3Z"/><path class="cls-57" d="M11,31.39l1.06,4.25a.62.62,0,0,0,.73.47L23,34.21A.62.62,0,0,0,23,33L11.73,30.63A.62.62,0,0,0,11,31.39Z"/><path class="cls-58" d="M11,31.47l1.05,4.17a.6.6,0,0,0,.71.46l10-1.86a.61.61,0,0,0,0-1.2l-11-2.31A.61.61,0,0,0,11,31.47Z"/><path class="cls-59" d="M11.05,31.55l1,4.09a.59.59,0,0,0,.7.45l9.78-1.83a.6.6,0,0,0,0-1.17L11.76,30.82A.6.6,0,0,0,11.05,31.55Z"/><path class="cls-60" d="M11.08,31.63l1,4a.57.57,0,0,0,.68.44l9.59-1.79a.59.59,0,0,0,0-1.15l-10.6-2.22A.59.59,0,0,0,11.08,31.63Z"/><path class="cls-61" d="M11.11,31.71l1,3.93a.59.59,0,0,0,.68.44l9.39-1.76a.58.58,0,0,0,0-1.13L11.79,31A.58.58,0,0,0,11.11,31.71Z"/><path class="cls-62" d="M11.14,31.79l1,3.85a.56.56,0,0,0,.66.43L22,34.35a.57.57,0,0,0,0-1.11L11.81,31.11A.57.57,0,0,0,11.14,31.79Z"/><path class="cls-63" d="M11.17,31.87l.94,3.77a.55.55,0,0,0,.65.42l9-1.69a.55.55,0,0,0,0-1.08l-9.94-2.08A.54.54,0,0,0,11.17,31.87Z"/><path class="cls-64" d="M11.2,32l.92,3.69a.54.54,0,0,0,.63.41l8.8-1.65a.54.54,0,0,0,0-1.06l-9.71-2A.54.54,0,0,0,11.2,32Z"/><path class="cls-65" d="M11.22,32l.9,3.6a.53.53,0,0,0,.63.4l8.59-1.61a.53.53,0,0,0,0-1l-9.5-2A.54.54,0,0,0,11.22,32Z"/><path class="cls-66" d="M11.25,32.12l.88,3.51a.51.51,0,0,0,.61.4l8.4-1.57a.53.53,0,0,0,0-1l-9.27-1.94A.53.53,0,0,0,11.25,32.12Z"/><path class="cls-67" d="M11.28,32.2l.86,3.43a.5.5,0,0,0,.6.39l8.2-1.54a.51.51,0,0,0,0-1l-9.06-1.89A.51.51,0,0,0,11.28,32.2Z"/><path class="cls-68" d="M11.31,32.28l.84,3.35a.48.48,0,0,0,.58.38l8-1.5a.5.5,0,0,0,0-1L11.9,31.68A.5.5,0,0,0,11.31,32.28Z"/><path class="cls-69" d="M11.34,32.36l.81,3.27a.48.48,0,0,0,.57.37l7.81-1.46a.49.49,0,0,0,0-1l-8.62-1.8A.48.48,0,0,0,11.34,32.36Z"/><path class="cls-70" d="M11.37,32.44l.79,3.19a.47.47,0,0,0,.56.36l7.61-1.43a.47.47,0,0,0,0-.93l-8.4-1.76A.48.48,0,0,0,11.37,32.44Z"/><path class="cls-71" d="M11.4,32.52l.77,3.11a.45.45,0,0,0,.54.35l7.41-1.39a.46.46,0,0,0,0-.91L11.94,32A.45.45,0,0,0,11.4,32.52Z"/><path class="cls-72" d="M11.42,32.6l.76,3a.43.43,0,0,0,.53.34l7.21-1.35a.46.46,0,0,0,0-.89l-8-1.67A.46.46,0,0,0,11.42,32.6Z"/><path class="cls-73" d="M11.45,32.69l.73,2.94a.43.43,0,0,0,.52.33l7-1.31a.44.44,0,0,0,0-.87L12,32.16A.44.44,0,0,0,11.45,32.69Z"/><path class="cls-74" d="M11.48,32.77l.71,2.86a.43.43,0,0,0,.51.33l6.81-1.29a.43.43,0,0,0,0-.84L12,32.25A.43.43,0,0,0,11.48,32.77Z"/><path class="cls-75" d="M11.51,32.85l.69,2.78a.41.41,0,0,0,.49.32l6.62-1.25a.42.42,0,0,0,0-.82L12,32.35A.42.42,0,0,0,11.51,32.85Z"/><path class="cls-76" d="M11.54,32.93l.66,2.69a.42.42,0,0,0,.49.32l6.42-1.21a.41.41,0,0,0,0-.8L12,32.44A.41.41,0,0,0,11.54,32.93Z"/><path class="cls-77" d="M11.57,33l.64,2.61a.39.39,0,0,0,.47.31l6.22-1.18a.39.39,0,0,0,0-.77L12,32.54A.39.39,0,0,0,11.57,33Z"/><path class="cls-78" d="M11.6,33.09l.62,2.53a.38.38,0,0,0,.46.3l6-1.14a.38.38,0,0,0,0-.75l-6.65-1.4A.39.39,0,0,0,11.6,33.09Z"/><path class="cls-79" d="M11.63,33.17l.6,2.45a.37.37,0,0,0,.44.29l5.83-1.1a.37.37,0,0,0,0-.73l-6.43-1.35A.37.37,0,0,0,11.63,33.17Z"/><path class="cls-80" d="M11.65,33.25l.58,2.37a.36.36,0,0,0,.44.28l5.62-1.06a.37.37,0,0,0,0-.72l-6.21-1.3A.37.37,0,0,0,11.65,33.25Z"/><path class="cls-81" d="M11.68,33.34l.56,2.28a.35.35,0,0,0,.42.27l5.43-1a.35.35,0,0,0,0-.69l-6-1.25A.36.36,0,0,0,11.68,33.34Z"/><path class="cls-82" d="M11.71,33.42l.54,2.2a.33.33,0,0,0,.4.26l5.24-1a.34.34,0,0,0,0-.67L12.11,33A.34.34,0,0,0,11.71,33.42Z"/><path class="cls-83" d="M11.74,33.5l.52,2.12a.31.31,0,0,0,.39.25l5-.95a.33.33,0,0,0,0-.65l-5.55-1.16A.33.33,0,0,0,11.74,33.5Z"/><path class="cls-84" d="M11.77,33.58l.49,2a.31.31,0,0,0,.38.24L17.48,35a.32.32,0,0,0,0-.63L12.14,33.2A.32.32,0,0,0,11.77,33.58Z"/><path class="cls-85" d="M11.8,33.66l.47,2a.3.3,0,0,0,.37.24L17.28,35a.31.31,0,0,0,0-.6L12.16,33.3A.3.3,0,0,0,11.8,33.66Z"/><path class="cls-86" d="M11.83,33.74l.45,1.87a.29.29,0,0,0,.35.24L17.07,35a.3.3,0,0,0,0-.58l-4.89-1A.29.29,0,0,0,11.83,33.74Z"/><path class="cls-87" d="M11.85,33.82l.44,1.79a.28.28,0,0,0,.34.23L16.87,35a.29.29,0,0,0,0-.56l-4.68-1A.28.28,0,0,0,11.85,33.82Z"/><path class="cls-88" d="M11.88,33.9l.41,1.71a.28.28,0,0,0,.33.22l4.05-.78a.27.27,0,0,0,0-.53l-4.45-.94A.27.27,0,0,0,11.88,33.9Z"/><path class="cls-89" d="M11.91,34l.39,1.63a.26.26,0,0,0,.32.21l3.84-.74a.26.26,0,0,0,0-.51l-4.24-.89A.26.26,0,0,0,11.91,34Z"/><path class="cls-90" d="M11.94,34.07l.37,1.54a.24.24,0,0,0,.3.2l3.65-.7a.25.25,0,0,0,0-.49l-4-.85A.26.26,0,0,0,11.94,34.07Z"/><path class="cls-91" d="M12,34.15l.35,1.46a.23.23,0,0,0,.29.19l3.45-.66a.24.24,0,0,0,0-.47l-3.8-.8A.23.23,0,0,0,12,34.15Z"/><path class="cls-92" d="M12,34.23l.32,1.38a.22.22,0,0,0,.28.18l3.25-.63a.22.22,0,0,0,0-.44L12.27,34A.22.22,0,0,0,12,34.23Z"/><path class="cls-93" d="M12,34.31l.3,1.3a.21.21,0,0,0,.27.17l3.05-.59a.21.21,0,0,0,0-.42l-3.36-.71A.21.21,0,0,0,12,34.31Z"/><path class="cls-94" d="M12.05,34.39l.29,1.21a.19.19,0,0,0,.25.17l2.86-.55a.21.21,0,0,0,0-.41l-3.14-.65A.21.21,0,0,0,12.05,34.39Z"/><path class="cls-95" d="M12.08,34.47l.27,1.13a.18.18,0,0,0,.24.16l2.65-.52a.2.2,0,0,0,0-.38l-2.93-.61A.2.2,0,0,0,12.08,34.47Z"/><path class="cls-96" d="M12.11,34.55l.24,1.05a.18.18,0,0,0,.23.15L15,35.27a.19.19,0,0,0,0-.36l-2.7-.56A.18.18,0,0,0,12.11,34.55Z"/><path class="cls-97" d="M12.14,34.63l.22,1a.16.16,0,0,0,.21.14l2.27-.44a.18.18,0,0,0,0-.34l-2.49-.52A.17.17,0,0,0,12.14,34.63Z"/><path class="cls-98" d="M12.17,34.72l.2.88a.16.16,0,0,0,.2.14l2.06-.41a.17.17,0,0,0,0-.32l-2.27-.47A.16.16,0,0,0,12.17,34.72Z"/><path class="cls-99" d="M12.2,34.8l.18.8a.15.15,0,0,0,.18.13l1.87-.38a.15.15,0,0,0,0-.29l-2-.43A.15.15,0,0,0,12.2,34.8Z"/><path class="cls-100" d="M12.23,34.88l.15.72a.15.15,0,0,0,.18.12l1.67-.34a.14.14,0,0,0,0-.27l-1.83-.38A.13.13,0,0,0,12.23,34.88Z"/><path class="cls-101" d="M12.25,35l.14.64a.13.13,0,0,0,.16.11l1.47-.3a.13.13,0,0,0,0-.25l-1.6-.34A.13.13,0,0,0,12.25,35Z"/><path class="cls-102" d="M12.28,35l.12.56a.12.12,0,0,0,.15.1l1.27-.27a.11.11,0,0,0,0-.22l-1.39-.29A.11.11,0,0,0,12.28,35Z"/><path class="cls-103" d="M12.31,35.12l.1.48a.1.1,0,0,0,.13.09l1.08-.23a.1.1,0,0,0,0-.2L12.44,35A.11.11,0,0,0,12.31,35.12Z"/><path class="cls-104" d="M12.34,35.2l.07.39a.1.1,0,0,0,.13.09l.87-.19a.09.09,0,0,0,0-.18l-1-.2A.09.09,0,0,0,12.34,35.2Z"/><path class="cls-105" d="M12.37,35.28l.05.31a.08.08,0,0,0,.11.08l.68-.15a.08.08,0,0,0,0-.16l-.73-.16A.08.08,0,0,0,12.37,35.28Z"/><path class="cls-106" d="M12.4,35.37l0,.22a.07.07,0,0,0,.1.07l.48-.12a.07.07,0,0,0,0-.13l-.52-.11A.07.07,0,0,0,12.4,35.37Z"/><path class="cls-107" d="M12.43,35.45v.14a.05.05,0,0,0,.08.06l.28-.08a.06.06,0,0,0,0-.11l-.29-.07A.06.06,0,0,0,12.43,35.45Z"/><path class="cls-108" d="M12.45,35.53v.06s0,.07.08,0l.08,0a.06.06,0,0,0,0-.1h-.08S12.46,35.5,12.45,35.53Z"/></g><path class="cls-109" d="M12.34,21.57a9.23,9.23,0,1,1,9.23-9.23A9.22,9.22,0,0,1,12.34,21.57Z"/><path class="cls-110" d="M21.71,12.63a9.22,9.22,0,0,0-9.22-9.22V21.85A9.22,9.22,0,0,0,21.71,12.63Z"/><path class="cls-110" d="M3.27,12.63a9.22,9.22,0,0,0,9.22,9.22V3.41A9.22,9.22,0,0,0,3.27,12.63Z"/><path class="cls-111" d="M12.49.29V3.41a9.22,9.22,0,0,1,0,18.44v14.2s7.64-11.32,11-17.74a12.09,12.09,0,0,0,1.25-3.85A12.38,12.38,0,0,0,12.49.29Z"/><path class="cls-112" d="M3.27,12.63a9.22,9.22,0,0,1,9.22-9.22V.29A12.32,12.32,0,0,0,.28,14.46a12.54,12.54,0,0,0,1.21,3.79c3.31,6.41,11,17.8,11,17.8V21.85A9.22,9.22,0,0,1,3.27,12.63Z"/><path class="cls-110" d="M21.57,12.34a9.22,9.22,0,0,0-9.23-9.22V21.57A9.23,9.23,0,0,0,21.57,12.34Z"/><path class="cls-110" d="M3.12,12.34a9.22,9.22,0,0,0,9.22,9.23V3.12A9.22,9.22,0,0,0,3.12,12.34Z"/><path class="cls-112" d="M12.34,0V3.12a9.23,9.23,0,1,1,0,18.45V35.76S20,24.44,23.31,18a12.35,12.35,0,0,0-11-18Z"/><path class="cls-111" d="M3.12,12.34a9.22,9.22,0,0,1,9.22-9.22V0A12.35,12.35,0,0,0,0,12.34a13.83,13.83,0,0,0,.13,1.83A12.12,12.12,0,0,0,1.35,18c3.3,6.41,11,17.8,11,17.8V21.57A9.22,9.22,0,0,1,3.12,12.34Z"/></g></g></g></svg>