<svg xmlns="http://www.w3.org/2000/svg" xmlns:xlink="http://www.w3.org/1999/xlink" viewBox="0 0 24.83 36.05"><defs><style>.cls-1{fill:url(#linear-gradient);}.cls-2{fill:none;}.cls-3{fill:#70c277;}.cls-4{fill:#47a762;}.cls-5{fill:#231f20;}</style><linearGradient id="linear-gradient" x1="3.12" y1="12.34" x2="21.57" y2="12.34" gradientTransform="translate(22 -2.2) rotate(78.58)" gradientUnits="userSpaceOnUse"><stop offset="0.5" stop-color="#fff"/><stop offset="0.5" stop-color="#f3f3f3"/></linearGradient></defs><title>Marker-BE-Green</title><g id="Layer_2" data-name="Layer 2"><g id="Layer_1-2" data-name="Layer 1"><circle class="cls-1" cx="12.34" cy="12.34" r="9.22" transform="translate(-2.2 22) rotate(-78.58)"/><path class="cls-2" d="M21.71,12.63a9.22,9.22,0,0,0-9.22-9.22V21.85A9.22,9.22,0,0,0,21.71,12.63Z"/><path class="cls-2" d="M3.27,12.63a9.22,9.22,0,0,0,9.22,9.22V3.41A9.22,9.22,0,0,0,3.27,12.63Z"/><path class="cls-3" d="M12.49.29V3.41a9.22,9.22,0,0,1,0,18.44v14.2s7.64-11.32,11-17.74a12.09,12.09,0,0,0,1.25-3.85A12.38,12.38,0,0,0,12.49.29Z"/><path class="cls-4" d="M3.27,12.63a9.22,9.22,0,0,1,9.22-9.22V.29A12.32,12.32,0,0,0,.28,14.46a12.54,12.54,0,0,0,1.21,3.79c3.31,6.41,11,17.8,11,17.8V21.85A9.22,9.22,0,0,1,3.27,12.63Z"/><path class="cls-2" d="M21.57,12.34a9.22,9.22,0,0,0-9.23-9.22V21.57A9.23,9.23,0,0,0,21.57,12.34Z"/><path class="cls-2" d="M3.12,12.34a9.22,9.22,0,0,0,9.22,9.23V3.12A9.22,9.22,0,0,0,3.12,12.34Z"/><path class="cls-4" d="M12.34,0V3.12a9.23,9.23,0,1,1,0,18.45V35.76S20,24.44,23.31,18a12.35,12.35,0,0,0-11-18Z"/><path class="cls-3" d="M3.12,12.34a9.22,9.22,0,0,1,9.22-9.22V0A12.35,12.35,0,0,0,0,12.34a13.83,13.83,0,0,0,.13,1.83A12.12,12.12,0,0,0,1.35,18c3.3,6.41,11,17.8,11,17.8V21.57A9.22,9.22,0,0,1,3.12,12.34Z"/><path class="cls-5" d="M7.84,8.37h2.63a2,2,0,0,1,2.19,2.2,1.81,1.81,0,0,1-1.24,1.78v0a2,2,0,0,1,1.52,2.11c0,1.74-1,2.45-2.77,2.45H7.84Zm1.06,3.7h1.21a1.31,1.31,0,0,0,1.45-1.43c0-.89-.44-1.4-1.48-1.4H8.9Zm0,4h1.44a1.41,1.41,0,0,0,1.5-1.58,1.5,1.5,0,0,0-1.68-1.63H8.9Z"/><path class="cls-5" d="M14.07,8.37H18.5v.94H15.12V12H18.3v.94H15.12V16h3.52v.94H14.07Z"/></g></g></svg>