<svg xmlns="http://www.w3.org/2000/svg" viewBox="0 0 123.21 108.32"><defs><style>.cls-1{fill:#004990;fill-rule:evenodd;}</style></defs><title>Celgene-Logo</title><g id="Layer_2" data-name="Layer 2"><g id="Content"><path class="cls-1" d="M57.08,15.4a52.72,52.72,0,0,0-16.44,2.44C35.07,19.49,30.11,22.45,25,25.06A120.52,120.52,0,0,1,52,0l5.13,15.4Z"/><path class="cls-1" d="M57.6,17.49,63,33.84A38.5,38.5,0,0,0,47.69,28.1a63.81,63.81,0,0,0-34,6.27C25.41,26.19,38,18.36,52,17.4a25.72,25.72,0,0,1,5.65.09Z"/><path class="cls-1" d="M49.43,30.45A26.77,26.77,0,0,0,23.32,45c-6.17,15.14.27,31.5,8,44.11A93.1,93.1,0,0,1,15.15,70c-4.79-7.31-6.27-19.58-.61-27.23,8.18-11,21.23-15.49,34.89-12.36Z"/><path class="cls-1" d="M24.11,32.19C16.8,36.11,10.27,43.59,9.49,51.85,8,64,14.71,73.17,22.11,81.87c-9-5.31-22.36-13.4-22.1-26C-.34,44.37,11.23,37,20.19,33.15c1.39-.26,2.53-1,3.92-1Z"/><path class="cls-1" d="M57.78,90.05c-12.44,1-24.19-3.48-30.63-14.44-3.39-5.22-4.35-11.49-4.52-18,.78,8.26,6.52,16.79,14.44,20.18C43.51,81,52.73,80,58.65,76.3a20.87,20.87,0,0,0,5.91-5L57.78,90.05Z"/><path class="cls-1" d="M57.43,92.05l-5.22,16.27C41.16,101,32.46,89.88,27.33,78.48c6.87,10.18,18.18,14.27,30.1,13.57Z"/><path class="cls-1" d="M38.29,62.64c4,0,6.61-3.83,7.05-3.83a.56.56,0,0,1,.43.44c0,.26-.08.26-.08.52a2.72,2.72,0,0,1-1,1.48c-3.39,3.13-5.31,3.92-7.57,3.92-5.48,0-8.53-5-8.53-11.23,0-8.26,5.31-12.7,10-12.7,1.57,0,2.44.44,3.39.44a7.75,7.75,0,0,0,1.92-.44c.17,0,.35,0,.35.17a26.8,26.8,0,0,0-.26,3.4c0,1,.26,2.08.26,2.43s-.44.44-.53.53c-.08.26-.17.26-.34.26-.35,0-.35-.18-.44-.7-.43-2.35-2.26-3.91-5.13-3.91-3.48,0-5.74,2.95-5.74,8.52,0,6.7,2.34,10.7,6.26,10.7Z"/><path class="cls-1" d="M48.38,54.55c0,3.22.78,8.44,5.57,8.44,3.13,0,4.26-3,5-3,.17,0,.17.18.17.35a6.77,6.77,0,0,0-.09.78c0,.53-2.69,4.18-6.7,4.18-4.17,0-7.13-3.22-7.13-9.31,0-4.52,3.22-9.31,8.09-9.31,3.39,0,5.83,2.7,5.83,6.27,0,1.3-.35,1.56-1.91,1.56Zm3.83-6.18c-2.09,0-3.22,1.48-3.65,4.7a19.83,19.83,0,0,0,3.56.18c3.22,0,3.31-.09,3.31-1.13,0-2-1-3.75-3.22-3.75Z"/><path class="cls-1" d="M63.43,61.16c0,1.66.27,2.27,1.13,2.44,1.31.17,1.57.17,1.57.43s-.17.27-.26.44c-.09.35-.09.43-.26.43-.61,0-2.26-.26-3.66-.26a17.47,17.47,0,0,0-3.3.26c-.44,0-.7,0-.7-.26,0-.08.26-.34.35-.52s.17-.17.87-.52c.87-.44,1.13-1,1.13-2.87V43.33c0-1.48-.26-2.26-1.13-2.35-1.39-.17-1.74.09-1.74-.35a4.07,4.07,0,0,1,.52-.78c.18-.18.26-.18,1.92-.18,2.61,0,3-1.39,3.39-1.39a.68.68,0,0,1,.61.7,38.12,38.12,0,0,0-.44,5.65V61.16Z"/><path class="cls-1" d="M75.87,61.86c2.7,0,5.49,1.83,5.49,4.18,0,4.17-5.49,6.43-9.66,6.43s-6.44-1.39-6.44-3.74c0-1.65,1.48-3.56,1.91-3.56a4.91,4.91,0,0,0,0,1.82c.27,1.92,2.44,3.66,6.18,3.66,2.79,0,4.87-1.22,4.87-3.22,0-2.18-1.47-2.53-4-2.61-4,0-5-.18-6.09-.52-1.74-.53-2.26-1.48-2.26-2.44,0-1.22,1.13-1.3,2.35-3.65a5.17,5.17,0,0,1-3.48-4.79c0-4.35,6.26-6.79,8.53-6.79,1.74,0,3.82.79,5.48.79,1.91,0,2.35-.79,2.87-.79.17,0,.52.09.52.35s-.78.87-1.13,1.66a1.31,1.31,0,0,1-1.22.69,9.54,9.54,0,0,1-2.35-.78l-.09.09a5.16,5.16,0,0,1,1.74,3.56c0,4.53-4.69,6.44-8.35,6.44a5.18,5.18,0,0,1-1.13-.09,3.29,3.29,0,0,0-.87,1.92c0,1,.87,1.39,3,1.39ZM68.13,52.2c0,2.18,1.22,4.87,4,4.87a3.61,3.61,0,0,0,3.57-3.74c0-2.17-1.22-4.87-3.91-4.87a3.7,3.7,0,0,0-3.66,3.74Z"/><path class="cls-1" d="M82.92,54.47c0,3.21.78,8.43,5.66,8.43,3,0,4.17-2.95,5-2.95.17,0,.17.08.17.26s-.09.43-.09.87-2.69,4.09-6.7,4.09c-4.17,0-7.13-3.22-7.13-9.23,0-4.61,3.22-9.31,8.09-9.31,3.4,0,5.83,2.61,5.83,6.27,0,1.3-.35,1.57-1.91,1.57Zm3.92-6.27c-2.18,0-3.31,1.48-3.74,4.79,1,.08,1.91.17,3.56.17,3.22,0,3.31-.09,3.31-1.13,0-2-1-3.83-3.13-3.83Z"/><path class="cls-1" d="M108.07,61.16c0,1.48.61,2.27,1.39,2.44,1.13.17,1.3.17,1.3.52,0,.09-.17.18-.26.35-.08.35-.26.43-.43.43-.61,0-2-.26-3.4-.26-1.65,0-2.43.26-3,.26-.26,0-.44-.08-.44-.26s.18-.26.35-.43c.26-.35.18-.26.79-.61s.6-1.13.6-2.52v-8.7c0-2.61-.78-3.4-2.78-3.4C100.32,49,98,50.64,98,52.73v8.43c0,1.48.35,2.27,1.22,2.44,1.22.17,1.48.17,1.48.52,0,.09-.17.18-.26.35-.09.35-.26.43-.43.43-.61,0-2-.26-3.4-.26-1.65,0-2.43.26-3.65.26-.26,0-.35-.08-.35-.26s.09-.26.26-.43c.18-.35.18-.26.87-.61s1.13-1.13,1.13-2.52V50.2c0-.87-.17-1-.87-1.13s-1-.17-1-.43.26-.35.43-.53.26-.34.61-.34a7.67,7.67,0,0,0,3.22-.53c.52-.43.52-.61.78-.61.09,0,.61.35.61.53a9.64,9.64,0,0,0-.43,2.43c3-1.82,3.65-3,5.48-3,3,0,4.44,1.92,4.44,4.53v10Z"/><path class="cls-1" d="M112.5,54.47c0,3.21.7,8.43,5.57,8.43,3.13,0,4.27-2.95,5-2.95.18,0,.18.08.18.26s-.09.43-.09.87-2.7,4.09-6.7,4.09c-4.18,0-7.13-3.22-7.13-9.23,0-4.61,3.21-9.31,8.09-9.31,3.39,0,5.83,2.61,5.83,6.27,0,1.3-.35,1.57-1.83,1.57Zm3.83-6.27c-2.09,0-3.22,1.48-3.74,4.79,1.13.08,2,.17,3.57.17,3.22,0,3.3-.09,3.3-1.13,0-2-.95-3.83-3.13-3.83Z"/></g></g></svg>