<svg xmlns="http://www.w3.org/2000/svg" xmlns:xlink="http://www.w3.org/1999/xlink" viewBox="0 0 49.98 52.25"><defs><style>.cls-1{mix-blend-mode:multiply;}.cls-2{fill:#fff;opacity:0;}.cls-3{fill:#fefefe;opacity:0.01;}.cls-4{fill:#fdfdfe;opacity:0.02;}.cls-5{fill:#fcfcfd;opacity:0.03;}.cls-6{fill:#fbfcfd;opacity:0.04;}.cls-7{fill:#fafbfc;opacity:0.05;}.cls-8{fill:#f9fafc;opacity:0.06;}.cls-9{fill:#f8f9fb;opacity:0.07;}.cls-10{fill:#f7f8fa;opacity:0.08;}.cls-11{fill:#f6f7fa;opacity:0.09;}.cls-12{fill:#f5f6f9;opacity:0.1;}.cls-13{fill:#f4f5f9;opacity:0.1;}.cls-14{fill:#f3f5f8;opacity:0.11;}.cls-15{fill:#f2f4f7;opacity:0.12;}.cls-16{fill:#f1f3f7;opacity:0.13;}.cls-17{fill:#f0f2f6;opacity:0.14;}.cls-18{fill:#eff1f6;opacity:0.15;}.cls-19{fill:#eef0f5;opacity:0.16;}.cls-20{fill:#edeff5;opacity:0.17;}.cls-21{fill:#eceff4;opacity:0.18;}.cls-22{fill:#ebeef3;opacity:0.19;}.cls-23{fill:#eaedf3;opacity:0.2;}.cls-24{fill:#e9ecf2;opacity:0.21;}.cls-25{fill:#e8ebf2;opacity:0.22;}.cls-26{fill:#e7eaf1;opacity:0.23;}.cls-27{fill:#e6e9f0;opacity:0.24;}.cls-28{fill:#e5e8f0;opacity:0.25;}.cls-29{fill:#e4e8ef;opacity:0.26;}.cls-30{fill:#e3e7ef;opacity:0.27;}.cls-31{fill:#e2e6ee;opacity:0.28;}.cls-32{fill:#e1e5ee;opacity:0.29;}.cls-33{fill:#e0e4ed;opacity:0.3;}.cls-34{fill:#dfe3ec;opacity:0.3;}.cls-35{fill:#dee2ec;opacity:0.31;}.cls-36{fill:#dde2eb;opacity:0.32;}.cls-37{fill:#dce1eb;opacity:0.33;}.cls-38{fill:#dbe0ea;opacity:0.34;}.cls-39{fill:#dadfea;opacity:0.35;}.cls-40{fill:#d9dee9;opacity:0.36;}.cls-41{fill:#d8dde8;opacity:0.37;}.cls-42{fill:#d7dce8;opacity:0.38;}.cls-43{fill:#d6dbe7;opacity:0.39;}.cls-44{fill:#d5dbe7;opacity:0.4;}.cls-45{fill:#d4dae6;opacity:0.41;}.cls-46{fill:#d3d9e5;opacity:0.42;}.cls-47{fill:#d2d8e5;opacity:0.43;}.cls-48{fill:#d1d7e4;opacity:0.44;}.cls-49{fill:#d0d6e4;opacity:0.45;}.cls-50{fill:#cfd5e3;opacity:0.46;}.cls-51{fill:#ced5e3;opacity:0.47;}.cls-52{fill:#cdd4e2;opacity:0.48;}.cls-53{fill:#ccd3e1;opacity:0.49;}.cls-54{fill:#cbd2e1;opacity:0.5;}.cls-55{fill:#cbd1e0;opacity:0.5;}.cls-56{fill:#cad0e0;opacity:0.51;}.cls-57{fill:#c9cfdf;opacity:0.52;}.cls-58{fill:#c8cede;opacity:0.53;}.cls-59{fill:#c7cede;opacity:0.54;}.cls-60{fill:#c6cddd;opacity:0.55;}.cls-61{fill:#c5ccdd;opacity:0.56;}.cls-62{fill:#c4cbdc;opacity:0.57;}.cls-63{fill:#c3cadc;opacity:0.58;}.cls-64{fill:#c2c9db;opacity:0.59;}.cls-65{fill:#c1c8da;opacity:0.6;}.cls-66{fill:#c0c8da;opacity:0.61;}.cls-67{fill:#bfc7d9;opacity:0.62;}.cls-68{fill:#bec6d9;opacity:0.63;}.cls-69{fill:#bdc5d8;opacity:0.64;}.cls-70{fill:#bcc4d7;opacity:0.65;}.cls-71{fill:#bbc3d7;opacity:0.66;}.cls-72{fill:#bac2d6;opacity:0.67;}.cls-73{fill:#b9c1d6;opacity:0.68;}.cls-74{fill:#b8c1d5;opacity:0.69;}.cls-75{fill:#b7c0d5;opacity:0.7;}.cls-76{fill:#b6bfd4;opacity:0.7;}.cls-77{fill:#b5bed3;opacity:0.71;}.cls-78{fill:#b4bdd3;opacity:0.72;}.cls-79{fill:#b3bcd2;opacity:0.73;}.cls-80{fill:#b2bbd2;opacity:0.74;}.cls-81{fill:#b1bbd1;opacity:0.75;}.cls-82{fill:#b0bad1;opacity:0.76;}.cls-83{fill:#afb9d0;opacity:0.77;}.cls-84{fill:#aeb8cf;opacity:0.78;}.cls-85{fill:#adb7cf;opacity:0.79;}.cls-86{fill:#acb6ce;opacity:0.8;}.cls-87{fill:#abb5ce;opacity:0.81;}.cls-88{fill:#aab4cd;opacity:0.82;}.cls-89{fill:#a9b4cc;opacity:0.83;}.cls-90{fill:#a8b3cc;opacity:0.84;}.cls-91{fill:#a7b2cb;opacity:0.85;}.cls-92{fill:#a6b1cb;opacity:0.86;}.cls-93{fill:#a5b0ca;opacity:0.87;}.cls-94{fill:#a4afca;opacity:0.88;}.cls-95{fill:#a3aec9;opacity:0.89;}.cls-96{fill:#a2aec8;opacity:0.9;}.cls-97{fill:#a1adc8;opacity:0.9;}.cls-98{fill:#a0acc7;opacity:0.91;}.cls-99{fill:#9fabc7;opacity:0.92;}.cls-100{fill:#9eaac6;opacity:0.93;}.cls-101{fill:#9da9c5;opacity:0.94;}.cls-102{fill:#9ca8c5;opacity:0.95;}.cls-103{fill:#9ba7c4;opacity:0.96;}.cls-104{fill:#9aa7c4;opacity:0.97;}.cls-105{fill:#99a6c3;opacity:0.98;}.cls-106{fill:#98a5c3;opacity:0.99;}.cls-107{fill:#97a4c2;}.cls-108{fill:url(#linear-gradient);}.cls-109{fill:none;}.cls-110{fill:#6bc777;}.cls-111{fill:#46a762;}</style><linearGradient id="linear-gradient" x1="2.4" y1="9.5" x2="16.59" y2="9.5" gradientTransform="translate(16.92 -1.69) rotate(78.58)" gradientUnits="userSpaceOnUse"><stop offset="0.5" stop-color="#fff"/><stop offset="0.5" stop-color="#f2f2f2"/></linearGradient><symbol id="Pin-Point_2" data-name="Pin-Point 2" viewBox="0 0 26.95 28.18"><g class="cls-1"><path class="cls-2" d="M7.34,20.77,9,27.46a.94.94,0,0,0,1.09.7l16-3a1,1,0,0,0,0-1.86L8.45,19.61A1,1,0,0,0,7.34,20.77Z"/><path class="cls-3" d="M7.36,20.83,9,27.46a.94.94,0,0,0,1.08.69L26,25.21a.94.94,0,0,0,0-1.84L8.46,19.68A.94.94,0,0,0,7.36,20.83Z"/><path class="cls-4" d="M7.38,20.89l1.67,6.57a.94.94,0,0,0,1.07.69l15.75-2.92a.93.93,0,0,0,0-1.82L8.47,19.76A.93.93,0,0,0,7.38,20.89Z"/><path class="cls-5" d="M7.4,21l1.66,6.5a.91.91,0,0,0,1,.68l15.6-2.89a.92.92,0,0,0,0-1.81L8.48,19.83A.93.93,0,0,0,7.4,21Z"/><path class="cls-6" d="M7.43,21l1.63,6.44a.91.91,0,0,0,1,.67l15.45-2.86a.91.91,0,0,0,0-1.79L8.5,19.9A.92.92,0,0,0,7.43,21Z"/><path class="cls-7" d="M7.45,21.08l1.62,6.38a.89.89,0,0,0,1,.66L25.4,25.29a.9.9,0,0,0,0-1.77L8.51,20A.9.9,0,0,0,7.45,21.08Z"/><path class="cls-8" d="M7.47,21.14l1.6,6.32a.91.91,0,0,0,1,.66l15.14-2.81a.89.89,0,0,0,0-1.75L8.52,20.05A.89.89,0,0,0,7.47,21.14Z"/><path class="cls-9" d="M7.49,21.21l1.59,6.25a.88.88,0,0,0,1,.65l15-2.78a.88.88,0,0,0,0-1.73L8.53,20.12A.89.89,0,0,0,7.49,21.21Z"/><path class="cls-10" d="M7.51,21.27l1.57,6.19a.88.88,0,0,0,1,.64l14.84-2.75a.88.88,0,0,0,0-1.72L8.54,20.2A.87.87,0,0,0,7.51,21.27Z"/><path class="cls-11" d="M7.54,21.33l1.55,6.13a.87.87,0,0,0,1,.64l14.68-2.73a.87.87,0,0,0,0-1.7L8.55,20.27A.86.86,0,0,0,7.54,21.33Z"/><path class="cls-12" d="M7.56,21.39,9.1,27.45a.86.86,0,0,0,1,.64L24.62,25.4a.86.86,0,0,0,0-1.69L8.57,20.34A.86.86,0,0,0,7.56,21.39Z"/><path class="cls-13" d="M7.58,21.46l1.52,6a.85.85,0,0,0,1,.63l14.38-2.66a.85.85,0,0,0,0-1.67L8.58,20.42A.85.85,0,0,0,7.58,21.46Z"/><path class="cls-14" d="M7.6,21.52l1.51,5.93a.83.83,0,0,0,1,.62L24.3,25.44a.84.84,0,0,0,0-1.65L8.59,20.49A.84.84,0,0,0,7.6,21.52Z"/><path class="cls-15" d="M7.62,21.58l1.49,5.87a.84.84,0,0,0,1,.62l14.08-2.61a.84.84,0,0,0,0-1.64L8.6,20.56A.84.84,0,0,0,7.62,21.58Z"/><path class="cls-16" d="M7.65,21.64l1.47,5.81a.82.82,0,0,0,1,.61L24,25.48a.83.83,0,0,0,0-1.62L8.61,20.64A.81.81,0,0,0,7.65,21.64Z"/><path class="cls-17" d="M7.67,21.71l1.45,5.74a.81.81,0,0,0,.94.6L23.84,25.5a.82.82,0,0,0,0-1.6L8.63,20.71A.82.82,0,0,0,7.67,21.71Z"/><path class="cls-18" d="M7.69,21.77l1.44,5.68a.81.81,0,0,0,.93.6l13.62-2.53a.81.81,0,0,0,0-1.58L8.64,20.78A.81.81,0,0,0,7.69,21.77Z"/><path class="cls-19" d="M7.71,21.83l1.43,5.62a.79.79,0,0,0,.92.59l13.46-2.5a.8.8,0,0,0,0-1.56L8.65,20.86A.8.8,0,0,0,7.71,21.83Z"/><path class="cls-20" d="M7.73,21.89l1.41,5.56a.79.79,0,0,0,.91.58l13.32-2.47a.79.79,0,0,0,0-1.55L8.66,20.93A.79.79,0,0,0,7.73,21.89Z"/><path class="cls-21" d="M7.76,22l1.39,5.49a.78.78,0,0,0,.9.58l13.16-2.45a.78.78,0,0,0,0-1.53L8.67,21A.78.78,0,0,0,7.76,22Z"/><path class="cls-22" d="M7.78,22l1.37,5.43A.78.78,0,0,0,10,28l13-2.42a.77.77,0,0,0,0-1.51l-14.39-3A.77.77,0,0,0,7.78,22Z"/><path class="cls-23" d="M7.8,22.08l1.36,5.37A.75.75,0,0,0,10,28L22.9,25.63a.76.76,0,0,0,0-1.5l-14.21-3A.76.76,0,0,0,7.8,22.08Z"/><path class="cls-24" d="M7.82,22.14l1.34,5.3A.75.75,0,0,0,10,28l12.7-2.35a.76.76,0,0,0,0-1.49l-14-2.94A.76.76,0,0,0,7.82,22.14Z"/><path class="cls-25" d="M7.84,22.21l1.33,5.23A.74.74,0,0,0,10,28l12.55-2.33a.75.75,0,0,0,0-1.47L8.72,21.3A.74.74,0,0,0,7.84,22.21Z"/><path class="cls-26" d="M7.87,22.27l1.31,5.17A.73.73,0,0,0,10,28l12.4-2.3a.74.74,0,0,0,0-1.45L8.73,21.37A.73.73,0,0,0,7.87,22.27Z"/><path class="cls-27" d="M7.89,22.33l1.29,5.11A.71.71,0,0,0,10,28l12.25-2.27a.73.73,0,0,0,0-1.43L8.74,21.44A.73.73,0,0,0,7.89,22.33Z"/><path class="cls-28" d="M7.91,22.39l1.28,5.05A.72.72,0,0,0,10,28l12.1-2.25a.72.72,0,0,0,0-1.41L8.76,21.51A.73.73,0,0,0,7.91,22.39Z"/><path class="cls-29" d="M7.93,22.46l1.26,5A.71.71,0,0,0,10,28L22,25.75a.71.71,0,0,0,0-1.4L8.77,21.59A.71.71,0,0,0,7.93,22.46Z"/><path class="cls-30" d="M8,22.52,9.2,27.44A.7.7,0,0,0,10,28L21.8,25.77a.7.7,0,0,0,0-1.38l-13-2.73A.71.71,0,0,0,8,22.52Z"/><path class="cls-31" d="M8,22.58,9.2,27.44A.69.69,0,0,0,10,28l11.64-2.16a.69.69,0,0,0,0-1.36L8.79,21.73A.69.69,0,0,0,8,22.58Z"/><path class="cls-32" d="M8,22.64l1.21,4.8A.68.68,0,0,0,10,28l11.49-2.14a.68.68,0,0,0,0-1.34L8.8,21.81A.68.68,0,0,0,8,22.64Z"/><path class="cls-33" d="M8,22.71l1.2,4.73a.67.67,0,0,0,.78.5l11.33-2.11a.67.67,0,0,0,0-1.32L8.82,21.88A.68.68,0,0,0,8,22.71Z"/><path class="cls-34" d="M8,22.77l1.18,4.67a.66.66,0,0,0,.77.49l11.19-2.07a.68.68,0,0,0,0-1.32L8.83,22A.67.67,0,0,0,8,22.77Z"/><path class="cls-35" d="M8.06,22.83l1.17,4.61a.66.66,0,0,0,.76.49l11-2.05a.66.66,0,0,0,0-1.3L8.84,22A.66.66,0,0,0,8.06,22.83Z"/><path class="cls-36" d="M8.09,22.89l1.14,4.55a.65.65,0,0,0,.76.48l10.87-2a.65.65,0,0,0,0-1.28l-12-2.52A.64.64,0,0,0,8.09,22.89Z"/><path class="cls-37" d="M8.11,23l1.13,4.47a.63.63,0,0,0,.74.48l10.73-2a.64.64,0,0,0,0-1.26L8.86,22.17A.64.64,0,0,0,8.11,23Z"/><path class="cls-38" d="M8.13,23l1.11,4.41a.65.65,0,0,0,.74.48l10.57-2a.63.63,0,0,0,0-1.24L8.87,22.25A.63.63,0,0,0,8.13,23Z"/><path class="cls-39" d="M8.15,23.08l1.1,4.35a.62.62,0,0,0,.72.47L20.39,26a.63.63,0,0,0,0-1.23L8.89,22.32A.63.63,0,0,0,8.15,23.08Z"/><path class="cls-40" d="M8.17,23.14l1.09,4.29a.61.61,0,0,0,.71.46L20.24,26a.62.62,0,0,0,0-1.21L8.9,22.39A.62.62,0,0,0,8.17,23.14Z"/><path class="cls-41" d="M8.2,23.21l1.06,4.22a.6.6,0,0,0,.71.45L20.08,26a.61.61,0,0,0,0-1.19L8.91,22.47A.6.6,0,0,0,8.2,23.21Z"/><path class="cls-42" d="M8.22,23.27l1,4.16a.6.6,0,0,0,.69.45l10-1.86a.6.6,0,0,0,0-1.17l-11-2.31A.6.6,0,0,0,8.22,23.27Z"/><path class="cls-43" d="M8.24,23.33l1,4.1a.59.59,0,0,0,.69.44L19.77,26a.59.59,0,0,0,0-1.15L8.93,22.61A.59.59,0,0,0,8.24,23.33Z"/><path class="cls-44" d="M8.26,23.39l1,4a.57.57,0,0,0,.67.43l9.66-1.8a.58.58,0,0,0,0-1.14L9,22.69A.58.58,0,0,0,8.26,23.39Z"/><path class="cls-45" d="M8.28,23.46l1,4a.57.57,0,0,0,.67.43l9.51-1.77a.58.58,0,0,0,0-1.13L9,22.76A.58.58,0,0,0,8.28,23.46Z"/><path class="cls-46" d="M8.31,23.52l1,3.91a.57.57,0,0,0,.66.42l9.35-1.74a.57.57,0,0,0,0-1.11L9,22.83A.57.57,0,0,0,8.31,23.52Z"/><path class="cls-47" d="M8.33,23.58l1,3.85a.54.54,0,0,0,.64.41l9.2-1.71a.56.56,0,0,0,0-1.09L9,22.91A.55.55,0,0,0,8.33,23.58Z"/><path class="cls-48" d="M8.35,23.64l1,3.79a.54.54,0,0,0,.64.4l9-1.68a.55.55,0,0,0,0-1.08L9,23A.54.54,0,0,0,8.35,23.64Z"/><path class="cls-49" d="M8.37,23.71l.94,3.71a.53.53,0,0,0,.62.41l8.9-1.66a.54.54,0,0,0,0-1.06L9,23.05A.55.55,0,0,0,8.37,23.71Z"/><path class="cls-50" d="M8.39,23.77l.92,3.65a.53.53,0,0,0,.62.4l8.74-1.63a.53.53,0,0,0,0-1L9,23.13A.53.53,0,0,0,8.39,23.77Z"/><path class="cls-51" d="M8.42,23.83l.9,3.59a.5.5,0,0,0,.6.39l8.6-1.6a.52.52,0,0,0,0-1L9,23.2A.52.52,0,0,0,8.42,23.83Z"/><path class="cls-52" d="M8.44,23.89l.88,3.53a.52.52,0,0,0,.6.39l8.44-1.58a.51.51,0,0,0,0-1L9,23.27A.51.51,0,0,0,8.44,23.89Z"/><path class="cls-53" d="M8.46,24l.87,3.46a.51.51,0,0,0,.59.38l8.29-1.55a.51.51,0,0,0,0-1L9.05,23.35A.5.5,0,0,0,8.46,24Z"/><path class="cls-54" d="M8.48,24l.86,3.4a.47.47,0,0,0,.57.37l8.14-1.52a.49.49,0,0,0,0-1l-9-1.88A.5.5,0,0,0,8.48,24Z"/><path class="cls-55" d="M8.5,24.08l.84,3.34a.49.49,0,0,0,.57.37l8-1.5a.48.48,0,0,0,0-.95L9.08,23.49A.49.49,0,0,0,8.5,24.08Z"/><path class="cls-56" d="M8.53,24.14l.82,3.28a.47.47,0,0,0,.55.36l7.84-1.46a.48.48,0,0,0,0-.94L9.09,23.56A.47.47,0,0,0,8.53,24.14Z"/><path class="cls-57" d="M8.55,24.21l.8,3.21a.47.47,0,0,0,.55.35l7.68-1.43a.47.47,0,0,0,0-.92L9.1,23.64A.47.47,0,0,0,8.55,24.21Z"/><path class="cls-58" d="M8.57,24.27l.79,3.15a.45.45,0,0,0,.54.34l7.52-1.4a.46.46,0,0,0,0-.91L9.11,23.71A.46.46,0,0,0,8.57,24.27Z"/><path class="cls-59" d="M8.59,24.33l.77,3.09a.46.46,0,0,0,.53.34l7.38-1.38a.46.46,0,0,0,0-.89L9.12,23.78A.46.46,0,0,0,8.59,24.33Z"/><path class="cls-60" d="M8.61,24.39l.76,3a.44.44,0,0,0,.52.33l7.22-1.35a.44.44,0,0,0,0-.87l-8-1.67A.45.45,0,0,0,8.61,24.39Z"/><path class="cls-61" d="M8.64,24.46l.74,2.95a.42.42,0,0,0,.5.33L17,26.42a.43.43,0,0,0,0-.85L9.15,23.93A.44.44,0,0,0,8.64,24.46Z"/><path class="cls-62" d="M8.66,24.52l.72,2.89a.43.43,0,0,0,.5.33l6.92-1.3a.42.42,0,0,0,0-.83L9.16,24A.43.43,0,0,0,8.66,24.52Z"/><path class="cls-63" d="M8.68,24.58l.71,2.83a.41.41,0,0,0,.49.32l6.76-1.27a.42.42,0,0,0,0-.82L9.17,24.08A.41.41,0,0,0,8.68,24.58Z"/><path class="cls-64" d="M8.7,24.64l.69,2.77a.4.4,0,0,0,.48.31l6.61-1.24a.41.41,0,0,0,0-.8L9.18,24.15A.41.41,0,0,0,8.7,24.64Z"/><path class="cls-65" d="M8.72,24.71l.68,2.7a.39.39,0,0,0,.47.3l6.46-1.21a.4.4,0,0,0,0-.78l-7.14-1.5A.41.41,0,0,0,8.72,24.71Z"/><path class="cls-66" d="M8.74,24.77l.66,2.64a.39.39,0,0,0,.46.3l6.31-1.18a.39.39,0,0,0,0-.77l-7-1.46A.4.4,0,0,0,8.74,24.77Z"/><path class="cls-67" d="M8.77,24.83l.64,2.58a.38.38,0,0,0,.45.29L16,26.55a.39.39,0,0,0,0-.76l-6.8-1.42A.38.38,0,0,0,8.77,24.83Z"/><path class="cls-68" d="M8.79,24.89l.62,2.52a.37.37,0,0,0,.44.28l6-1.12a.38.38,0,0,0,0-.74L9.23,24.44A.38.38,0,0,0,8.79,24.89Z"/><path class="cls-69" d="M8.81,25l.61,2.45a.37.37,0,0,0,.43.28l5.85-1.1a.37.37,0,0,0,0-.72L9.24,24.52A.36.36,0,0,0,8.81,25Z"/><path class="cls-70" d="M8.83,25l.6,2.39a.35.35,0,0,0,.42.27l5.7-1.07a.36.36,0,0,0,0-.7l-6.3-1.32A.36.36,0,0,0,8.83,25Z"/><path class="cls-71" d="M8.85,25.08l.58,2.33a.35.35,0,0,0,.41.26l5.55-1a.35.35,0,0,0,0-.68L9.27,24.66A.36.36,0,0,0,8.85,25.08Z"/><path class="cls-72" d="M8.88,25.14l.56,2.27a.33.33,0,0,0,.4.26l5.39-1a.34.34,0,0,0,0-.67l-6-1.24A.33.33,0,0,0,8.88,25.14Z"/><path class="cls-73" d="M8.9,25.21l.54,2.19a.33.33,0,0,0,.39.26l5.25-1a.33.33,0,0,0,0-.65L9.29,24.81A.33.33,0,0,0,8.9,25.21Z"/><path class="cls-74" d="M8.92,25.27l.53,2.13a.31.31,0,0,0,.38.25l5.09-1a.32.32,0,0,0,0-.63L9.3,24.88A.32.32,0,0,0,8.92,25.27Z"/><path class="cls-75" d="M8.94,25.33l.51,2.07a.32.32,0,0,0,.38.24l4.93-.93a.31.31,0,0,0,0-.61L9.31,25A.31.31,0,0,0,8.94,25.33Z"/><path class="cls-76" d="M9,25.39l.5,2a.31.31,0,0,0,.36.24l4.79-.91a.3.3,0,0,0,0-.59L9.33,25A.31.31,0,0,0,9,25.39Z"/><path class="cls-77" d="M9,25.45l.48,1.95a.29.29,0,0,0,.35.23l4.63-.87a.3.3,0,0,0,0-.59L9.34,25.1A.3.3,0,0,0,9,25.45Z"/><path class="cls-78" d="M9,25.52l.46,1.88a.28.28,0,0,0,.34.22l4.49-.84a.29.29,0,0,0,0-.57l-4.94-1A.28.28,0,0,0,9,25.52Z"/><path class="cls-79" d="M9,25.58l.45,1.82a.28.28,0,0,0,.33.22l4.33-.82a.28.28,0,0,0,0-.55l-4.78-1A.28.28,0,0,0,9,25.58Z"/><path class="cls-80" d="M9.05,25.64l.43,1.76a.28.28,0,0,0,.33.21L14,26.82a.27.27,0,0,0,0-.53l-4.61-1A.27.27,0,0,0,9.05,25.64Z"/><path class="cls-81" d="M9.07,25.7l.42,1.7a.25.25,0,0,0,.31.2l4-.76a.26.26,0,0,0,0-.51L9.38,25.4A.26.26,0,0,0,9.07,25.7Z"/><path class="cls-82" d="M9.1,25.77l.39,1.63a.25.25,0,0,0,.31.19l3.87-.73a.26.26,0,0,0,0-.5L9.4,25.47A.25.25,0,0,0,9.1,25.77Z"/><path class="cls-83" d="M9.12,25.83,9.5,27.4a.24.24,0,0,0,.29.19l3.72-.71a.25.25,0,0,0,0-.48l-4.1-.86A.25.25,0,0,0,9.12,25.83Z"/><path class="cls-84" d="M9.14,25.89l.37,1.51a.23.23,0,0,0,.28.18l3.57-.68a.23.23,0,0,0,0-.46l-3.93-.83A.24.24,0,0,0,9.14,25.89Z"/><path class="cls-85" d="M9.16,26l.35,1.44a.22.22,0,0,0,.27.18l3.42-.65a.22.22,0,0,0,0-.44l-3.77-.79A.22.22,0,0,0,9.16,26Z"/><path class="cls-86" d="M9.18,26l.34,1.37a.21.21,0,0,0,.26.18L13,26.94a.21.21,0,0,0,0-.42l-3.6-.76A.22.22,0,0,0,9.18,26Z"/><path class="cls-87" d="M9.21,26.08l.31,1.31a.21.21,0,0,0,.26.17l3.11-.6a.21.21,0,0,0,0-.41l-3.42-.72A.21.21,0,0,0,9.21,26.08Z"/><path class="cls-88" d="M9.23,26.14l.3,1.25a.19.19,0,0,0,.24.16l3-.56a.21.21,0,0,0,0-.4l-3.26-.68A.2.2,0,0,0,9.23,26.14Z"/><path class="cls-89" d="M9.25,26.2l.28,1.19a.21.21,0,0,0,.24.16L12.58,27a.2.2,0,0,0,0-.38L9.48,26A.19.19,0,0,0,9.25,26.2Z"/><path class="cls-90" d="M9.27,26.27l.27,1.12a.18.18,0,0,0,.22.15L12.42,27a.18.18,0,0,0,0-.36l-2.92-.62A.19.19,0,0,0,9.27,26.27Z"/><path class="cls-91" d="M9.29,26.33l.26,1.06a.16.16,0,0,0,.21.14l2.5-.48a.18.18,0,0,0,0-.35L9.5,26.13A.18.18,0,0,0,9.29,26.33Z"/><path class="cls-92" d="M9.32,26.39l.23,1a.16.16,0,0,0,.21.13l2.35-.45a.17.17,0,0,0,0-.33L9.52,26.2A.17.17,0,0,0,9.32,26.39Z"/><path class="cls-93" d="M9.34,26.45l.22.94a.16.16,0,0,0,.19.13l2.2-.43a.16.16,0,0,0,0-.31l-2.41-.51A.16.16,0,0,0,9.34,26.45Z"/><path class="cls-94" d="M9.36,26.52l.2.87a.15.15,0,0,0,.19.12l2-.4a.15.15,0,0,0,0-.29l-2.25-.47A.15.15,0,0,0,9.36,26.52Z"/><path class="cls-95" d="M9.38,26.58l.19.81a.13.13,0,0,0,.17.11l1.9-.37a.14.14,0,0,0,0-.27l-2.08-.44A.14.14,0,0,0,9.38,26.58Z"/><path class="cls-96" d="M9.4,26.64l.17.75a.13.13,0,0,0,.17.11l1.74-.35a.13.13,0,0,0,0-.26l-1.91-.4A.14.14,0,0,0,9.4,26.64Z"/><path class="cls-97" d="M9.43,26.7l.15.69a.13.13,0,0,0,.16.1l1.58-.32a.12.12,0,0,0,0-.24l-1.75-.36A.11.11,0,0,0,9.43,26.7Z"/><path class="cls-98" d="M9.45,26.77l.14.61a.11.11,0,0,0,.14.1l1.44-.29a.11.11,0,0,0,0-.22l-1.57-.33A.12.12,0,0,0,9.45,26.77Z"/><path class="cls-99" d="M9.47,26.83l.12.55a.1.1,0,0,0,.14.09L11,27.22A.11.11,0,0,0,11,27l-1.4-.3A.11.11,0,0,0,9.47,26.83Z"/><path class="cls-100" d="M9.49,26.89l.11.49a.09.09,0,0,0,.12.09l1.13-.23a.1.1,0,0,0,0-.19l-1.24-.26A.09.09,0,0,0,9.49,26.89Z"/><path class="cls-101" d="M9.51,27l.09.43a.09.09,0,0,0,.12.08l1-.2a.09.09,0,0,0,0-.18l-1.07-.22A.1.1,0,0,0,9.51,27Z"/><path class="cls-102" d="M9.54,27l.07.36a.07.07,0,0,0,.1.07l.83-.17a.08.08,0,0,0,0-.16l-.9-.19A.08.08,0,0,0,9.54,27Z"/><path class="cls-103" d="M9.56,27.08l0,.3a.08.08,0,0,0,.1.07l.68-.15a.07.07,0,0,0,0-.14L9.65,27A.07.07,0,0,0,9.56,27.08Z"/><path class="cls-104" d="M9.58,27.14l0,.24a.06.06,0,0,0,.09.06l.52-.12a.06.06,0,0,0,0-.12l-.56-.12A.06.06,0,0,0,9.58,27.14Z"/><path class="cls-105" d="M9.6,27.2l0,.18a0,0,0,0,0,.07.05l.37-.09a.05.05,0,0,0,0-.1l-.39-.09A.06.06,0,0,0,9.6,27.2Z"/><path class="cls-106" d="M9.62,27.27v.11a.05.05,0,0,0,.07.05l.22-.07a0,0,0,0,0,0-.09l-.23,0S9.63,27.24,9.62,27.27Z"/><path class="cls-107" d="M9.65,27.33v.05s0,.05,0,0l.07,0a0,0,0,0,0,0-.07H9.69S9.65,27.31,9.65,27.33Z"/></g><circle class="cls-108" cx="9.5" cy="9.5" r="7.09" transform="translate(-1.69 16.92) rotate(-78.58)"/><path class="cls-109" d="M16.7,9.72a7.1,7.1,0,0,0-7.09-7.1V16.81A7.1,7.1,0,0,0,16.7,9.72Z"/><path class="cls-109" d="M2.51,9.72a7.1,7.1,0,0,0,7.1,7.09V2.62A7.1,7.1,0,0,0,2.51,9.72Z"/><path class="cls-110" d="M9.61.22v2.4a7.1,7.1,0,0,1,0,14.19V27.73S15.49,19,18,14.08a9.61,9.61,0,0,0,1-3,9.32,9.32,0,0,0,.1-1.4A9.49,9.49,0,0,0,9.61.22Z"/><path class="cls-111" d="M2.51,9.72a7.1,7.1,0,0,1,7.1-7.1V.22a9.5,9.5,0,0,0-9.5,9.5,10.85,10.85,0,0,0,.1,1.4A9.61,9.61,0,0,0,1.15,14C3.69,19,9.61,27.73,9.61,27.73V16.81A7.1,7.1,0,0,1,2.51,9.72Z"/><path class="cls-109" d="M16.59,9.5A7.1,7.1,0,0,0,9.5,2.4V16.59A7.1,7.1,0,0,0,16.59,9.5Z"/><path class="cls-109" d="M2.4,9.5a7.1,7.1,0,0,0,7.1,7.09V2.4A7.1,7.1,0,0,0,2.4,9.5Z"/><path class="cls-111" d="M9.5,0V2.4a7.1,7.1,0,0,1,0,14.19V27.51s5.88-8.71,8.43-13.65a9.61,9.61,0,0,0,1-3A9.32,9.32,0,0,0,19,9.5,9.49,9.49,0,0,0,9.5,0Z"/><path class="cls-110" d="M2.4,9.5A7.1,7.1,0,0,1,9.5,2.4V0A9.5,9.5,0,0,0,0,9.5a9.32,9.32,0,0,0,.1,1.4A9.61,9.61,0,0,0,1,13.82C3.58,18.74,9.5,27.51,9.5,27.51V16.59A7.1,7.1,0,0,1,2.4,9.5Z"/></symbol></defs><title>Green-Map-Marker</title><g id="Layer_2" data-name="Layer 2"><g id="Content"><use width="26.95" height="28.18" transform="scale(1.85)" xlink:href="#Pin-Point_2"/></g></g></svg>