<svg xmlns="http://www.w3.org/2000/svg" xmlns:xlink="http://www.w3.org/1999/xlink" viewBox="0 0 700 125"><defs><style>.cls-1{mix-blend-mode:multiply;}.cls-119,.cls-2{fill:#fff;}.cls-2{opacity:0;}.cls-3{fill:#fefefe;opacity:0.01;}.cls-4{fill:#fdfdfe;opacity:0.02;}.cls-5{fill:#fcfcfd;opacity:0.03;}.cls-6{fill:#fbfcfd;opacity:0.04;}.cls-7{fill:#fafbfc;opacity:0.05;}.cls-8{fill:#f9fafc;opacity:0.06;}.cls-9{fill:#f8f9fb;opacity:0.07;}.cls-10{fill:#f7f8fa;opacity:0.08;}.cls-11{fill:#f6f7fa;opacity:0.09;}.cls-12{fill:#f5f6f9;opacity:0.1;}.cls-13{fill:#f4f5f9;opacity:0.1;}.cls-14{fill:#f3f5f8;opacity:0.11;}.cls-15{fill:#f2f4f7;opacity:0.12;}.cls-16{fill:#f1f3f7;opacity:0.13;}.cls-17{fill:#f0f2f6;opacity:0.14;}.cls-18{fill:#eff1f6;opacity:0.15;}.cls-19{fill:#eef0f5;opacity:0.16;}.cls-20{fill:#edeff5;opacity:0.17;}.cls-21{fill:#eceff4;opacity:0.18;}.cls-22{fill:#ebeef3;opacity:0.19;}.cls-23{fill:#eaedf3;opacity:0.2;}.cls-24{fill:#e9ecf2;opacity:0.21;}.cls-25{fill:#e8ebf2;opacity:0.22;}.cls-26{fill:#e7eaf1;opacity:0.23;}.cls-27{fill:#e6e9f0;opacity:0.24;}.cls-28{fill:#e5e8f0;opacity:0.25;}.cls-29{fill:#e4e8ef;opacity:0.26;}.cls-30{fill:#e3e7ef;opacity:0.27;}.cls-31{fill:#e2e6ee;opacity:0.28;}.cls-32{fill:#e1e5ee;opacity:0.29;}.cls-33{fill:#e0e4ed;opacity:0.3;}.cls-34{fill:#dfe3ec;opacity:0.3;}.cls-35{fill:#dee2ec;opacity:0.31;}.cls-36{fill:#dde2eb;opacity:0.32;}.cls-37{fill:#dce1eb;opacity:0.33;}.cls-38{fill:#dbe0ea;opacity:0.34;}.cls-39{fill:#dadfea;opacity:0.35;}.cls-40{fill:#d9dee9;opacity:0.36;}.cls-41{fill:#d8dde8;opacity:0.37;}.cls-42{fill:#d7dce8;opacity:0.38;}.cls-43{fill:#d6dbe7;opacity:0.39;}.cls-44{fill:#d5dbe7;opacity:0.4;}.cls-45{fill:#d4dae6;opacity:0.41;}.cls-46{fill:#d3d9e5;opacity:0.42;}.cls-47{fill:#d2d8e5;opacity:0.43;}.cls-48{fill:#d1d7e4;opacity:0.44;}.cls-49{fill:#d0d6e4;opacity:0.45;}.cls-50{fill:#cfd5e3;opacity:0.46;}.cls-51{fill:#ced5e3;opacity:0.47;}.cls-52{fill:#cdd4e2;opacity:0.48;}.cls-53{fill:#ccd3e1;opacity:0.49;}.cls-54{fill:#cbd2e1;opacity:0.5;}.cls-55{fill:#cbd1e0;opacity:0.5;}.cls-56{fill:#cad0e0;opacity:0.51;}.cls-57{fill:#c9cfdf;opacity:0.52;}.cls-58{fill:#c8cede;opacity:0.53;}.cls-59{fill:#c7cede;opacity:0.54;}.cls-60{fill:#c6cddd;opacity:0.55;}.cls-61{fill:#c5ccdd;opacity:0.56;}.cls-62{fill:#c4cbdc;opacity:0.57;}.cls-63{fill:#c3cadc;opacity:0.58;}.cls-64{fill:#c2c9db;opacity:0.59;}.cls-65{fill:#c1c8da;opacity:0.6;}.cls-66{fill:#c0c8da;opacity:0.61;}.cls-67{fill:#bfc7d9;opacity:0.62;}.cls-68{fill:#bec6d9;opacity:0.63;}.cls-69{fill:#bdc5d8;opacity:0.64;}.cls-70{fill:#bcc4d7;opacity:0.65;}.cls-71{fill:#bbc3d7;opacity:0.66;}.cls-72{fill:#bac2d6;opacity:0.67;}.cls-73{fill:#b9c1d6;opacity:0.68;}.cls-74{fill:#b8c1d5;opacity:0.69;}.cls-75{fill:#b7c0d5;opacity:0.7;}.cls-76{fill:#b6bfd4;opacity:0.7;}.cls-77{fill:#b5bed3;opacity:0.71;}.cls-78{fill:#b4bdd3;opacity:0.72;}.cls-79{fill:#b3bcd2;opacity:0.73;}.cls-80{fill:#b2bbd2;opacity:0.74;}.cls-81{fill:#b1bbd1;opacity:0.75;}.cls-82{fill:#b0bad1;opacity:0.76;}.cls-83{fill:#afb9d0;opacity:0.77;}.cls-84{fill:#aeb8cf;opacity:0.78;}.cls-85{fill:#adb7cf;opacity:0.79;}.cls-86{fill:#acb6ce;opacity:0.8;}.cls-87{fill:#abb5ce;opacity:0.81;}.cls-88{fill:#aab4cd;opacity:0.82;}.cls-89{fill:#a9b4cc;opacity:0.83;}.cls-90{fill:#a8b3cc;opacity:0.84;}.cls-91{fill:#a7b2cb;opacity:0.85;}.cls-92{fill:#a6b1cb;opacity:0.86;}.cls-93{fill:#a5b0ca;opacity:0.87;}.cls-94{fill:#a4afca;opacity:0.88;}.cls-95{fill:#a3aec9;opacity:0.89;}.cls-96{fill:#a2aec8;opacity:0.9;}.cls-97{fill:#a1adc8;opacity:0.9;}.cls-98{fill:#a0acc7;opacity:0.91;}.cls-99{fill:#9fabc7;opacity:0.92;}.cls-100{fill:#9eaac6;opacity:0.93;}.cls-101{fill:#9da9c5;opacity:0.94;}.cls-102{fill:#9ca8c5;opacity:0.95;}.cls-103{fill:#9ba7c4;opacity:0.96;}.cls-104{fill:#9aa7c4;opacity:0.97;}.cls-105{fill:#99a6c3;opacity:0.98;}.cls-106{fill:#98a5c3;opacity:0.99;}.cls-107{fill:#97a4c2;}.cls-108{fill:url(#linear-gradient);}.cls-109{fill:none;}.cls-110{fill:#f99f38;}.cls-111{fill:#f1793e;}.cls-112{fill:url(#linear-gradient-2);}.cls-113{fill:#6bc777;}.cls-114{fill:#46a762;}.cls-115{fill:url(#linear-gradient-3);}.cls-116{fill:#3283c7;}.cls-117{fill:#2d6bae;}.cls-118{opacity:0.75;}.cls-119{fill-rule:evenodd;}.cls-120{fill:#231f20;}</style><linearGradient id="linear-gradient" x1="2.4" y1="9.5" x2="16.59" y2="9.5" gradientUnits="userSpaceOnUse"><stop offset="0.5" stop-color="#fff"/><stop offset="0.5" stop-color="#f2f2f2"/></linearGradient><linearGradient id="linear-gradient-2" x1="2.4" y1="9.5" x2="16.59" y2="9.5" gradientTransform="translate(16.92 -1.69) rotate(78.58)" xlink:href="#linear-gradient"/><linearGradient id="linear-gradient-3" x1="2.4" y1="9.5" x2="16.59" y2="9.5" xlink:href="#linear-gradient"/><symbol id="Pin-Point_2" data-name="Pin-Point 2" viewBox="0 0 26.95 28.18"><g class="cls-1"><path class="cls-2" d="M7.34,20.77,9,27.46a.94.94,0,0,0,1.09.7l16-3a1,1,0,0,0,0-1.86L8.45,19.61A1,1,0,0,0,7.34,20.77Z"/><path class="cls-3" d="M7.36,20.83,9,27.46a.94.94,0,0,0,1.08.69L26,25.21a.94.94,0,0,0,0-1.84L8.46,19.68A.94.94,0,0,0,7.36,20.83Z"/><path class="cls-4" d="M7.38,20.89l1.67,6.57a.94.94,0,0,0,1.07.69l15.75-2.92a.93.93,0,0,0,0-1.82L8.47,19.76A.93.93,0,0,0,7.38,20.89Z"/><path class="cls-5" d="M7.4,21l1.66,6.5a.91.91,0,0,0,1,.68l15.6-2.89a.92.92,0,0,0,0-1.81L8.48,19.83A.93.93,0,0,0,7.4,21Z"/><path class="cls-6" d="M7.43,21l1.63,6.44a.91.91,0,0,0,1,.67l15.45-2.86a.91.91,0,0,0,0-1.79L8.5,19.9A.92.92,0,0,0,7.43,21Z"/><path class="cls-7" d="M7.45,21.08l1.62,6.38a.89.89,0,0,0,1,.66L25.4,25.29a.9.9,0,0,0,0-1.77L8.51,20A.9.9,0,0,0,7.45,21.08Z"/><path class="cls-8" d="M7.47,21.14l1.6,6.32a.91.91,0,0,0,1,.66l15.14-2.81a.89.89,0,0,0,0-1.75L8.52,20.05A.89.89,0,0,0,7.47,21.14Z"/><path class="cls-9" d="M7.49,21.21l1.59,6.25a.88.88,0,0,0,1,.65l15-2.78a.88.88,0,0,0,0-1.73L8.53,20.12A.89.89,0,0,0,7.49,21.21Z"/><path class="cls-10" d="M7.51,21.27l1.57,6.19a.88.88,0,0,0,1,.64l14.84-2.75a.88.88,0,0,0,0-1.72L8.54,20.2A.87.87,0,0,0,7.51,21.27Z"/><path class="cls-11" d="M7.54,21.33l1.55,6.13a.87.87,0,0,0,1,.64l14.68-2.73a.87.87,0,0,0,0-1.7L8.55,20.27A.86.86,0,0,0,7.54,21.33Z"/><path class="cls-12" d="M7.56,21.39,9.1,27.45a.86.86,0,0,0,1,.64L24.62,25.4a.86.86,0,0,0,0-1.69L8.57,20.34A.86.86,0,0,0,7.56,21.39Z"/><path class="cls-13" d="M7.58,21.46l1.52,6a.85.85,0,0,0,1,.63l14.38-2.66a.85.85,0,0,0,0-1.67L8.58,20.42A.85.85,0,0,0,7.58,21.46Z"/><path class="cls-14" d="M7.6,21.52l1.51,5.93a.83.83,0,0,0,1,.62L24.3,25.44a.84.84,0,0,0,0-1.65L8.59,20.49A.84.84,0,0,0,7.6,21.52Z"/><path class="cls-15" d="M7.62,21.58l1.49,5.87a.84.84,0,0,0,1,.62l14.08-2.61a.84.84,0,0,0,0-1.64L8.6,20.56A.84.84,0,0,0,7.62,21.58Z"/><path class="cls-16" d="M7.65,21.64l1.47,5.81a.82.82,0,0,0,1,.61L24,25.48a.83.83,0,0,0,0-1.62L8.61,20.64A.81.81,0,0,0,7.65,21.64Z"/><path class="cls-17" d="M7.67,21.71l1.45,5.74a.81.81,0,0,0,.94.6L23.84,25.5a.82.82,0,0,0,0-1.6L8.63,20.71A.82.82,0,0,0,7.67,21.71Z"/><path class="cls-18" d="M7.69,21.77l1.44,5.68a.81.81,0,0,0,.93.6l13.62-2.53a.81.81,0,0,0,0-1.58L8.64,20.78A.81.81,0,0,0,7.69,21.77Z"/><path class="cls-19" d="M7.71,21.83l1.43,5.62a.79.79,0,0,0,.92.59l13.46-2.5a.8.8,0,0,0,0-1.56L8.65,20.86A.8.8,0,0,0,7.71,21.83Z"/><path class="cls-20" d="M7.73,21.89l1.41,5.56a.79.79,0,0,0,.91.58l13.32-2.47a.79.79,0,0,0,0-1.55L8.66,20.93A.79.79,0,0,0,7.73,21.89Z"/><path class="cls-21" d="M7.76,22l1.39,5.49a.78.78,0,0,0,.9.58l13.16-2.45a.78.78,0,0,0,0-1.53L8.67,21A.78.78,0,0,0,7.76,22Z"/><path class="cls-22" d="M7.78,22l1.37,5.43A.78.78,0,0,0,10,28l13-2.42a.77.77,0,0,0,0-1.51l-14.39-3A.77.77,0,0,0,7.78,22Z"/><path class="cls-23" d="M7.8,22.08l1.36,5.37A.75.75,0,0,0,10,28L22.9,25.63a.76.76,0,0,0,0-1.5l-14.21-3A.76.76,0,0,0,7.8,22.08Z"/><path class="cls-24" d="M7.82,22.14l1.34,5.3A.75.75,0,0,0,10,28l12.7-2.35a.76.76,0,0,0,0-1.49l-14-2.94A.76.76,0,0,0,7.82,22.14Z"/><path class="cls-25" d="M7.84,22.21l1.33,5.23A.74.74,0,0,0,10,28l12.55-2.33a.75.75,0,0,0,0-1.47L8.72,21.3A.74.74,0,0,0,7.84,22.21Z"/><path class="cls-26" d="M7.87,22.27l1.31,5.17A.73.73,0,0,0,10,28l12.4-2.3a.74.74,0,0,0,0-1.45L8.73,21.37A.73.73,0,0,0,7.87,22.27Z"/><path class="cls-27" d="M7.89,22.33l1.29,5.11A.71.71,0,0,0,10,28l12.25-2.27a.73.73,0,0,0,0-1.43L8.74,21.44A.73.73,0,0,0,7.89,22.33Z"/><path class="cls-28" d="M7.91,22.39l1.28,5.05A.72.72,0,0,0,10,28l12.1-2.25a.72.72,0,0,0,0-1.41L8.76,21.51A.73.73,0,0,0,7.91,22.39Z"/><path class="cls-29" d="M7.93,22.46l1.26,5A.71.71,0,0,0,10,28L22,25.75a.71.71,0,0,0,0-1.4L8.77,21.59A.71.71,0,0,0,7.93,22.46Z"/><path class="cls-30" d="M8,22.52,9.2,27.44A.7.7,0,0,0,10,28L21.8,25.77a.7.7,0,0,0,0-1.38l-13-2.73A.71.71,0,0,0,8,22.52Z"/><path class="cls-31" d="M8,22.58,9.2,27.44A.69.69,0,0,0,10,28l11.64-2.16a.69.69,0,0,0,0-1.36L8.79,21.73A.69.69,0,0,0,8,22.58Z"/><path class="cls-32" d="M8,22.64l1.21,4.8A.68.68,0,0,0,10,28l11.49-2.14a.68.68,0,0,0,0-1.34L8.8,21.81A.68.68,0,0,0,8,22.64Z"/><path class="cls-33" d="M8,22.71l1.2,4.73a.67.67,0,0,0,.78.5l11.33-2.11a.67.67,0,0,0,0-1.32L8.82,21.88A.68.68,0,0,0,8,22.71Z"/><path class="cls-34" d="M8,22.77l1.18,4.67a.66.66,0,0,0,.77.49l11.19-2.07a.68.68,0,0,0,0-1.32L8.83,22A.67.67,0,0,0,8,22.77Z"/><path class="cls-35" d="M8.06,22.83l1.17,4.61a.66.66,0,0,0,.76.49l11-2.05a.66.66,0,0,0,0-1.3L8.84,22A.66.66,0,0,0,8.06,22.83Z"/><path class="cls-36" d="M8.09,22.89l1.14,4.55a.65.65,0,0,0,.76.48l10.87-2a.65.65,0,0,0,0-1.28l-12-2.52A.64.64,0,0,0,8.09,22.89Z"/><path class="cls-37" d="M8.11,23l1.13,4.47a.63.63,0,0,0,.74.48l10.73-2a.64.64,0,0,0,0-1.26L8.86,22.17A.64.64,0,0,0,8.11,23Z"/><path class="cls-38" d="M8.13,23l1.11,4.41a.65.65,0,0,0,.74.48l10.57-2a.63.63,0,0,0,0-1.24L8.87,22.25A.63.63,0,0,0,8.13,23Z"/><path class="cls-39" d="M8.15,23.08l1.1,4.35a.62.62,0,0,0,.72.47L20.39,26a.63.63,0,0,0,0-1.23L8.89,22.32A.63.63,0,0,0,8.15,23.08Z"/><path class="cls-40" d="M8.17,23.14l1.09,4.29a.61.61,0,0,0,.71.46L20.24,26a.62.62,0,0,0,0-1.21L8.9,22.39A.62.62,0,0,0,8.17,23.14Z"/><path class="cls-41" d="M8.2,23.21l1.06,4.22a.6.6,0,0,0,.71.45L20.08,26a.61.61,0,0,0,0-1.19L8.91,22.47A.6.6,0,0,0,8.2,23.21Z"/><path class="cls-42" d="M8.22,23.27l1,4.16a.6.6,0,0,0,.69.45l10-1.86a.6.6,0,0,0,0-1.17l-11-2.31A.6.6,0,0,0,8.22,23.27Z"/><path class="cls-43" d="M8.24,23.33l1,4.1a.59.59,0,0,0,.69.44L19.77,26a.59.59,0,0,0,0-1.15L8.93,22.61A.59.59,0,0,0,8.24,23.33Z"/><path class="cls-44" d="M8.26,23.39l1,4a.57.57,0,0,0,.67.43l9.66-1.8a.58.58,0,0,0,0-1.14L9,22.69A.58.58,0,0,0,8.26,23.39Z"/><path class="cls-45" d="M8.28,23.46l1,4a.57.57,0,0,0,.67.43l9.51-1.77a.58.58,0,0,0,0-1.13L9,22.76A.58.58,0,0,0,8.28,23.46Z"/><path class="cls-46" d="M8.31,23.52l1,3.91a.57.57,0,0,0,.66.42l9.35-1.74a.57.57,0,0,0,0-1.11L9,22.83A.57.57,0,0,0,8.31,23.52Z"/><path class="cls-47" d="M8.33,23.58l1,3.85a.54.54,0,0,0,.64.41l9.2-1.71a.56.56,0,0,0,0-1.09L9,22.91A.55.55,0,0,0,8.33,23.58Z"/><path class="cls-48" d="M8.35,23.64l1,3.79a.54.54,0,0,0,.64.4l9-1.68a.55.55,0,0,0,0-1.08L9,23A.54.54,0,0,0,8.35,23.64Z"/><path class="cls-49" d="M8.37,23.71l.94,3.71a.53.53,0,0,0,.62.41l8.9-1.66a.54.54,0,0,0,0-1.06L9,23.05A.55.55,0,0,0,8.37,23.71Z"/><path class="cls-50" d="M8.39,23.77l.92,3.65a.53.53,0,0,0,.62.4l8.74-1.63a.53.53,0,0,0,0-1L9,23.13A.53.53,0,0,0,8.39,23.77Z"/><path class="cls-51" d="M8.42,23.83l.9,3.59a.5.5,0,0,0,.6.39l8.6-1.6a.52.52,0,0,0,0-1L9,23.2A.52.52,0,0,0,8.42,23.83Z"/><path class="cls-52" d="M8.44,23.89l.88,3.53a.52.52,0,0,0,.6.39l8.44-1.58a.51.51,0,0,0,0-1L9,23.27A.51.51,0,0,0,8.44,23.89Z"/><path class="cls-53" d="M8.46,24l.87,3.46a.51.51,0,0,0,.59.38l8.29-1.55a.51.51,0,0,0,0-1L9.05,23.35A.5.5,0,0,0,8.46,24Z"/><path class="cls-54" d="M8.48,24l.86,3.4a.47.47,0,0,0,.57.37l8.14-1.52a.49.49,0,0,0,0-1l-9-1.88A.5.5,0,0,0,8.48,24Z"/><path class="cls-55" d="M8.5,24.08l.84,3.34a.49.49,0,0,0,.57.37l8-1.5a.48.48,0,0,0,0-.95L9.08,23.49A.49.49,0,0,0,8.5,24.08Z"/><path class="cls-56" d="M8.53,24.14l.82,3.28a.47.47,0,0,0,.55.36l7.84-1.46a.48.48,0,0,0,0-.94L9.09,23.56A.47.47,0,0,0,8.53,24.14Z"/><path class="cls-57" d="M8.55,24.21l.8,3.21a.47.47,0,0,0,.55.35l7.68-1.43a.47.47,0,0,0,0-.92L9.1,23.64A.47.47,0,0,0,8.55,24.21Z"/><path class="cls-58" d="M8.57,24.27l.79,3.15a.45.45,0,0,0,.54.34l7.52-1.4a.46.46,0,0,0,0-.91L9.11,23.71A.46.46,0,0,0,8.57,24.27Z"/><path class="cls-59" d="M8.59,24.33l.77,3.09a.46.46,0,0,0,.53.34l7.38-1.38a.46.46,0,0,0,0-.89L9.12,23.78A.46.46,0,0,0,8.59,24.33Z"/><path class="cls-60" d="M8.61,24.39l.76,3a.44.44,0,0,0,.52.33l7.22-1.35a.44.44,0,0,0,0-.87l-8-1.67A.45.45,0,0,0,8.61,24.39Z"/><path class="cls-61" d="M8.64,24.46l.74,2.95a.42.42,0,0,0,.5.33L17,26.42a.43.43,0,0,0,0-.85L9.15,23.93A.44.44,0,0,0,8.64,24.46Z"/><path class="cls-62" d="M8.66,24.52l.72,2.89a.43.43,0,0,0,.5.33l6.92-1.3a.42.42,0,0,0,0-.83L9.16,24A.43.43,0,0,0,8.66,24.52Z"/><path class="cls-63" d="M8.68,24.58l.71,2.83a.41.41,0,0,0,.49.32l6.76-1.27a.42.42,0,0,0,0-.82L9.17,24.08A.41.41,0,0,0,8.68,24.58Z"/><path class="cls-64" d="M8.7,24.64l.69,2.77a.4.4,0,0,0,.48.31l6.61-1.24a.41.41,0,0,0,0-.8L9.18,24.15A.41.41,0,0,0,8.7,24.64Z"/><path class="cls-65" d="M8.72,24.71l.68,2.7a.39.39,0,0,0,.47.3l6.46-1.21a.4.4,0,0,0,0-.78l-7.14-1.5A.41.41,0,0,0,8.72,24.71Z"/><path class="cls-66" d="M8.74,24.77l.66,2.64a.39.39,0,0,0,.46.3l6.31-1.18a.39.39,0,0,0,0-.77l-7-1.46A.4.4,0,0,0,8.74,24.77Z"/><path class="cls-67" d="M8.77,24.83l.64,2.58a.38.38,0,0,0,.45.29L16,26.55a.39.39,0,0,0,0-.76l-6.8-1.42A.38.38,0,0,0,8.77,24.83Z"/><path class="cls-68" d="M8.79,24.89l.62,2.52a.37.37,0,0,0,.44.28l6-1.12a.38.38,0,0,0,0-.74L9.23,24.44A.38.38,0,0,0,8.79,24.89Z"/><path class="cls-69" d="M8.81,25l.61,2.45a.37.37,0,0,0,.43.28l5.85-1.1a.37.37,0,0,0,0-.72L9.24,24.52A.36.36,0,0,0,8.81,25Z"/><path class="cls-70" d="M8.83,25l.6,2.39a.35.35,0,0,0,.42.27l5.7-1.07a.36.36,0,0,0,0-.7l-6.3-1.32A.36.36,0,0,0,8.83,25Z"/><path class="cls-71" d="M8.85,25.08l.58,2.33a.35.35,0,0,0,.41.26l5.55-1a.35.35,0,0,0,0-.68L9.27,24.66A.36.36,0,0,0,8.85,25.08Z"/><path class="cls-72" d="M8.88,25.14l.56,2.27a.33.33,0,0,0,.4.26l5.39-1a.34.34,0,0,0,0-.67l-6-1.24A.33.33,0,0,0,8.88,25.14Z"/><path class="cls-73" d="M8.9,25.21l.54,2.19a.33.33,0,0,0,.39.26l5.25-1a.33.33,0,0,0,0-.65L9.29,24.81A.33.33,0,0,0,8.9,25.21Z"/><path class="cls-74" d="M8.92,25.27l.53,2.13a.31.31,0,0,0,.38.25l5.09-1a.32.32,0,0,0,0-.63L9.3,24.88A.32.32,0,0,0,8.92,25.27Z"/><path class="cls-75" d="M8.94,25.33l.51,2.07a.32.32,0,0,0,.38.24l4.93-.93a.31.31,0,0,0,0-.61L9.31,25A.31.31,0,0,0,8.94,25.33Z"/><path class="cls-76" d="M9,25.39l.5,2a.31.31,0,0,0,.36.24l4.79-.91a.3.3,0,0,0,0-.59L9.33,25A.31.31,0,0,0,9,25.39Z"/><path class="cls-77" d="M9,25.45l.48,1.95a.29.29,0,0,0,.35.23l4.63-.87a.3.3,0,0,0,0-.59L9.34,25.1A.3.3,0,0,0,9,25.45Z"/><path class="cls-78" d="M9,25.52l.46,1.88a.28.28,0,0,0,.34.22l4.49-.84a.29.29,0,0,0,0-.57l-4.94-1A.28.28,0,0,0,9,25.52Z"/><path class="cls-79" d="M9,25.58l.45,1.82a.28.28,0,0,0,.33.22l4.33-.82a.28.28,0,0,0,0-.55l-4.78-1A.28.28,0,0,0,9,25.58Z"/><path class="cls-80" d="M9.05,25.64l.43,1.76a.28.28,0,0,0,.33.21L14,26.82a.27.27,0,0,0,0-.53l-4.61-1A.27.27,0,0,0,9.05,25.64Z"/><path class="cls-81" d="M9.07,25.7l.42,1.7a.25.25,0,0,0,.31.2l4-.76a.26.26,0,0,0,0-.51L9.38,25.4A.26.26,0,0,0,9.07,25.7Z"/><path class="cls-82" d="M9.1,25.77l.39,1.63a.25.25,0,0,0,.31.19l3.87-.73a.26.26,0,0,0,0-.5L9.4,25.47A.25.25,0,0,0,9.1,25.77Z"/><path class="cls-83" d="M9.12,25.83,9.5,27.4a.24.24,0,0,0,.29.19l3.72-.71a.25.25,0,0,0,0-.48l-4.1-.86A.25.25,0,0,0,9.12,25.83Z"/><path class="cls-84" d="M9.14,25.89l.37,1.51a.23.23,0,0,0,.28.18l3.57-.68a.23.23,0,0,0,0-.46l-3.93-.83A.24.24,0,0,0,9.14,25.89Z"/><path class="cls-85" d="M9.16,26l.35,1.44a.22.22,0,0,0,.27.18l3.42-.65a.22.22,0,0,0,0-.44l-3.77-.79A.22.22,0,0,0,9.16,26Z"/><path class="cls-86" d="M9.18,26l.34,1.37a.21.21,0,0,0,.26.18L13,26.94a.21.21,0,0,0,0-.42l-3.6-.76A.22.22,0,0,0,9.18,26Z"/><path class="cls-87" d="M9.21,26.08l.31,1.31a.21.21,0,0,0,.26.17l3.11-.6a.21.21,0,0,0,0-.41l-3.42-.72A.21.21,0,0,0,9.21,26.08Z"/><path class="cls-88" d="M9.23,26.14l.3,1.25a.19.19,0,0,0,.24.16l3-.56a.21.21,0,0,0,0-.4l-3.26-.68A.2.2,0,0,0,9.23,26.14Z"/><path class="cls-89" d="M9.25,26.2l.28,1.19a.21.21,0,0,0,.24.16L12.58,27a.2.2,0,0,0,0-.38L9.48,26A.19.19,0,0,0,9.25,26.2Z"/><path class="cls-90" d="M9.27,26.27l.27,1.12a.18.18,0,0,0,.22.15L12.42,27a.18.18,0,0,0,0-.36l-2.92-.62A.19.19,0,0,0,9.27,26.27Z"/><path class="cls-91" d="M9.29,26.33l.26,1.06a.16.16,0,0,0,.21.14l2.5-.48a.18.18,0,0,0,0-.35L9.5,26.13A.18.18,0,0,0,9.29,26.33Z"/><path class="cls-92" d="M9.32,26.39l.23,1a.16.16,0,0,0,.21.13l2.35-.45a.17.17,0,0,0,0-.33L9.52,26.2A.17.17,0,0,0,9.32,26.39Z"/><path class="cls-93" d="M9.34,26.45l.22.94a.16.16,0,0,0,.19.13l2.2-.43a.16.16,0,0,0,0-.31l-2.41-.51A.16.16,0,0,0,9.34,26.45Z"/><path class="cls-94" d="M9.36,26.52l.2.87a.15.15,0,0,0,.19.12l2-.4a.15.15,0,0,0,0-.29l-2.25-.47A.15.15,0,0,0,9.36,26.52Z"/><path class="cls-95" d="M9.38,26.58l.19.81a.13.13,0,0,0,.17.11l1.9-.37a.14.14,0,0,0,0-.27l-2.08-.44A.14.14,0,0,0,9.38,26.58Z"/><path class="cls-96" d="M9.4,26.64l.17.75a.13.13,0,0,0,.17.11l1.74-.35a.13.13,0,0,0,0-.26l-1.91-.4A.14.14,0,0,0,9.4,26.64Z"/><path class="cls-97" d="M9.43,26.7l.15.69a.13.13,0,0,0,.16.1l1.58-.32a.12.12,0,0,0,0-.24l-1.75-.36A.11.11,0,0,0,9.43,26.7Z"/><path class="cls-98" d="M9.45,26.77l.14.61a.11.11,0,0,0,.14.1l1.44-.29a.11.11,0,0,0,0-.22l-1.57-.33A.12.12,0,0,0,9.45,26.77Z"/><path class="cls-99" d="M9.47,26.83l.12.55a.1.1,0,0,0,.14.09L11,27.22A.11.11,0,0,0,11,27l-1.4-.3A.11.11,0,0,0,9.47,26.83Z"/><path class="cls-100" d="M9.49,26.89l.11.49a.09.09,0,0,0,.12.09l1.13-.23a.1.1,0,0,0,0-.19l-1.24-.26A.09.09,0,0,0,9.49,26.89Z"/><path class="cls-101" d="M9.51,27l.09.43a.09.09,0,0,0,.12.08l1-.2a.09.09,0,0,0,0-.18l-1.07-.22A.1.1,0,0,0,9.51,27Z"/><path class="cls-102" d="M9.54,27l.07.36a.07.07,0,0,0,.1.07l.83-.17a.08.08,0,0,0,0-.16l-.9-.19A.08.08,0,0,0,9.54,27Z"/><path class="cls-103" d="M9.56,27.08l0,.3a.08.08,0,0,0,.1.07l.68-.15a.07.07,0,0,0,0-.14L9.65,27A.07.07,0,0,0,9.56,27.08Z"/><path class="cls-104" d="M9.58,27.14l0,.24a.06.06,0,0,0,.09.06l.52-.12a.06.06,0,0,0,0-.12l-.56-.12A.06.06,0,0,0,9.58,27.14Z"/><path class="cls-105" d="M9.6,27.2l0,.18a0,0,0,0,0,.07.05l.37-.09a.05.05,0,0,0,0-.1l-.39-.09A.06.06,0,0,0,9.6,27.2Z"/><path class="cls-106" d="M9.62,27.27v.11a.05.05,0,0,0,.07.05l.22-.07a0,0,0,0,0,0-.09l-.23,0S9.63,27.24,9.62,27.27Z"/><path class="cls-107" d="M9.65,27.33v.05s0,.05,0,0l.07,0a0,0,0,0,0,0-.07H9.69S9.65,27.31,9.65,27.33Z"/></g><circle class="cls-112" cx="9.5" cy="9.5" r="7.09" transform="translate(-1.69 16.92) rotate(-78.58)"/><path class="cls-109" d="M16.7,9.72a7.1,7.1,0,0,0-7.09-7.1V16.81A7.1,7.1,0,0,0,16.7,9.72Z"/><path class="cls-109" d="M2.51,9.72a7.1,7.1,0,0,0,7.1,7.09V2.62A7.1,7.1,0,0,0,2.51,9.72Z"/><path class="cls-113" d="M9.61.22v2.4a7.1,7.1,0,0,1,0,14.19V27.73S15.49,19,18,14.08a9.61,9.61,0,0,0,1-3,9.32,9.32,0,0,0,.1-1.4A9.49,9.49,0,0,0,9.61.22Z"/><path class="cls-114" d="M2.51,9.72a7.1,7.1,0,0,1,7.1-7.1V.22a9.5,9.5,0,0,0-9.5,9.5,10.85,10.85,0,0,0,.1,1.4A9.61,9.61,0,0,0,1.15,14C3.69,19,9.61,27.73,9.61,27.73V16.81A7.1,7.1,0,0,1,2.51,9.72Z"/><path class="cls-109" d="M16.59,9.5A7.1,7.1,0,0,0,9.5,2.4V16.59A7.1,7.1,0,0,0,16.59,9.5Z"/><path class="cls-109" d="M2.4,9.5a7.1,7.1,0,0,0,7.1,7.09V2.4A7.1,7.1,0,0,0,2.4,9.5Z"/><path class="cls-114" d="M9.5,0V2.4a7.1,7.1,0,0,1,0,14.19V27.51s5.88-8.71,8.43-13.65a9.61,9.61,0,0,0,1-3A9.32,9.32,0,0,0,19,9.5,9.49,9.49,0,0,0,9.5,0Z"/><path class="cls-113" d="M2.4,9.5A7.1,7.1,0,0,1,9.5,2.4V0A9.5,9.5,0,0,0,0,9.5a9.32,9.32,0,0,0,.1,1.4A9.61,9.61,0,0,0,1,13.82C3.58,18.74,9.5,27.51,9.5,27.51V16.59A7.1,7.1,0,0,1,2.4,9.5Z"/></symbol><symbol id="Pin-Point_3" data-name="Pin-Point 3" viewBox="0 0 26.89 28.25"><g class="cls-1"><path class="cls-2" d="M7.27,20.85,9,27.54a1,1,0,0,0,1.09.7l16-3a.94.94,0,0,0,0-1.85L8.38,19.69A1,1,0,0,0,7.27,20.85Z"/><path class="cls-3" d="M7.29,20.91,9,27.54a.93.93,0,0,0,1.08.69L26,25.29a.94.94,0,0,0,0-1.84L8.39,19.76A.94.94,0,0,0,7.29,20.91Z"/><path class="cls-4" d="M7.32,21,9,27.54a.93.93,0,0,0,1.07.68L25.8,25.31a.93.93,0,0,0,0-1.82L8.4,19.84A.92.92,0,0,0,7.32,21Z"/><path class="cls-5" d="M7.34,21,9,27.54a.92.92,0,0,0,1.06.68l15.6-2.89a.92.92,0,0,0,0-1.81L8.42,19.91A.92.92,0,0,0,7.34,21Z"/><path class="cls-6" d="M7.36,21.1,9,27.54a.92.92,0,0,0,1,.67l15.45-2.86a.91.91,0,0,0,0-1.79L8.43,20A.92.92,0,0,0,7.36,21.1Z"/><path class="cls-7" d="M7.38,21.16,9,27.54a.9.9,0,0,0,1,.66l15.29-2.83a.9.9,0,0,0,0-1.77L8.44,20.06A.9.9,0,0,0,7.38,21.16Z"/><path class="cls-8" d="M7.4,21.22,9,27.54a.9.9,0,0,0,1,.66l15.14-2.81a.89.89,0,0,0,0-1.75L8.45,20.13A.89.89,0,0,0,7.4,21.22Z"/><path class="cls-9" d="M7.43,21.29,9,27.54a.89.89,0,0,0,1,.65l15-2.78a.88.88,0,0,0,0-1.73L8.46,20.2A.88.88,0,0,0,7.43,21.29Z"/><path class="cls-10" d="M7.45,21.35,9,27.54a.87.87,0,0,0,1,.64l14.83-2.75a.88.88,0,0,0,0-1.72L8.48,20.28A.87.87,0,0,0,7.45,21.35Z"/><path class="cls-11" d="M7.47,21.41,9,27.53a.86.86,0,0,0,1,.64l14.69-2.72a.87.87,0,0,0,0-1.7L8.49,20.35A.87.87,0,0,0,7.47,21.41Z"/><path class="cls-12" d="M7.49,21.47,9,27.53a.86.86,0,0,0,1,.64l14.53-2.7a.86.86,0,0,0,0-1.68L8.5,20.42A.86.86,0,0,0,7.49,21.47Z"/><path class="cls-13" d="M7.51,21.54l1.52,6a.85.85,0,0,0,1,.63l14.38-2.67a.85.85,0,0,0,0-1.66L8.51,20.5A.85.85,0,0,0,7.51,21.54Z"/><path class="cls-14" d="M7.54,21.6,9,27.53a.83.83,0,0,0,1,.62l14.23-2.63a.85.85,0,0,0,0-1.66L8.52,20.57A.83.83,0,0,0,7.54,21.6Z"/><path class="cls-15" d="M7.56,21.66l1.49,5.87a.83.83,0,0,0,1,.62l14.07-2.61a.84.84,0,0,0,0-1.64L8.54,20.64A.83.83,0,0,0,7.56,21.66Z"/><path class="cls-16" d="M7.58,21.72l1.47,5.81a.83.83,0,0,0,.95.61l13.93-2.58a.83.83,0,0,0,0-1.62L8.55,20.72A.82.82,0,0,0,7.58,21.72Z"/><path class="cls-17" d="M7.6,21.79l1.46,5.74a.8.8,0,0,0,.94.6l13.77-2.55a.82.82,0,0,0,0-1.6L8.56,20.79A.81.81,0,0,0,7.6,21.79Z"/><path class="cls-18" d="M7.62,21.85l1.44,5.68a.82.82,0,0,0,.93.6L23.61,25.6a.81.81,0,0,0,0-1.58L8.57,20.86A.81.81,0,0,0,7.62,21.85Z"/><path class="cls-19" d="M7.65,21.91l1.42,5.62a.8.8,0,0,0,.92.59l13.47-2.5a.8.8,0,0,0,0-1.57L8.58,20.93A.8.8,0,0,0,7.65,21.91Z"/><path class="cls-20" d="M7.67,22l1.4,5.56a.8.8,0,0,0,.92.58L23.3,25.64a.79.79,0,0,0,0-1.55L8.59,21A.78.78,0,0,0,7.67,22Z"/><path class="cls-21" d="M7.69,22l1.39,5.49a.77.77,0,0,0,.9.57l13.16-2.44a.78.78,0,0,0,0-1.53L8.61,21.08A.78.78,0,0,0,7.69,22Z"/><path class="cls-22" d="M7.71,22.1l1.38,5.43a.78.78,0,0,0,.89.57l13-2.42a.77.77,0,0,0,0-1.51l-14.38-3A.78.78,0,0,0,7.71,22.1Z"/><path class="cls-23" d="M7.73,22.16l1.36,5.36a.76.76,0,0,0,.88.57L22.83,25.7a.76.76,0,0,0,0-1.49l-14.22-3A.76.76,0,0,0,7.73,22.16Z"/><path class="cls-24" d="M7.75,22.22l1.35,5.3a.74.74,0,0,0,.87.56l12.7-2.36a.75.75,0,0,0,0-1.48l-14-2.94A.76.76,0,0,0,7.75,22.22Z"/><path class="cls-25" d="M7.78,22.29,9.1,27.52a.76.76,0,0,0,.87.56l12.55-2.33a.75.75,0,0,0,0-1.47L8.65,21.37A.74.74,0,0,0,7.78,22.29Z"/><path class="cls-26" d="M7.8,22.35l1.31,5.17a.74.74,0,0,0,.85.55l12.4-2.3a.74.74,0,0,0,0-1.45L8.67,21.45A.74.74,0,0,0,7.8,22.35Z"/><path class="cls-27" d="M7.82,22.41l1.29,5.11a.74.74,0,0,0,.85.54L22.2,25.79a.73.73,0,0,0,0-1.43L8.68,21.52A.73.73,0,0,0,7.82,22.41Z"/><path class="cls-28" d="M7.84,22.47l1.28,5.05a.71.71,0,0,0,.83.53l12.1-2.24a.72.72,0,0,0,0-1.41L8.69,21.59A.72.72,0,0,0,7.84,22.47Z"/><path class="cls-29" d="M7.86,22.54l1.27,5a.71.71,0,0,0,.82.53l11.94-2.22a.71.71,0,0,0,0-1.4L8.7,21.67A.72.72,0,0,0,7.86,22.54Z"/><path class="cls-30" d="M7.89,22.6l1.24,4.92a.7.7,0,0,0,.81.52l11.8-2.19a.7.7,0,0,0,0-1.38l-13-2.73A.7.7,0,0,0,7.89,22.6Z"/><path class="cls-31" d="M7.91,22.66l1.23,4.86a.68.68,0,0,0,.8.51l11.64-2.16a.69.69,0,0,0,0-1.36L8.73,21.81A.7.7,0,0,0,7.91,22.66Z"/><path class="cls-32" d="M7.93,22.72l1.21,4.8a.69.69,0,0,0,.8.51l11.48-2.14a.68.68,0,0,0,0-1.34L8.74,21.89A.68.68,0,0,0,7.93,22.72Z"/><path class="cls-33" d="M8,22.78l1.2,4.74a.67.67,0,0,0,.78.5l11.34-2.11a.68.68,0,0,0,0-1.33L8.75,22A.68.68,0,0,0,8,22.78Z"/><path class="cls-34" d="M8,22.85l1.18,4.67a.67.67,0,0,0,.78.49l11.18-2.08a.67.67,0,0,0,0-1.31L8.76,22A.68.68,0,0,0,8,22.85Z"/><path class="cls-35" d="M8,22.91l1.16,4.6a.66.66,0,0,0,.76.5L21,26a.66.66,0,0,0,0-1.3L8.77,22.11A.65.65,0,0,0,8,22.91Z"/><path class="cls-36" d="M8,23l1.15,4.54a.65.65,0,0,0,.75.49L20.8,26a.65.65,0,0,0,0-1.28l-12-2.52A.64.64,0,0,0,8,23Z"/><path class="cls-37" d="M8,23l1.13,4.48a.64.64,0,0,0,.75.48l10.72-2a.64.64,0,0,0,0-1.26L8.8,22.25A.65.65,0,0,0,8,23Z"/><path class="cls-38" d="M8.06,23.1l1.12,4.41a.62.62,0,0,0,.73.47l10.57-2a.64.64,0,0,0,0-1.25L8.81,22.33A.63.63,0,0,0,8.06,23.1Z"/><path class="cls-39" d="M8.08,23.16l1.1,4.35a.63.63,0,0,0,.73.47L20.33,26a.63.63,0,0,0,0-1.23L8.82,22.4A.63.63,0,0,0,8.08,23.16Z"/><path class="cls-40" d="M8.11,23.22l1.08,4.29A.61.61,0,0,0,9.9,28l10.27-1.91a.62.62,0,0,0,0-1.21L8.83,22.47A.61.61,0,0,0,8.11,23.22Z"/><path class="cls-41" d="M8.13,23.28l1.06,4.23A.61.61,0,0,0,9.9,28L20,26.08a.61.61,0,0,0,0-1.19L8.84,22.55A.6.6,0,0,0,8.13,23.28Z"/><path class="cls-42" d="M8.15,23.35l1,4.16a.6.6,0,0,0,.7.45l10-1.86a.6.6,0,0,0,0-1.17l-11-2.31A.6.6,0,0,0,8.15,23.35Z"/><path class="cls-43" d="M8.17,23.41l1,4.1a.59.59,0,0,0,.68.44l9.81-1.83a.59.59,0,0,0,0-1.16L8.87,22.69A.59.59,0,0,0,8.17,23.41Z"/><path class="cls-44" d="M8.19,23.47l1,4a.58.58,0,0,0,.68.43l9.66-1.8a.58.58,0,0,0,0-1.14L8.88,22.77A.58.58,0,0,0,8.19,23.47Z"/><path class="cls-45" d="M8.22,23.53l1,4a.57.57,0,0,0,.66.42l9.51-1.77a.57.57,0,0,0,0-1.12L8.89,22.84A.57.57,0,0,0,8.22,23.53Z"/><path class="cls-46" d="M8.24,23.6l1,3.91a.57.57,0,0,0,.66.42l9.35-1.74a.57.57,0,0,0,0-1.11L8.9,22.91A.57.57,0,0,0,8.24,23.6Z"/><path class="cls-47" d="M8.26,23.66l1,3.84a.55.55,0,0,0,.64.42l9.21-1.71a.56.56,0,0,0,0-1.09L8.91,23A.56.56,0,0,0,8.26,23.66Z"/><path class="cls-48" d="M8.28,23.72l1,3.78a.54.54,0,0,0,.64.41l9.05-1.68a.55.55,0,0,0,0-1.08l-10-2.09A.55.55,0,0,0,8.28,23.72Z"/><path class="cls-49" d="M8.3,23.78l.94,3.72a.55.55,0,0,0,.63.41l8.89-1.66a.54.54,0,0,0,0-1.06L8.94,23.13A.54.54,0,0,0,8.3,23.78Z"/><path class="cls-50" d="M8.33,23.85l.92,3.65a.51.51,0,0,0,.61.4l8.75-1.63a.53.53,0,0,0,0-1L9,23.2A.53.53,0,0,0,8.33,23.85Z"/><path class="cls-51" d="M8.35,23.91l.9,3.59a.51.51,0,0,0,.61.39l8.59-1.6a.52.52,0,0,0,0-1l-9.5-2A.52.52,0,0,0,8.35,23.91Z"/><path class="cls-52" d="M8.37,24l.89,3.53a.51.51,0,0,0,.59.39l8.45-1.58a.52.52,0,0,0,0-1L9,23.35A.51.51,0,0,0,8.37,24Z"/><path class="cls-53" d="M8.39,24l.87,3.47a.51.51,0,0,0,.59.38l8.29-1.55a.51.51,0,0,0,0-1L9,23.42A.51.51,0,0,0,8.39,24Z"/><path class="cls-54" d="M8.41,24.1l.86,3.4a.49.49,0,0,0,.58.37L18,26.35a.49.49,0,0,0,0-1L9,23.5A.5.5,0,0,0,8.41,24.1Z"/><path class="cls-55" d="M8.44,24.16l.83,3.34a.48.48,0,0,0,.57.36l8-1.49a.48.48,0,0,0,0-.95L9,23.57A.48.48,0,0,0,8.44,24.16Z"/><path class="cls-56" d="M8.46,24.22l.82,3.28a.48.48,0,0,0,.56.36l7.83-1.47a.47.47,0,0,0,0-.93L9,23.64A.48.48,0,0,0,8.46,24.22Z"/><path class="cls-57" d="M8.48,24.28l.81,3.22a.46.46,0,0,0,.54.35l7.68-1.43a.48.48,0,0,0,0-.93L9,23.72A.47.47,0,0,0,8.48,24.28Z"/><path class="cls-58" d="M8.5,24.35l.79,3.15a.46.46,0,0,0,.54.34l7.53-1.4a.47.47,0,0,0,0-.91L9.05,23.79A.46.46,0,0,0,8.5,24.35Z"/><path class="cls-59" d="M8.52,24.41l.78,3.08a.45.45,0,0,0,.53.35l7.37-1.38a.45.45,0,0,0,0-.89L9.06,23.86A.46.46,0,0,0,8.52,24.41Z"/><path class="cls-60" d="M8.55,24.47l.75,3a.44.44,0,0,0,.52.34L17,26.48a.44.44,0,0,0,0-.87l-8-1.67A.44.44,0,0,0,8.55,24.47Z"/><path class="cls-61" d="M8.57,24.53l.74,3a.43.43,0,0,0,.51.33l7.07-1.32a.43.43,0,0,0,0-.85L9.08,24A.43.43,0,0,0,8.57,24.53Z"/><path class="cls-62" d="M8.59,24.6l.72,2.89a.42.42,0,0,0,.5.32l6.92-1.29a.43.43,0,0,0,0-.84l-7.64-1.6A.43.43,0,0,0,8.59,24.6Z"/><path class="cls-63" d="M8.61,24.66l.71,2.83a.43.43,0,0,0,.49.32l6.76-1.27a.42.42,0,0,0,0-.82L9.1,24.16A.41.41,0,0,0,8.61,24.66Z"/><path class="cls-64" d="M8.63,24.72l.7,2.77a.39.39,0,0,0,.47.31l6.62-1.24a.41.41,0,0,0,0-.8l-7.3-1.53A.41.41,0,0,0,8.63,24.72Z"/><path class="cls-65" d="M8.66,24.78l.67,2.71a.4.4,0,0,0,.47.3l6.46-1.21a.4.4,0,0,0,0-.78L9.13,24.3A.4.4,0,0,0,8.66,24.78Z"/><path class="cls-66" d="M8.68,24.85l.66,2.64a.39.39,0,0,0,.46.3l6.31-1.19a.39.39,0,0,0,0-.76l-7-1.46A.39.39,0,0,0,8.68,24.85Z"/><path class="cls-67" d="M8.7,24.91l.64,2.58a.39.39,0,0,0,.45.29L16,26.62a.38.38,0,0,0,0-.75l-6.8-1.42A.38.38,0,0,0,8.7,24.91Z"/><path class="cls-68" d="M8.72,25l.63,2.52a.36.36,0,0,0,.44.28l6-1.12a.38.38,0,0,0,0-.74L9.16,24.52A.38.38,0,0,0,8.72,25Z"/><path class="cls-69" d="M8.74,25l.61,2.46a.37.37,0,0,0,.43.28l5.86-1.1a.37.37,0,0,0,0-.72L9.18,24.6A.36.36,0,0,0,8.74,25Z"/><path class="cls-70" d="M8.77,25.1l.59,2.39a.35.35,0,0,0,.42.27l5.7-1.07a.36.36,0,0,0,0-.7L9.19,24.67A.35.35,0,0,0,8.77,25.1Z"/><path class="cls-71" d="M8.79,25.16l.58,2.33a.34.34,0,0,0,.41.26l5.54-1a.35.35,0,0,0,0-.68L9.2,24.74A.35.35,0,0,0,8.79,25.16Z"/><path class="cls-72" d="M8.81,25.22l.56,2.26a.33.33,0,0,0,.4.26l5.4-1a.34.34,0,0,0,0-.67l-6-1.25A.34.34,0,0,0,8.81,25.22Z"/><path class="cls-73" d="M8.83,25.28l.55,2.2a.32.32,0,0,0,.39.26l5.24-1a.33.33,0,0,0,0-.65L9.22,24.89A.33.33,0,0,0,8.83,25.28Z"/><path class="cls-74" d="M8.85,25.35l.53,2.13a.32.32,0,0,0,.38.25l5.09-1a.32.32,0,0,0,0-.63L9.24,25A.33.33,0,0,0,8.85,25.35Z"/><path class="cls-75" d="M8.88,25.41l.51,2.07a.3.3,0,0,0,.37.24l4.94-.93a.31.31,0,0,0,0-.61L9.25,25A.32.32,0,0,0,8.88,25.41Z"/><path class="cls-76" d="M8.9,25.47l.49,2a.32.32,0,0,0,.37.24l4.78-.91a.31.31,0,0,0,0-.6l-5.28-1.1A.3.3,0,0,0,8.9,25.47Z"/><path class="cls-77" d="M8.92,25.53l.48,1.95a.29.29,0,0,0,.35.23l4.64-.88a.3.3,0,0,0,0-.58L9.27,25.18A.29.29,0,0,0,8.92,25.53Z"/><path class="cls-78" d="M8.94,25.6l.47,1.88a.27.27,0,0,0,.34.22l4.48-.85a.29.29,0,0,0,0-.56l-5-1A.29.29,0,0,0,8.94,25.6Z"/><path class="cls-79" d="M9,25.66l.45,1.82a.27.27,0,0,0,.33.21l4.33-.81a.28.28,0,0,0,0-.55l-4.78-1A.28.28,0,0,0,9,25.66Z"/><path class="cls-80" d="M9,25.72l.43,1.76a.26.26,0,0,0,.32.21l4.18-.79a.27.27,0,0,0,0-.53l-4.6-1A.26.26,0,0,0,9,25.72Z"/><path class="cls-81" d="M9,25.78l.41,1.7a.26.26,0,0,0,.31.2l4-.76a.27.27,0,0,0,0-.52l-4.44-.93A.26.26,0,0,0,9,25.78Z"/><path class="cls-82" d="M9,25.85l.4,1.63a.23.23,0,0,0,.3.19l3.87-.73a.26.26,0,0,0,0-.5l-4.27-.89A.25.25,0,0,0,9,25.85Z"/><path class="cls-83" d="M9.05,25.91l.38,1.57a.25.25,0,0,0,.3.19L13.45,27a.25.25,0,0,0,0-.48l-4.1-.86A.25.25,0,0,0,9.05,25.91Z"/><path class="cls-84" d="M9.07,26l.37,1.5a.23.23,0,0,0,.28.19L13.29,27a.23.23,0,0,0,0-.46l-3.94-.83A.24.24,0,0,0,9.07,26Z"/><path class="cls-85" d="M9.1,26l.35,1.44a.22.22,0,0,0,.27.18L13.13,27a.22.22,0,0,0,0-.44l-3.76-.79A.22.22,0,0,0,9.1,26Z"/><path class="cls-86" d="M9.12,26.1l.33,1.37a.22.22,0,0,0,.26.18L13,27a.22.22,0,0,0,0-.43l-3.59-.75A.22.22,0,0,0,9.12,26.1Z"/><path class="cls-87" d="M9.14,26.16l.32,1.31a.2.2,0,0,0,.25.17l3.11-.6a.21.21,0,0,0,0-.41l-3.43-.72A.21.21,0,0,0,9.14,26.16Z"/><path class="cls-88" d="M9.16,26.22l.3,1.25a.2.2,0,0,0,.25.16l3-.57a.2.2,0,0,0,0-.39L9.4,26A.2.2,0,0,0,9.16,26.22Z"/><path class="cls-89" d="M9.18,26.28l.29,1.19a.18.18,0,0,0,.23.15l2.81-.53a.19.19,0,0,0,0-.38l-3.09-.65A.2.2,0,0,0,9.18,26.28Z"/><path class="cls-90" d="M9.21,26.35l.26,1.12a.2.2,0,0,0,.23.15l2.65-.51a.18.18,0,0,0,0-.36l-2.93-.62A.19.19,0,0,0,9.21,26.35Z"/><path class="cls-91" d="M9.23,26.41l.25,1.06a.16.16,0,0,0,.21.14l2.51-.48a.18.18,0,0,0,0-.35l-2.75-.57A.17.17,0,0,0,9.23,26.41Z"/><path class="cls-92" d="M9.25,26.47l.24,1a.15.15,0,0,0,.2.13L12,27.15a.17.17,0,0,0,0-.33l-2.58-.54A.17.17,0,0,0,9.25,26.47Z"/><path class="cls-93" d="M9.27,26.53l.22.94a.16.16,0,0,0,.2.13l2.19-.43a.16.16,0,0,0,0-.31l-2.42-.51A.16.16,0,0,0,9.27,26.53Z"/><path class="cls-94" d="M9.29,26.6l.21.87a.15.15,0,0,0,.18.12l2.05-.4a.15.15,0,0,0,0-.29l-2.25-.47A.15.15,0,0,0,9.29,26.6Z"/><path class="cls-95" d="M9.32,26.66l.18.81a.14.14,0,0,0,.18.11l1.89-.37a.14.14,0,0,0,0-.28L9.48,26.5A.14.14,0,0,0,9.32,26.66Z"/><path class="cls-96" d="M9.34,26.72l.17.74a.12.12,0,0,0,.16.11l1.74-.34a.13.13,0,0,0,0-.26l-1.91-.4A.13.13,0,0,0,9.34,26.72Z"/><path class="cls-97" d="M9.36,26.78l.15.68a.13.13,0,0,0,.16.11l1.59-.32a.12.12,0,0,0,0-.24l-1.74-.36A.12.12,0,0,0,9.36,26.78Z"/><path class="cls-98" d="M9.38,26.85l.14.61a.11.11,0,0,0,.14.1l1.44-.29a.11.11,0,0,0,0-.22l-1.57-.33A.12.12,0,0,0,9.38,26.85Z"/><path class="cls-99" d="M9.4,26.91l.13.55a.1.1,0,0,0,.13.09l1.28-.26a.1.1,0,0,0,0-.2l-1.41-.3A.11.11,0,0,0,9.4,26.91Z"/><path class="cls-100" d="M9.43,27l.1.49a.1.1,0,0,0,.13.09l1.13-.23a.1.1,0,0,0,0-.2l-1.24-.26A.1.1,0,0,0,9.43,27Z"/><path class="cls-101" d="M9.45,27l.09.43a.08.08,0,0,0,.11.08l1-.2a.09.09,0,0,0,0-.18l-1.06-.22A.09.09,0,0,0,9.45,27Z"/><path class="cls-102" d="M9.47,27.1l.07.36a.08.08,0,0,0,.11.07l.83-.17a.09.09,0,0,0,0-.16L9.57,27A.08.08,0,0,0,9.47,27.1Z"/><path class="cls-103" d="M9.49,27.16l.06.3a.07.07,0,0,0,.09.07l.68-.15a.07.07,0,0,0,0-.14l-.73-.16A.08.08,0,0,0,9.49,27.16Z"/><path class="cls-104" d="M9.51,27.22l0,.24a.07.07,0,0,0,.09.06l.52-.12a.06.06,0,0,0,0-.12l-.56-.12A.06.06,0,0,0,9.51,27.22Z"/><path class="cls-105" d="M9.54,27.28l0,.18a.05.05,0,0,0,.08.05l.37-.09a.06.06,0,0,0,0-.11l-.4-.08A.05.05,0,0,0,9.54,27.28Z"/><path class="cls-106" d="M9.56,27.35v.11a0,0,0,0,0,.06,0l.22-.06a0,0,0,0,0,0-.09l-.23-.05A.05.05,0,0,0,9.56,27.35Z"/><path class="cls-107" d="M9.58,27.41v.05a0,0,0,0,0,.06,0l.06,0s0-.06,0-.07h0A0,0,0,0,0,9.58,27.41Z"/></g><path class="cls-115" d="M9.5,16.59A7.1,7.1,0,1,1,16.59,9.5,7.1,7.1,0,0,1,9.5,16.59Z"/><path class="cls-109" d="M16.7,9.72a7.1,7.1,0,0,0-7.09-7.1V16.81A7.1,7.1,0,0,0,16.7,9.72Z"/><path class="cls-109" d="M2.51,9.72a7.1,7.1,0,0,0,7.1,7.09V2.62A7.1,7.1,0,0,0,2.51,9.72Z"/><path class="cls-116" d="M9.61.22v2.4a7.1,7.1,0,0,1,0,14.19V27.73S15.49,19,18,14.08a9.61,9.61,0,0,0,1-3,9.32,9.32,0,0,0,.1-1.4A9.49,9.49,0,0,0,9.61.22Z"/><path class="cls-117" d="M2.51,9.72a7.1,7.1,0,0,1,7.1-7.1V.22a9.5,9.5,0,0,0-9.5,9.5,10.85,10.85,0,0,0,.1,1.4A9.61,9.61,0,0,0,1.15,14C3.69,19,9.61,27.73,9.61,27.73V16.81A7.1,7.1,0,0,1,2.51,9.72Z"/><path class="cls-109" d="M16.59,9.5A7.1,7.1,0,0,0,9.5,2.4V16.59A7.1,7.1,0,0,0,16.59,9.5Z"/><path class="cls-109" d="M2.4,9.5a7.1,7.1,0,0,0,7.1,7.09V2.4A7.1,7.1,0,0,0,2.4,9.5Z"/><path class="cls-117" d="M9.5,0V2.4a7.1,7.1,0,0,1,0,14.19V27.51s5.88-8.71,8.43-13.65a9.61,9.61,0,0,0,1-3A9.32,9.32,0,0,0,19,9.5,9.49,9.49,0,0,0,9.5,0Z"/><path class="cls-116" d="M2.4,9.5A7.1,7.1,0,0,1,9.5,2.4V0A9.5,9.5,0,0,0,0,9.5a9.32,9.32,0,0,0,.1,1.4A9.61,9.61,0,0,0,1,13.82C3.58,18.74,9.5,27.51,9.5,27.51V16.59A7.1,7.1,0,0,1,2.4,9.5Z"/></symbol><symbol id="Pin-Point" data-name="Pin-Point" viewBox="0 0 26.89 28.18"><g class="cls-1"><path class="cls-2" d="M7.27,20.77,9,27.46a.94.94,0,0,0,1.09.7l16-3a1,1,0,0,0,0-1.86L8.38,19.61A1,1,0,0,0,7.27,20.77Z"/><path class="cls-3" d="M7.29,20.83,9,27.46a.93.93,0,0,0,1.08.69L26,25.21a.94.94,0,0,0,0-1.84L8.39,19.68A.94.94,0,0,0,7.29,20.83Z"/><path class="cls-4" d="M7.32,20.89,9,27.46a.94.94,0,0,0,1.07.69L25.8,25.23a.93.93,0,0,0,0-1.82L8.4,19.76A.92.92,0,0,0,7.32,20.89Z"/><path class="cls-5" d="M7.34,21,9,27.46a.92.92,0,0,0,1.06.68l15.6-2.89a.92.92,0,0,0,0-1.81L8.42,19.83A.92.92,0,0,0,7.34,21Z"/><path class="cls-6" d="M7.36,21,9,27.46a.91.91,0,0,0,1,.67l15.45-2.86a.91.91,0,0,0,0-1.79L8.43,19.9A.92.92,0,0,0,7.36,21Z"/><path class="cls-7" d="M7.38,21.08,9,27.46a.9.9,0,0,0,1,.66l15.29-2.83a.9.9,0,0,0,0-1.77L8.44,20A.9.9,0,0,0,7.38,21.08Z"/><path class="cls-8" d="M7.4,21.14,9,27.46a.9.9,0,0,0,1,.66l15.14-2.81a.89.89,0,0,0,0-1.75L8.45,20.05A.9.9,0,0,0,7.4,21.14Z"/><path class="cls-9" d="M7.43,21.21,9,27.46a.88.88,0,0,0,1,.65l15-2.78a.88.88,0,0,0,0-1.73L8.46,20.12A.88.88,0,0,0,7.43,21.21Z"/><path class="cls-10" d="M7.45,21.27,9,27.46a.87.87,0,0,0,1,.64l14.83-2.75a.88.88,0,0,0,0-1.72L8.48,20.2A.87.87,0,0,0,7.45,21.27Z"/><path class="cls-11" d="M7.47,21.33,9,27.46a.87.87,0,0,0,1,.64l14.69-2.73a.87.87,0,0,0,0-1.7L8.49,20.27A.87.87,0,0,0,7.47,21.33Z"/><path class="cls-12" d="M7.49,21.39,9,27.45a.86.86,0,0,0,1,.64L24.55,25.4a.86.86,0,0,0,0-1.69L8.5,20.34A.86.86,0,0,0,7.49,21.39Z"/><path class="cls-13" d="M7.51,21.46l1.52,6a.85.85,0,0,0,1,.63l14.38-2.66a.85.85,0,0,0,0-1.67L8.51,20.42A.85.85,0,0,0,7.51,21.46Z"/><path class="cls-14" d="M7.54,21.52,9,27.45a.83.83,0,0,0,1,.62l14.23-2.63a.84.84,0,0,0,0-1.65L8.52,20.49A.83.83,0,0,0,7.54,21.52Z"/><path class="cls-15" d="M7.56,21.58l1.49,5.87a.83.83,0,0,0,1,.62l14.07-2.61a.84.84,0,0,0,0-1.64L8.54,20.56A.84.84,0,0,0,7.56,21.58Z"/><path class="cls-16" d="M7.58,21.64l1.47,5.81a.83.83,0,0,0,.95.61l13.93-2.58a.83.83,0,0,0,0-1.62L8.55,20.64A.82.82,0,0,0,7.58,21.64Z"/><path class="cls-17" d="M7.6,21.71l1.46,5.74a.8.8,0,0,0,.94.6L23.77,25.5a.82.82,0,0,0,0-1.6L8.56,20.71A.82.82,0,0,0,7.6,21.71Z"/><path class="cls-18" d="M7.62,21.77l1.44,5.68a.81.81,0,0,0,.93.6l13.62-2.53a.81.81,0,0,0,0-1.58L8.57,20.78A.81.81,0,0,0,7.62,21.77Z"/><path class="cls-19" d="M7.65,21.83l1.42,5.62A.8.8,0,0,0,10,28l13.47-2.5a.8.8,0,0,0,0-1.56L8.58,20.86A.79.79,0,0,0,7.65,21.83Z"/><path class="cls-20" d="M7.67,21.89l1.4,5.56A.8.8,0,0,0,10,28L23.3,25.56a.79.79,0,0,0,0-1.55L8.59,20.93A.78.78,0,0,0,7.67,21.89Z"/><path class="cls-21" d="M7.69,22l1.39,5.49A.79.79,0,0,0,10,28l13.16-2.45a.78.78,0,0,0,0-1.53L8.61,21A.78.78,0,0,0,7.69,22Z"/><path class="cls-22" d="M7.71,22l1.38,5.43A.78.78,0,0,0,10,28L23,25.6a.77.77,0,0,0,0-1.51l-14.38-3A.77.77,0,0,0,7.71,22Z"/><path class="cls-23" d="M7.73,22.08l1.36,5.37A.76.76,0,0,0,10,28l12.86-2.38a.77.77,0,0,0,0-1.5l-14.22-3A.77.77,0,0,0,7.73,22.08Z"/><path class="cls-24" d="M7.75,22.14l1.35,5.3A.74.74,0,0,0,10,28l12.7-2.35a.76.76,0,0,0,0-1.49l-14-2.94A.76.76,0,0,0,7.75,22.14Z"/><path class="cls-25" d="M7.78,22.21,9.1,27.44A.76.76,0,0,0,10,28l12.55-2.33a.75.75,0,0,0,0-1.47L8.65,21.3A.74.74,0,0,0,7.78,22.21Z"/><path class="cls-26" d="M7.8,22.27l1.31,5.17A.74.74,0,0,0,10,28l12.4-2.3a.74.74,0,0,0,0-1.45L8.67,21.37A.74.74,0,0,0,7.8,22.27Z"/><path class="cls-27" d="M7.82,22.33l1.29,5.11A.73.73,0,0,0,10,28L22.2,25.71a.73.73,0,0,0,0-1.43L8.68,21.44A.73.73,0,0,0,7.82,22.33Z"/><path class="cls-28" d="M7.84,22.39l1.28,5.05A.72.72,0,0,0,10,28l12.1-2.25a.72.72,0,0,0,0-1.41L8.69,21.51A.73.73,0,0,0,7.84,22.39Z"/><path class="cls-29" d="M7.86,22.46l1.27,5A.71.71,0,0,0,10,28l11.94-2.22a.71.71,0,0,0,0-1.4L8.7,21.59A.72.72,0,0,0,7.86,22.46Z"/><path class="cls-30" d="M7.89,22.52l1.24,4.92a.7.7,0,0,0,.81.52l11.8-2.19a.7.7,0,0,0,0-1.38l-13-2.73A.7.7,0,0,0,7.89,22.52Z"/><path class="cls-31" d="M7.91,22.58l1.23,4.86a.68.68,0,0,0,.8.51l11.64-2.16a.69.69,0,0,0,0-1.36L8.73,21.73A.7.7,0,0,0,7.91,22.58Z"/><path class="cls-32" d="M7.93,22.64l1.21,4.8a.69.69,0,0,0,.8.51l11.48-2.14a.68.68,0,0,0,0-1.34L8.74,21.81A.68.68,0,0,0,7.93,22.64Z"/><path class="cls-33" d="M8,22.71l1.2,4.73a.67.67,0,0,0,.78.5l11.34-2.11a.67.67,0,0,0,0-1.32L8.75,21.88A.68.68,0,0,0,8,22.71Z"/><path class="cls-34" d="M8,22.77l1.18,4.67a.67.67,0,0,0,.78.49l11.18-2.07a.67.67,0,0,0,0-1.32L8.76,22A.68.68,0,0,0,8,22.77Z"/><path class="cls-35" d="M8,22.83l1.16,4.61a.66.66,0,0,0,.76.49l11-2.05a.66.66,0,0,0,0-1.3L8.77,22A.65.65,0,0,0,8,22.83Z"/><path class="cls-36" d="M8,22.89l1.15,4.55a.64.64,0,0,0,.75.48l10.88-2a.65.65,0,0,0,0-1.28l-12-2.52A.64.64,0,0,0,8,22.89Z"/><path class="cls-37" d="M8,23l1.13,4.47a.64.64,0,0,0,.75.48l10.72-2a.64.64,0,0,0,0-1.26L8.8,22.17A.65.65,0,0,0,8,23Z"/><path class="cls-38" d="M8.06,23l1.12,4.41a.64.64,0,0,0,.73.48l10.57-2a.63.63,0,0,0,0-1.24L8.81,22.25A.63.63,0,0,0,8.06,23Z"/><path class="cls-39" d="M8.08,23.08l1.1,4.35a.63.63,0,0,0,.73.47L20.33,26a.63.63,0,0,0,0-1.23L8.82,22.32A.63.63,0,0,0,8.08,23.08Z"/><path class="cls-40" d="M8.11,23.14l1.08,4.29a.61.61,0,0,0,.71.46L20.17,26a.62.62,0,0,0,0-1.21L8.83,22.39A.61.61,0,0,0,8.11,23.14Z"/><path class="cls-41" d="M8.13,23.21l1.06,4.22a.6.6,0,0,0,.71.45L20,26a.61.61,0,0,0,0-1.19L8.84,22.47A.6.6,0,0,0,8.13,23.21Z"/><path class="cls-42" d="M8.15,23.27l1,4.16a.6.6,0,0,0,.7.45l10-1.86a.6.6,0,0,0,0-1.17l-11-2.31A.6.6,0,0,0,8.15,23.27Z"/><path class="cls-43" d="M8.17,23.33l1,4.1a.58.58,0,0,0,.68.44L19.7,26a.59.59,0,0,0,0-1.15L8.87,22.61A.59.59,0,0,0,8.17,23.33Z"/><path class="cls-44" d="M8.19,23.39l1,4a.58.58,0,0,0,.68.43l9.66-1.8a.58.58,0,0,0,0-1.14L8.88,22.69A.58.58,0,0,0,8.19,23.39Z"/><path class="cls-45" d="M8.22,23.46l1,4a.56.56,0,0,0,.66.43l9.51-1.77a.58.58,0,0,0,0-1.13L8.89,22.76A.57.57,0,0,0,8.22,23.46Z"/><path class="cls-46" d="M8.24,23.52l1,3.91a.57.57,0,0,0,.66.42l9.35-1.74a.57.57,0,0,0,0-1.11L8.9,22.83A.57.57,0,0,0,8.24,23.52Z"/><path class="cls-47" d="M8.26,23.58l1,3.85a.54.54,0,0,0,.64.41l9.21-1.71a.56.56,0,0,0,0-1.09L8.91,22.91A.55.55,0,0,0,8.26,23.58Z"/><path class="cls-48" d="M8.28,23.64l1,3.79a.54.54,0,0,0,.64.4l9.05-1.68a.55.55,0,0,0,0-1.08L8.93,23A.55.55,0,0,0,8.28,23.64Z"/><path class="cls-49" d="M8.3,23.71l.94,3.71a.54.54,0,0,0,.63.41l8.89-1.66a.54.54,0,0,0,0-1.06L8.94,23.05A.55.55,0,0,0,8.3,23.71Z"/><path class="cls-50" d="M8.33,23.77l.92,3.65a.51.51,0,0,0,.61.4l8.75-1.63a.53.53,0,0,0,0-1L9,23.13A.52.52,0,0,0,8.33,23.77Z"/><path class="cls-51" d="M8.35,23.83l.9,3.59a.51.51,0,0,0,.61.39l8.59-1.6a.52.52,0,0,0,0-1L9,23.2A.52.52,0,0,0,8.35,23.83Z"/><path class="cls-52" d="M8.37,23.89l.89,3.53a.51.51,0,0,0,.59.39l8.45-1.58a.51.51,0,0,0,0-1L9,23.27A.51.51,0,0,0,8.37,23.89Z"/><path class="cls-53" d="M8.39,24l.87,3.46a.51.51,0,0,0,.59.38l8.29-1.55a.51.51,0,0,0,0-1L9,23.35A.51.51,0,0,0,8.39,24Z"/><path class="cls-54" d="M8.41,24l.86,3.4a.48.48,0,0,0,.58.37L18,26.27a.49.49,0,0,0,0-1L9,23.42A.5.5,0,0,0,8.41,24Z"/><path class="cls-55" d="M8.44,24.08l.83,3.34a.49.49,0,0,0,.57.37l8-1.5a.48.48,0,0,0,0-.95L9,23.49A.48.48,0,0,0,8.44,24.08Z"/><path class="cls-56" d="M8.46,24.14l.82,3.28a.48.48,0,0,0,.56.36l7.83-1.46a.48.48,0,0,0,0-.94L9,23.56A.48.48,0,0,0,8.46,24.14Z"/><path class="cls-57" d="M8.48,24.21l.81,3.21a.46.46,0,0,0,.54.35l7.68-1.43a.47.47,0,0,0,0-.92L9,23.64A.47.47,0,0,0,8.48,24.21Z"/><path class="cls-58" d="M8.5,24.27l.79,3.15a.46.46,0,0,0,.54.34l7.53-1.4a.47.47,0,0,0,0-.91L9.05,23.71A.46.46,0,0,0,8.5,24.27Z"/><path class="cls-59" d="M8.52,24.33l.78,3.09a.45.45,0,0,0,.53.34l7.37-1.38a.45.45,0,0,0,0-.89L9.06,23.78A.46.46,0,0,0,8.52,24.33Z"/><path class="cls-60" d="M8.55,24.39l.75,3a.44.44,0,0,0,.52.33L17,26.4a.44.44,0,0,0,0-.87l-8-1.67A.44.44,0,0,0,8.55,24.39Z"/><path class="cls-61" d="M8.57,24.46l.74,2.95a.43.43,0,0,0,.51.33l7.07-1.32a.43.43,0,0,0,0-.85L9.08,23.93A.44.44,0,0,0,8.57,24.46Z"/><path class="cls-62" d="M8.59,24.52l.72,2.89a.43.43,0,0,0,.5.33l6.92-1.3a.42.42,0,0,0,0-.83L9.09,24A.43.43,0,0,0,8.59,24.52Z"/><path class="cls-63" d="M8.61,24.58l.71,2.83a.42.42,0,0,0,.49.32l6.76-1.27a.42.42,0,0,0,0-.82L9.1,24.08A.41.41,0,0,0,8.61,24.58Z"/><path class="cls-64" d="M8.63,24.64l.7,2.77a.39.39,0,0,0,.47.31l6.62-1.24a.41.41,0,0,0,0-.8l-7.3-1.53A.41.41,0,0,0,8.63,24.64Z"/><path class="cls-65" d="M8.66,24.71l.67,2.7a.4.4,0,0,0,.47.3l6.46-1.21a.4.4,0,0,0,0-.78l-7.13-1.5A.4.4,0,0,0,8.66,24.71Z"/><path class="cls-66" d="M8.68,24.77l.66,2.64a.39.39,0,0,0,.46.3l6.31-1.18a.39.39,0,0,0,0-.77l-7-1.46A.39.39,0,0,0,8.68,24.77Z"/><path class="cls-67" d="M8.7,24.83l.64,2.58a.39.39,0,0,0,.45.29L16,26.55a.39.39,0,0,0,0-.76l-6.8-1.42A.38.38,0,0,0,8.7,24.83Z"/><path class="cls-68" d="M8.72,24.89l.63,2.52a.36.36,0,0,0,.44.28l6-1.12a.38.38,0,0,0,0-.74L9.16,24.44A.38.38,0,0,0,8.72,24.89Z"/><path class="cls-69" d="M8.74,25l.61,2.45a.37.37,0,0,0,.43.28l5.86-1.1a.37.37,0,0,0,0-.72L9.18,24.52A.37.37,0,0,0,8.74,25Z"/><path class="cls-70" d="M8.77,25l.59,2.39a.35.35,0,0,0,.42.27l5.7-1.07a.36.36,0,0,0,0-.7L9.19,24.59A.35.35,0,0,0,8.77,25Z"/><path class="cls-71" d="M8.79,25.08l.58,2.33a.34.34,0,0,0,.41.26l5.54-1a.35.35,0,0,0,0-.68L9.2,24.66A.35.35,0,0,0,8.79,25.08Z"/><path class="cls-72" d="M8.81,25.14l.56,2.27a.34.34,0,0,0,.4.26l5.4-1a.34.34,0,0,0,0-.67l-6-1.24A.34.34,0,0,0,8.81,25.14Z"/><path class="cls-73" d="M8.83,25.21l.55,2.19a.32.32,0,0,0,.39.26l5.24-1A.33.33,0,0,0,15,26L9.22,24.81A.33.33,0,0,0,8.83,25.21Z"/><path class="cls-74" d="M8.85,25.27l.53,2.13a.32.32,0,0,0,.38.25l5.09-1a.32.32,0,0,0,0-.63L9.24,24.88A.33.33,0,0,0,8.85,25.27Z"/><path class="cls-75" d="M8.88,25.33l.51,2.07a.3.3,0,0,0,.37.24l4.94-.93a.31.31,0,0,0,0-.61L9.25,25A.31.31,0,0,0,8.88,25.33Z"/><path class="cls-76" d="M8.9,25.39l.49,2a.32.32,0,0,0,.37.24l4.78-.91a.3.3,0,0,0,0-.59L9.26,25A.3.3,0,0,0,8.9,25.39Z"/><path class="cls-77" d="M8.92,25.45,9.4,27.4a.29.29,0,0,0,.35.23l4.64-.87a.3.3,0,0,0,0-.59L9.27,25.1A.3.3,0,0,0,8.92,25.45Z"/><path class="cls-78" d="M8.94,25.52l.47,1.88a.27.27,0,0,0,.34.22l4.48-.84a.29.29,0,0,0,0-.57l-5-1A.28.28,0,0,0,8.94,25.52Z"/><path class="cls-79" d="M9,25.58l.45,1.82a.28.28,0,0,0,.33.22l4.33-.82a.28.28,0,0,0,0-.55l-4.78-1A.28.28,0,0,0,9,25.58Z"/><path class="cls-80" d="M9,25.64l.43,1.76a.26.26,0,0,0,.32.21l4.18-.79a.27.27,0,0,0,0-.53l-4.6-1A.26.26,0,0,0,9,25.64Z"/><path class="cls-81" d="M9,25.7l.41,1.7a.25.25,0,0,0,.31.2l4-.76a.26.26,0,0,0,0-.51L9.32,25.4A.25.25,0,0,0,9,25.7Z"/><path class="cls-82" d="M9,25.77l.4,1.63a.23.23,0,0,0,.3.19l3.87-.73a.26.26,0,0,0,0-.5l-4.27-.89A.25.25,0,0,0,9,25.77Z"/><path class="cls-83" d="M9.05,25.83l.38,1.57a.25.25,0,0,0,.3.19l3.72-.71a.25.25,0,0,0,0-.48l-4.1-.86A.25.25,0,0,0,9.05,25.83Z"/><path class="cls-84" d="M9.07,25.89l.37,1.51a.23.23,0,0,0,.28.18l3.57-.68a.23.23,0,0,0,0-.46l-3.94-.83A.24.24,0,0,0,9.07,25.89Z"/><path class="cls-85" d="M9.1,26l.35,1.44a.22.22,0,0,0,.27.18l3.41-.65a.22.22,0,0,0,0-.44l-3.76-.79A.22.22,0,0,0,9.1,26Z"/><path class="cls-86" d="M9.12,26l.33,1.37a.21.21,0,0,0,.26.18L13,26.94a.21.21,0,0,0,0-.42l-3.59-.76A.22.22,0,0,0,9.12,26Z"/><path class="cls-87" d="M9.14,26.08l.32,1.31a.2.2,0,0,0,.25.17l3.11-.6a.21.21,0,0,0,0-.41l-3.43-.72A.21.21,0,0,0,9.14,26.08Z"/><path class="cls-88" d="M9.16,26.14l.3,1.25a.2.2,0,0,0,.25.16l3-.56a.21.21,0,0,0,0-.4L9.4,25.91A.2.2,0,0,0,9.16,26.14Z"/><path class="cls-89" d="M9.18,26.2l.29,1.19a.19.19,0,0,0,.23.16L12.51,27a.19.19,0,0,0,0-.38L9.41,26A.2.2,0,0,0,9.18,26.2Z"/><path class="cls-90" d="M9.21,26.27l.26,1.12a.18.18,0,0,0,.23.15L12.35,27a.18.18,0,0,0,0-.36l-2.93-.62A.19.19,0,0,0,9.21,26.27Z"/><path class="cls-91" d="M9.23,26.33l.25,1.06a.16.16,0,0,0,.21.14l2.51-.48a.18.18,0,0,0,0-.35l-2.75-.57A.17.17,0,0,0,9.23,26.33Z"/><path class="cls-92" d="M9.25,26.39l.24,1a.15.15,0,0,0,.2.13L12,27.07a.17.17,0,0,0,0-.33L9.45,26.2A.17.17,0,0,0,9.25,26.39Z"/><path class="cls-93" d="M9.27,26.45l.22.94a.16.16,0,0,0,.2.13l2.19-.43a.16.16,0,0,0,0-.31l-2.42-.51A.16.16,0,0,0,9.27,26.45Z"/><path class="cls-94" d="M9.29,26.52l.21.87a.14.14,0,0,0,.18.12l2.05-.4a.15.15,0,0,0,0-.29l-2.25-.47A.15.15,0,0,0,9.29,26.52Z"/><path class="cls-95" d="M9.32,26.58l.18.81a.14.14,0,0,0,.18.11l1.89-.37a.14.14,0,0,0,0-.27l-2.08-.44A.14.14,0,0,0,9.32,26.58Z"/><path class="cls-96" d="M9.34,26.64l.17.75a.13.13,0,0,0,.16.11l1.74-.35a.13.13,0,0,0,0-.26l-1.91-.4A.13.13,0,0,0,9.34,26.64Z"/><path class="cls-97" d="M9.36,26.7l.15.69a.13.13,0,0,0,.16.1l1.59-.32a.12.12,0,0,0,0-.24l-1.74-.36A.12.12,0,0,0,9.36,26.7Z"/><path class="cls-98" d="M9.38,26.77l.14.61a.11.11,0,0,0,.14.1l1.44-.29a.11.11,0,0,0,0-.22l-1.57-.33A.12.12,0,0,0,9.38,26.77Z"/><path class="cls-99" d="M9.4,26.83l.13.55a.09.09,0,0,0,.13.09l1.28-.25a.11.11,0,0,0,0-.21l-1.41-.3A.11.11,0,0,0,9.4,26.83Z"/><path class="cls-100" d="M9.43,26.89l.1.49a.1.1,0,0,0,.13.09l1.13-.23a.1.1,0,0,0,0-.19l-1.24-.26A.09.09,0,0,0,9.43,26.89Z"/><path class="cls-101" d="M9.45,27l.09.43a.08.08,0,0,0,.11.08l1-.2a.09.09,0,0,0,0-.18l-1.06-.22C9.5,26.85,9.44,26.9,9.45,27Z"/><path class="cls-102" d="M9.47,27l.07.36a.08.08,0,0,0,.11.07l.83-.17a.09.09,0,0,0,0-.16l-.9-.19A.08.08,0,0,0,9.47,27Z"/><path class="cls-103" d="M9.49,27.08l.06.3a.07.07,0,0,0,.09.07l.68-.15a.07.07,0,0,0,0-.14L9.58,27A.07.07,0,0,0,9.49,27.08Z"/><path class="cls-104" d="M9.51,27.14l0,.24a.07.07,0,0,0,.09.06l.52-.12a.06.06,0,0,0,0-.12l-.56-.12A.06.06,0,0,0,9.51,27.14Z"/><path class="cls-105" d="M9.54,27.2l0,.18a.05.05,0,0,0,.08.05l.37-.09a.05.05,0,0,0,0-.1l-.4-.09A.05.05,0,0,0,9.54,27.2Z"/><path class="cls-106" d="M9.56,27.27v.11s0,.06.06.05l.22-.07a0,0,0,0,0,0-.09l-.23,0S9.56,27.24,9.56,27.27Z"/><path class="cls-107" d="M9.58,27.33v.05a0,0,0,0,0,.06,0l.06,0s0-.06,0-.07h0A0,0,0,0,0,9.58,27.33Z"/></g><path class="cls-108" d="M9.5,16.59A7.1,7.1,0,1,1,16.59,9.5,7.1,7.1,0,0,1,9.5,16.59Z"/><path class="cls-109" d="M16.7,9.72a7.1,7.1,0,0,0-7.09-7.1V16.81A7.1,7.1,0,0,0,16.7,9.72Z"/><path class="cls-109" d="M2.51,9.72a7.1,7.1,0,0,0,7.1,7.09V2.62A7.1,7.1,0,0,0,2.51,9.72Z"/><path class="cls-110" d="M9.61.22v2.4a7.1,7.1,0,0,1,0,14.19V27.73S15.49,19,18,14.08a9.61,9.61,0,0,0,1-3,9.32,9.32,0,0,0,.1-1.4A9.49,9.49,0,0,0,9.61.22Z"/><path class="cls-111" d="M2.51,9.72a7.1,7.1,0,0,1,7.1-7.1V.22a9.5,9.5,0,0,0-9.5,9.5,10.85,10.85,0,0,0,.1,1.4A9.61,9.61,0,0,0,1.15,14C3.69,19,9.61,27.73,9.61,27.73V16.81A7.1,7.1,0,0,1,2.51,9.72Z"/><path class="cls-109" d="M16.59,9.5A7.1,7.1,0,0,0,9.5,2.4V16.59A7.1,7.1,0,0,0,16.59,9.5Z"/><path class="cls-109" d="M2.4,9.5a7.1,7.1,0,0,0,7.1,7.09V2.4A7.1,7.1,0,0,0,2.4,9.5Z"/><path class="cls-111" d="M9.5,0V2.4a7.1,7.1,0,0,1,0,14.19V27.51s5.88-8.71,8.43-13.65a9.61,9.61,0,0,0,1-3A9.32,9.32,0,0,0,19,9.5,9.49,9.49,0,0,0,9.5,0Z"/><path class="cls-110" d="M2.4,9.5A7.1,7.1,0,0,1,9.5,2.4V0A9.5,9.5,0,0,0,0,9.5a9.32,9.32,0,0,0,.1,1.4A9.61,9.61,0,0,0,1,13.82C3.58,18.74,9.5,27.51,9.5,27.51V16.59A7.1,7.1,0,0,1,2.4,9.5Z"/></symbol></defs><title>Bottom-Key</title><g id="Layer_2" data-name="Layer 2"><g id="Content"><g class="cls-118"><path class="cls-119" d="M700,125,575.43,15.61C565.65,7,547,0,534,0H166c-13,0-31.66,7-41.44,15.61L0,125"/></g><use width="26.95" height="28.18" transform="translate(197.48 5.57) scale(1.85)" xlink:href="#Pin-Point_2"/><use width="26.89" height="28.25" transform="translate(331.5 5.57) scale(1.85)" xlink:href="#Pin-Point_3"/><use width="26.89" height="28.18" transform="translate(465.46 5.71) scale(1.85)" xlink:href="#Pin-Point"/><path class="cls-120" d="M325.59,60.93h3.65c1.24,0,4.42,0,4.42,4.1a3.84,3.84,0,0,1-4.12,4.14h-2.18v6h-1.77Zm1.77,6.8h2.1c1.28,0,2.36-.88,2.36-2.78a2.27,2.27,0,0,0-2.48-2.58h-2Z"/><path class="cls-120" d="M335.25,60.93h1.69V75.21h-1.69Z"/><path class="cls-120" d="M339,67.73c0-2.44,1-3.52,3.61-3.52,3.25,0,3.25,2,3.25,3.08v6c0,.44,0,.86.53.86a.6.6,0,0,0,.4-.1v1.2a6.11,6.11,0,0,1-1,.1c-.64,0-1.45,0-1.53-1.38h0a3,3,0,0,1-2.58,1.54c-2,0-2.92-1.2-2.92-3.12a2.77,2.77,0,0,1,2-3l2.27-.68c1.21-.38,1.21-.72,1.21-1.62s-.59-1.58-1.71-1.58a1.83,1.83,0,0,0-1.85,2.1v.1Zm5.19,1.64c-.62.66-2.11.8-2.87,1.26a1.71,1.71,0,0,0-.82,1.7c0,1.08.38,1.84,1.52,1.84a2.19,2.19,0,0,0,2.17-2Z"/><path class="cls-120" d="M353.5,74h0a2.45,2.45,0,0,1-2.25,1.5c-2.78,0-3.5-2.92-3.5-5.84,0-3.18,1-5.44,3.5-5.44a2.44,2.44,0,0,1,2.33,1.6h0V64.49h1.6V78.73H353.5Zm-2.07-8.34c-1.56,0-2,1.64-2,4,0,2.76.4,4.4,2,4.4,1.81,0,2.16-2.12,2.16-4.2C353.59,67.41,353.29,65.65,351.43,65.65Z"/><path class="cls-120" d="M364.44,75.21h-1.61V74h0a2.86,2.86,0,0,1-2.6,1.54c-2.82,0-2.82-2.14-2.82-3.4v-7.6h1.68v7.4c0,.82.06,2.16,1.58,2.16a2.07,2.07,0,0,0,2.12-2.16v-7.4h1.69Z"/><path class="cls-120" d="M368,70.05c0,1.64,0,4.12,2,4.12,1.61,0,1.83-1.68,1.83-2.48h1.68a3.63,3.63,0,0,1-3.6,3.8c-2.63,0-3.73-1.82-3.73-5.5,0-2.68.52-5.78,3.82-5.78s3.59,2.86,3.59,5.16v.68Zm3.88-1.32v-.58c0-1.2-.38-2.62-1.87-2.62-1.76,0-2,2.16-2,2.8v.4Z"/><path class="cls-120" d="M317.64,84.93h3.65c1.24,0,4.42,0,4.42,4.1a3.84,3.84,0,0,1-4.12,4.14h-2.18v6h-1.77Zm1.77,6.8h2.1c1.28,0,2.36-.88,2.36-2.78a2.27,2.27,0,0,0-2.48-2.58h-2Z"/><path class="cls-120" d="M331.81,91.63c0-1.36-.36-2.1-1.58-2.1a1.54,1.54,0,0,0-1.74,1.64c0,1.26,1.32,1.5,2.64,1.94s2.62.9,2.62,3a3.14,3.14,0,0,1-3.46,3.36c-3.65,0-3.69-2.7-3.69-3.8h1.69c0,1.3.36,2.48,2,2.48a1.68,1.68,0,0,0,1.78-1.78c0-1.44-1.32-1.74-2.62-2.18s-2.65-.82-2.65-3c0-2,1.57-3,3.43-3,3.12,0,3.24,2.16,3.26,3.42Z"/><path class="cls-120" d="M338.69,88.21c3.1,0,3.86,2.62,3.86,5.64s-.78,5.64-3.86,5.64-3.87-2.62-3.87-5.64S335.6,88.21,338.69,88.21Zm2.1,5.64c0-2.32-.34-4.32-2.14-4.32s-2.07,2-2.07,4.32.34,4.32,2.07,4.32S340.79,96.17,340.79,93.85Z"/><path class="cls-120" d="M344.22,88.49h1.68v1.6h0c.48-1,1.12-1.88,2.32-1.88a1.65,1.65,0,0,1,.74.12V90a4.36,4.36,0,0,0-.89-.08,2.38,2.38,0,0,0-2.21,2.54v6.78h-1.68Z"/><path class="cls-120" d="M350.24,84.93h1.68v1.92h-1.68Zm0,3.56h1.68V99.21h-1.68Z"/><path class="cls-120" d="M354,91.73c0-2.44,1-3.52,3.6-3.52,3.26,0,3.26,2,3.26,3.08v6c0,.44,0,.86.52.86a.66.66,0,0,0,.41-.1v1.2a6.43,6.43,0,0,1-1,.1c-.64,0-1.44,0-1.52-1.38h0a3,3,0,0,1-2.58,1.54c-2,0-2.92-1.2-2.92-3.12a2.77,2.77,0,0,1,2-3l2.26-.68c1.22-.38,1.22-.72,1.22-1.62s-.6-1.58-1.72-1.58a1.83,1.83,0,0,0-1.84,2.1v.1Zm5.18,1.64c-.62.66-2.1.8-2.86,1.26a1.71,1.71,0,0,0-.82,1.7c0,1.08.38,1.84,1.52,1.84a2.18,2.18,0,0,0,2.16-2Z"/><path class="cls-120" d="M367.7,91.63c0-1.36-.36-2.1-1.58-2.1a1.54,1.54,0,0,0-1.74,1.64c0,1.26,1.32,1.5,2.64,1.94s2.62.9,2.62,3a3.14,3.14,0,0,1-3.46,3.36c-3.64,0-3.68-2.7-3.68-3.8h1.68c0,1.3.36,2.48,2,2.48A1.68,1.68,0,0,0,368,96.39c0-1.44-1.32-1.74-2.62-2.18s-2.64-.82-2.64-3c0-2,1.56-3,3.42-3,3.12,0,3.24,2.16,3.26,3.42Z"/><path class="cls-120" d="M371.34,84.93H373v1.92h-1.68Zm0,3.56H373V99.21h-1.68Z"/><path class="cls-120" d="M379.92,91.63c0-1.36-.36-2.1-1.58-2.1a1.54,1.54,0,0,0-1.74,1.64c0,1.26,1.32,1.5,2.64,1.94s2.62.9,2.62,3a3.14,3.14,0,0,1-3.46,3.36c-3.64,0-3.68-2.7-3.68-3.8h1.68c0,1.3.36,2.48,2,2.48a1.68,1.68,0,0,0,1.78-1.78c0-1.44-1.32-1.74-2.62-2.18s-2.64-.82-2.64-3c0-2,1.56-3,3.42-3,3.12,0,3.24,2.16,3.26,3.42Z"/><path class="cls-120" d="M183.68,60.92h3.65c1.24,0,4.42,0,4.42,4.11a3.84,3.84,0,0,1-4.12,4.14h-2.18v6h-1.77Zm1.77,6.81h2.1c1.28,0,2.36-.88,2.36-2.78a2.27,2.27,0,0,0-2.48-2.58h-2Z"/><path class="cls-120" d="M197.85,67.63c0-1.36-.36-2.1-1.58-2.1a1.54,1.54,0,0,0-1.74,1.64c0,1.26,1.32,1.5,2.64,1.94s2.62.9,2.62,3a3.14,3.14,0,0,1-3.46,3.36c-3.65,0-3.69-2.7-3.69-3.8h1.69c0,1.3.36,2.48,2,2.48a1.68,1.68,0,0,0,1.78-1.78c0-1.44-1.32-1.74-2.62-2.18s-2.65-.82-2.65-3c0-2,1.57-3,3.43-3,3.12,0,3.24,2.16,3.26,3.42Z"/><path class="cls-120" d="M204.73,64.21c3.1,0,3.86,2.62,3.86,5.64s-.78,5.64-3.86,5.64-3.87-2.62-3.87-5.64S201.64,64.21,204.73,64.21Zm2.1,5.64c0-2.32-.34-4.32-2.14-4.32s-2.07,2-2.07,4.32.34,4.32,2.07,4.32S206.83,72.17,206.83,69.85Z"/><path class="cls-120" d="M210.26,64.49h1.68v1.6h0c.48-1,1.12-1.88,2.32-1.88a1.65,1.65,0,0,1,.74.12V66a4.36,4.36,0,0,0-.89-.08,2.38,2.38,0,0,0-2.21,2.54v6.78h-1.68Z"/><path class="cls-120" d="M216.28,60.92H218v1.93h-1.68Zm0,3.57H218V75.21h-1.68Z"/><path class="cls-120" d="M220,67.73c0-2.44,1-3.52,3.6-3.52,3.26,0,3.26,2,3.26,3.08v6c0,.44,0,.86.52.86a.64.64,0,0,0,.41-.1v1.2a6.43,6.43,0,0,1-1,.1c-.64,0-1.44,0-1.52-1.38h0a3,3,0,0,1-2.58,1.54c-2,0-2.92-1.2-2.92-3.12a2.77,2.77,0,0,1,2-3l2.26-.68c1.22-.38,1.22-.72,1.22-1.62s-.6-1.58-1.72-1.58a1.83,1.83,0,0,0-1.84,2.1v.1Zm5.18,1.64c-.62.66-2.1.8-2.86,1.26a1.71,1.71,0,0,0-.82,1.7c0,1.08.38,1.84,1.52,1.84a2.18,2.18,0,0,0,2.16-2Z"/><path class="cls-120" d="M233.74,67.63c0-1.36-.36-2.1-1.58-2.1a1.54,1.54,0,0,0-1.74,1.64c0,1.26,1.32,1.5,2.64,1.94s2.62.9,2.62,3a3.14,3.14,0,0,1-3.46,3.36c-3.64,0-3.68-2.7-3.68-3.8h1.68c0,1.3.36,2.48,2,2.48A1.68,1.68,0,0,0,234,72.39c0-1.44-1.32-1.74-2.62-2.18s-2.64-.82-2.64-3c0-2,1.56-3,3.42-3,3.12,0,3.24,2.16,3.26,3.42Z"/><path class="cls-120" d="M237.38,60.92h1.68v1.93h-1.68Zm0,3.57h1.68V75.21h-1.68Z"/><path class="cls-120" d="M246,67.63c0-1.36-.36-2.1-1.58-2.1a1.54,1.54,0,0,0-1.74,1.64c0,1.26,1.32,1.5,2.64,1.94s2.62.9,2.62,3a3.14,3.14,0,0,1-3.46,3.36c-3.64,0-3.68-2.7-3.68-3.8h1.68c0,1.3.36,2.48,2,2.48a1.68,1.68,0,0,0,1.78-1.78c0-1.44-1.32-1.74-2.62-2.18s-2.64-.82-2.64-3c0-2,1.56-3,3.42-3,3.12,0,3.24,2.16,3.26,3.42Z"/><path class="cls-120" d="M449.5,60.92h3l2.86,11.33h0l2.86-11.33h3V75.21h-1.76V62.73h0l-3.16,12.48h-1.76l-3.16-12.48h0V75.21H449.5Z"/><path class="cls-120" d="M466.83,64.21c3.1,0,3.86,2.62,3.86,5.64s-.78,5.64-3.86,5.64S463,72.87,463,69.85,463.75,64.21,466.83,64.21Zm2.1,5.64c0-2.32-.34-4.32-2.14-4.32s-2.06,2-2.06,4.32.34,4.32,2.06,4.32S468.93,72.17,468.93,69.85Z"/><path class="cls-120" d="M479.43,75.21h-1.6V73.89h0a2.43,2.43,0,0,1-2.32,1.6c-2.55,0-3.51-2.26-3.51-5.64,0-2.24.37-5.64,3.39-5.64a2.6,2.6,0,0,1,2.36,1.5h0V60.92h1.68Zm-3.74-1.16c1.86,0,2.16-1.76,2.16-4.2,0-2.08-.36-4.2-2.16-4.2-1.57,0-2,1.64-2,4.2S474.12,74.05,475.69,74.05Z"/><path class="cls-120" d="M483,70.05c0,1.64,0,4.12,2.05,4.12,1.61,0,1.83-1.68,1.83-2.48h1.68a3.63,3.63,0,0,1-3.6,3.8c-2.62,0-3.73-1.82-3.73-5.5,0-2.68.53-5.78,3.82-5.78s3.59,2.86,3.59,5.16v.68Zm3.88-1.32v-.58c0-1.2-.38-2.62-1.87-2.62-1.75,0-2,2.16-2,2.8v.4Z"/><path class="cls-120" d="M490.5,64.49h1.68v1.6h0c.49-1,1.12-1.88,2.32-1.88a1.73,1.73,0,0,1,.75.12V66a4.6,4.6,0,0,0-.9-.08,2.38,2.38,0,0,0-2.21,2.54v6.78H490.5Z"/><path class="cls-120" d="M496.16,67.73c0-2.44,1-3.52,3.61-3.52,3.26,0,3.26,2,3.26,3.08v6c0,.44,0,.86.52.86a.6.6,0,0,0,.4-.1v1.2a6.11,6.11,0,0,1-1,.1c-.64,0-1.44,0-1.52-1.38h0a3,3,0,0,1-2.58,1.54c-2,0-2.93-1.2-2.93-3.12a2.77,2.77,0,0,1,2-3l2.27-.68c1.22-.38,1.22-.72,1.22-1.62s-.6-1.58-1.72-1.58a1.83,1.83,0,0,0-1.85,2.1v.1Zm5.19,1.64c-.62.66-2.1.8-2.86,1.26a1.7,1.7,0,0,0-.83,1.7c0,1.08.38,1.84,1.52,1.84a2.19,2.19,0,0,0,2.17-2Z"/><path class="cls-120" d="M506,61.37h1.68v3.12h1.86v1.32h-1.86v6.88c0,.86.22,1.2,1.1,1.2a5.16,5.16,0,0,0,.74-.06v1.38a7.08,7.08,0,0,1-1.36.12c-1.74,0-2.16-.72-2.16-2.12v-7.4h-1.56V64.49H506Z"/><path class="cls-120" d="M512.08,70.05c0,1.64,0,4.12,2.06,4.12,1.6,0,1.82-1.68,1.82-2.48h1.68a3.63,3.63,0,0,1-3.6,3.8c-2.62,0-3.72-1.82-3.72-5.5,0-2.68.52-5.78,3.82-5.78s3.58,2.86,3.58,5.16v.68ZM516,68.73v-.58c0-1.2-.38-2.62-1.86-2.62-1.76,0-2,2.16-2,2.8v.4Z"/><path class="cls-120" d="M424.21,84.92h3.65c1.24,0,4.42,0,4.42,4.11a3.84,3.84,0,0,1-4.12,4.14H426v6h-1.77ZM426,91.73h2.1c1.28,0,2.36-.88,2.36-2.78A2.27,2.27,0,0,0,428,86.37h-2Z"/><path class="cls-120" d="M433.87,84.92h1.69V99.21h-1.69Z"/><path class="cls-120" d="M437.59,91.73c0-2.44,1-3.52,3.61-3.52,3.26,0,3.26,2,3.26,3.08v6c0,.44,0,.86.52.86a.6.6,0,0,0,.4-.1v1.2a6.11,6.11,0,0,1-1,.1c-.64,0-1.44,0-1.53-1.38h0a3,3,0,0,1-2.58,1.54c-2,0-2.92-1.2-2.92-3.12a2.77,2.77,0,0,1,2-3l2.27-.68c1.21-.38,1.21-.72,1.21-1.62s-.59-1.58-1.71-1.58a1.83,1.83,0,0,0-1.85,2.1v.1Zm5.19,1.64c-.62.66-2.11.8-2.87,1.26a1.71,1.71,0,0,0-.82,1.7c0,1.08.38,1.84,1.52,1.84a2.19,2.19,0,0,0,2.17-2Z"/><path class="cls-120" d="M452.12,98h0a2.45,2.45,0,0,1-2.25,1.5c-2.78,0-3.5-2.92-3.5-5.84,0-3.18,1-5.44,3.5-5.44a2.43,2.43,0,0,1,2.33,1.6h0V88.49h1.6v14.24h-1.68Zm-2.07-8.34c-1.56,0-2,1.64-2,4,0,2.76.4,4.4,2,4.4,1.81,0,2.16-2.12,2.16-4.2C452.21,91.41,451.91,89.65,450.05,89.65Z"/><path class="cls-120" d="M463.06,99.21h-1.6V98h0a2.86,2.86,0,0,1-2.6,1.54c-2.82,0-2.82-2.14-2.82-3.4v-7.6h1.68v7.4c0,.82.06,2.16,1.58,2.16a2.07,2.07,0,0,0,2.12-2.16v-7.4h1.69Z"/><path class="cls-120" d="M466.66,94.05c0,1.64,0,4.12,2,4.12,1.61,0,1.83-1.68,1.83-2.48h1.68a3.63,3.63,0,0,1-3.6,3.8c-2.62,0-3.73-1.82-3.73-5.5,0-2.68.52-5.78,3.82-5.78s3.59,2.86,3.59,5.16v.68Zm3.88-1.32v-.58c0-1.2-.38-2.62-1.87-2.62-1.76,0-2,2.16-2,2.8v.4Z"/><path class="cls-120" d="M479,84.92h3.64c1.24,0,4.42,0,4.42,4.11a3.84,3.84,0,0,1-4.12,4.14h-2.18v6H479Zm1.76,6.81h2.1c1.28,0,2.36-.88,2.36-2.78a2.27,2.27,0,0,0-2.48-2.58h-2Z"/><path class="cls-120" d="M493.15,91.63c0-1.36-.36-2.1-1.58-2.1a1.54,1.54,0,0,0-1.74,1.64c0,1.26,1.32,1.5,2.64,1.94s2.62.9,2.62,3a3.14,3.14,0,0,1-3.46,3.36c-3.64,0-3.68-2.7-3.68-3.8h1.68c0,1.3.36,2.48,2,2.48a1.68,1.68,0,0,0,1.78-1.78c0-1.44-1.32-1.74-2.62-2.18s-2.64-.82-2.64-3c0-2,1.56-3,3.42-3,3.12,0,3.24,2.16,3.26,3.42Z"/><path class="cls-120" d="M500,88.21c3.1,0,3.86,2.62,3.86,5.64s-.78,5.64-3.86,5.64-3.86-2.62-3.86-5.64S497,88.21,500,88.21Zm2.1,5.64c0-2.32-.34-4.32-2.14-4.32s-2.06,2-2.06,4.32.34,4.32,2.06,4.32S502.13,96.17,502.13,93.85Z"/><path class="cls-120" d="M505.57,88.49h1.68v1.6h0c.48-1,1.12-1.88,2.32-1.88a1.71,1.71,0,0,1,.74.12V90a4.6,4.6,0,0,0-.9-.08,2.38,2.38,0,0,0-2.2,2.54v6.78h-1.68Z"/><path class="cls-120" d="M511.59,84.92h1.68v1.93h-1.68Zm0,3.57h1.68V99.21h-1.68Z"/><path class="cls-120" d="M515.31,91.73c0-2.44,1-3.52,3.6-3.52,3.26,0,3.26,2,3.26,3.08v6c0,.44,0,.86.52.86a.6.6,0,0,0,.4-.1v1.2a6.11,6.11,0,0,1-1,.1c-.64,0-1.44,0-1.52-1.38h0A3,3,0,0,1,518,99.49c-2,0-2.92-1.2-2.92-3.12a2.77,2.77,0,0,1,2-3l2.26-.68c1.22-.38,1.22-.72,1.22-1.62s-.6-1.58-1.72-1.58a1.83,1.83,0,0,0-1.84,2.1v.1Zm5.18,1.64c-.62.66-2.1.8-2.86,1.26a1.71,1.71,0,0,0-.82,1.7c0,1.08.38,1.84,1.52,1.84a2.18,2.18,0,0,0,2.16-2Z"/><path class="cls-120" d="M529.05,91.63c0-1.36-.36-2.1-1.58-2.1a1.54,1.54,0,0,0-1.74,1.64c0,1.26,1.32,1.5,2.64,1.94s2.62.9,2.62,3a3.14,3.14,0,0,1-3.46,3.36c-3.64,0-3.68-2.7-3.68-3.8h1.68c0,1.3.36,2.48,2,2.48a1.68,1.68,0,0,0,1.78-1.78c0-1.44-1.32-1.74-2.62-2.18s-2.64-.82-2.64-3c0-2,1.56-3,3.42-3,3.12,0,3.24,2.16,3.26,3.42Z"/><path class="cls-120" d="M532.69,84.92h1.68v1.93h-1.68Zm0,3.57h1.68V99.21h-1.68Z"/><path class="cls-120" d="M541.27,91.63c0-1.36-.36-2.1-1.58-2.1A1.54,1.54,0,0,0,538,91.17c0,1.26,1.32,1.5,2.64,1.94s2.62.9,2.62,3a3.14,3.14,0,0,1-3.46,3.36c-3.64,0-3.68-2.7-3.68-3.8h1.68c0,1.3.36,2.48,2,2.48a1.68,1.68,0,0,0,1.78-1.78c0-1.44-1.32-1.74-2.62-2.18s-2.64-.82-2.64-3c0-2,1.56-3,3.42-3,3.12,0,3.24,2.16,3.26,3.42Z"/></g></g></svg>