<svg xmlns="http://www.w3.org/2000/svg" xmlns:xlink="http://www.w3.org/1999/xlink" viewBox="0 0 24.83 36.05"><defs><style>.cls-1{fill:url(#linear-gradient);}.cls-2{fill:none;}.cls-3{fill:#f99f39;}.cls-4{fill:#f0793d;}</style><linearGradient id="linear-gradient" x1="3.12" y1="12.34" x2="21.57" y2="12.34" gradientUnits="userSpaceOnUse"><stop offset="0.5" stop-color="#fff"/><stop offset="0.5" stop-color="#f3f3f3"/></linearGradient></defs><title>Marker-Orange</title><g id="Layer_2" data-name="Layer 2"><g id="Layer_1-2" data-name="Layer 1"><path class="cls-1" d="M12.34,21.57a9.23,9.23,0,1,1,9.23-9.23A9.22,9.22,0,0,1,12.34,21.57Z"/><path class="cls-2" d="M21.71,12.63a9.22,9.22,0,0,0-9.22-9.22V21.85A9.22,9.22,0,0,0,21.71,12.63Z"/><path class="cls-2" d="M3.27,12.63a9.22,9.22,0,0,0,9.22,9.22V3.41A9.22,9.22,0,0,0,3.27,12.63Z"/><path class="cls-3" d="M12.49.29V3.41a9.22,9.22,0,0,1,0,18.44v14.2s7.64-11.32,11-17.74a12.09,12.09,0,0,0,1.25-3.85A12.38,12.38,0,0,0,12.49.29Z"/><path class="cls-4" d="M3.27,12.63a9.22,9.22,0,0,1,9.22-9.22V.29A12.32,12.32,0,0,0,.28,14.46a12.54,12.54,0,0,0,1.21,3.79c3.31,6.41,11,17.8,11,17.8V21.85A9.22,9.22,0,0,1,3.27,12.63Z"/><path class="cls-2" d="M21.57,12.34a9.22,9.22,0,0,0-9.23-9.22V21.57A9.23,9.23,0,0,0,21.57,12.34Z"/><path class="cls-2" d="M3.12,12.34a9.22,9.22,0,0,0,9.22,9.23V3.12A9.22,9.22,0,0,0,3.12,12.34Z"/><path class="cls-4" d="M12.34,0V3.12a9.23,9.23,0,1,1,0,18.45V35.76S20,24.44,23.31,18a12.35,12.35,0,0,0-11-18Z"/><path class="cls-3" d="M3.12,12.34a9.22,9.22,0,0,1,9.22-9.22V0A12.35,12.35,0,0,0,0,12.34a13.83,13.83,0,0,0,.13,1.83A12.12,12.12,0,0,0,1.35,18c3.3,6.41,11,17.8,11,17.8V21.57A9.22,9.22,0,0,1,3.12,12.34Z"/></g></g></svg>