<?xml version="1.0" encoding="utf-8"?>
<!-- Generator: Adobe Illustrator 23.0.1, SVG Export Plug-In . SVG Version: 6.00 Build 0)  -->
<svg version="1.1" xmlns="http://www.w3.org/2000/svg" xmlns:xlink="http://www.w3.org/1999/xlink" x="0px" y="0px"
	 viewBox="0 0 37 38" style="enable-background:new 0 0 37 38;" xml:space="preserve">
<style type="text/css">
	.st0{opacity:0;fill:#FFFFFF;}
	.st1{opacity:9.523810e-03;fill:#FEFEFE;}
	.st2{opacity:0.019;fill:#FDFDFE;}
	.st3{opacity:0.0286;fill:#FCFCFD;}
	.st4{opacity:0.0381;fill:#FBFCFD;}
	.st5{opacity:0.0476;fill:#FAFBFC;}
	.st6{opacity:0.0571;fill:#F9FAFC;}
	.st7{opacity:0.0667;fill:#F8F9FB;}
	.st8{opacity:0.0762;fill:#F7F8FA;}
	.st9{opacity:0.0857;fill:#F6F7FA;}
	.st10{opacity:0.0952;fill:#F5F6F9;}
	.st11{opacity:0.1048;fill:#F4F5F9;}
	.st12{opacity:0.1143;fill:#F3F5F8;}
	.st13{opacity:0.1238;fill:#F2F4F7;}
	.st14{opacity:0.1333;fill:#F1F3F7;}
	.st15{opacity:0.1429;fill:#F0F2F6;}
	.st16{opacity:0.1524;fill:#EFF1F6;}
	.st17{opacity:0.1619;fill:#EEF0F5;}
	.st18{opacity:0.1714;fill:#EDEFF5;}
	.st19{opacity:0.181;fill:#ECEFF4;}
	.st20{opacity:0.1905;fill:#EBEEF3;}
	.st21{opacity:0.2;fill:#EAEDF3;}
	.st22{opacity:0.2095;fill:#E9ECF2;}
	.st23{opacity:0.219;fill:#E8EBF2;}
	.st24{opacity:0.2286;fill:#E7EAF1;}
	.st25{opacity:0.2381;fill:#E6E9F0;}
	.st26{opacity:0.2476;fill:#E5E8F0;}
	.st27{opacity:0.2571;fill:#E4E8EF;}
	.st28{opacity:0.2667;fill:#E3E7EF;}
	.st29{opacity:0.2762;fill:#E2E6EE;}
	.st30{opacity:0.2857;fill:#E1E5EE;}
	.st31{opacity:0.2952;fill:#E0E4ED;}
	.st32{opacity:0.3048;fill:#DFE3EC;}
	.st33{opacity:0.3143;fill:#DEE2EC;}
	.st34{opacity:0.3238;fill:#DDE2EB;}
	.st35{opacity:0.3333;fill:#DCE1EB;}
	.st36{opacity:0.3429;fill:#DBE0EA;}
	.st37{opacity:0.3524;fill:#DADFEA;}
	.st38{opacity:0.3619;fill:#D9DEE9;}
	.st39{opacity:0.3714;fill:#D8DDE8;}
	.st40{opacity:0.381;fill:#D7DCE8;}
	.st41{opacity:0.3905;fill:#D6DBE7;}
	.st42{opacity:0.4;fill:#D5DBE7;}
	.st43{opacity:0.4095;fill:#D4DAE6;}
	.st44{opacity:0.419;fill:#D3D9E5;}
	.st45{opacity:0.4286;fill:#D2D8E5;}
	.st46{opacity:0.4381;fill:#D1D7E4;}
	.st47{opacity:0.4476;fill:#D0D6E4;}
	.st48{opacity:0.4571;fill:#CFD5E3;}
	.st49{opacity:0.4667;fill:#CED5E3;}
	.st50{opacity:0.4762;fill:#CDD4E2;}
	.st51{opacity:0.4857;fill:#CCD3E1;}
	.st52{opacity:0.4952;fill:#CBD2E1;}
	.st53{opacity:0.5048;fill:#CBD1E0;}
	.st54{opacity:0.5143;fill:#CAD0E0;}
	.st55{opacity:0.5238;fill:#C9CFDF;}
	.st56{opacity:0.5333;fill:#C8CEDE;}
	.st57{opacity:0.5429;fill:#C7CEDE;}
	.st58{opacity:0.5524;fill:#C6CDDD;}
	.st59{opacity:0.5619;fill:#C5CCDD;}
	.st60{opacity:0.5714;fill:#C4CBDC;}
	.st61{opacity:0.581;fill:#C3CADC;}
	.st62{opacity:0.5905;fill:#C2C9DB;}
	.st63{opacity:0.6;fill:#C1C8DA;}
	.st64{opacity:0.6095;fill:#C0C8DA;}
	.st65{opacity:0.619;fill:#BFC7D9;}
	.st66{opacity:0.6286;fill:#BEC6D9;}
	.st67{opacity:0.6381;fill:#BDC5D8;}
	.st68{opacity:0.6476;fill:#BCC4D7;}
	.st69{opacity:0.6571;fill:#BBC3D7;}
	.st70{opacity:0.6667;fill:#BAC2D6;}
	.st71{opacity:0.6762;fill:#B9C1D6;}
	.st72{opacity:0.6857;fill:#B8C1D5;}
	.st73{opacity:0.6952;fill:#B7C0D5;}
	.st74{opacity:0.7048;fill:#B6BFD4;}
	.st75{opacity:0.7143;fill:#B5BED3;}
	.st76{opacity:0.7238;fill:#B4BDD3;}
	.st77{opacity:0.7333;fill:#B3BCD2;}
	.st78{opacity:0.7429;fill:#B2BBD2;}
	.st79{opacity:0.7524;fill:#B1BBD1;}
	.st80{opacity:0.7619;fill:#B0BAD1;}
	.st81{opacity:0.7714;fill:#AFB9D0;}
	.st82{opacity:0.781;fill:#AEB8CF;}
	.st83{opacity:0.7905;fill:#ADB7CF;}
	.st84{opacity:0.8;fill:#ACB6CE;}
	.st85{opacity:0.8095;fill:#ABB5CE;}
	.st86{opacity:0.819;fill:#AAB4CD;}
	.st87{opacity:0.8286;fill:#A9B4CC;}
	.st88{opacity:0.8381;fill:#A8B3CC;}
	.st89{opacity:0.8476;fill:#A7B2CB;}
	.st90{opacity:0.8571;fill:#A6B1CB;}
	.st91{opacity:0.8667;fill:#A5B0CA;}
	.st92{opacity:0.8762;fill:#A4AFCA;}
	.st93{opacity:0.8857;fill:#A3AEC9;}
	.st94{opacity:0.8952;fill:#A2AEC8;}
	.st95{opacity:0.9048;fill:#A1ADC8;}
	.st96{opacity:0.9143;fill:#A0ACC7;}
	.st97{opacity:0.9238;fill:#9FABC7;}
	.st98{opacity:0.9333;fill:#9EAAC6;}
	.st99{opacity:0.9429;fill:#9DA9C5;}
	.st100{opacity:0.9524;fill:#9CA8C5;}
	.st101{opacity:0.9619;fill:#9BA7C4;}
	.st102{opacity:0.9714;fill:#9AA7C4;}
	.st103{opacity:0.981;fill:#99A6C3;}
	.st104{opacity:0.9905;fill:#98A5C3;}
	.st105{fill:#97A4C2;}
	.st106{fill:url(#SVGID_1_);}
	.st107{fill:none;}
	.st108{fill:#6BC777;}
	.st109{fill:#46A762;}
	.st110{display:none;}
	.st111{display:inline;}
	.st112{fill:#231F20;}
	.st113{font-family:'HelveticaNeueLTStd-Cn';}
	.st114{font-size:12px;}
	.st115{display:inline;fill:#231F20;}
</style>
<symbol  id="Pin-Point_2" viewBox="-9.61 -2.04 26.95 28.18">
	<g>
		<g>
			<path class="st0" d="M-2.27,5.37l1.7-6.69c0.12-0.48,0.6-0.79,1.09-0.7l16.05,2.97c1.02,0.19,1.04,1.64,0.02,1.85L-1.16,6.52
				C-1.84,6.67-2.44,6.04-2.27,5.37z"/>
			<path class="st1" d="M-2.25,5.3l1.68-6.63c0.12-0.48,0.59-0.78,1.08-0.69l15.9,2.95c1.01,0.19,1.03,1.63,0.02,1.84L-1.15,6.45
				C-1.82,6.59-2.42,5.97-2.25,5.3z"/>
			<path class="st2" d="M-2.22,5.24l1.67-6.57C-0.44-1.8,0.03-2.1,0.51-2.01l15.75,2.92c1,0.19,1.02,1.61,0.02,1.82L-1.13,6.38
				C-1.81,6.52-2.39,5.91-2.22,5.24z"/>
			<path class="st3" d="M-2.2,5.18l1.65-6.5C-0.43-1.8,0.03-2.09,0.51-2l15.6,2.89c0.99,0.18,1.01,1.6,0.02,1.8L-1.12,6.3
				C-1.79,6.44-2.37,5.84-2.2,5.18z"/>
			<path class="st4" d="M-2.18,5.12l1.64-6.44C-0.43-1.79,0.03-2.08,0.5-2l15.45,2.86c0.98,0.18,1,1.58,0.02,1.79L-1.11,6.23
				C-1.77,6.37-2.35,5.77-2.18,5.12z"/>
			<path class="st5" d="M-2.16,5.05l1.62-6.38c0.12-0.46,0.57-0.75,1.04-0.67l15.29,2.83c0.97,0.18,0.99,1.57,0.02,1.77L-1.1,6.16
				C-1.75,6.29-2.32,5.7-2.16,5.05z"/>
			<path class="st6" d="M-2.14,4.99l1.6-6.31c0.12-0.46,0.57-0.75,1.03-0.66l15.14,2.81C16.6,1,16.62,2.38,15.66,2.58L-1.09,6.08
				C-1.73,6.22-2.3,5.63-2.14,4.99z"/>
			<path class="st7" d="M-2.11,4.93l1.59-6.25c0.11-0.45,0.56-0.74,1.02-0.65L15.48,0.8c0.95,0.18,0.97,1.54,0.02,1.74L-1.07,6.01
				C-1.71,6.14-2.27,5.56-2.11,4.93z"/>
			<path class="st8" d="M-2.09,4.87l1.57-6.19c0.11-0.45,0.56-0.73,1.01-0.65l14.84,2.75c0.94,0.18,0.96,1.52,0.02,1.72L-1.06,5.94
				C-1.7,6.07-2.25,5.49-2.09,4.87z"/>
			<path class="st9" d="M-2.07,4.8l1.55-6.12c0.11-0.44,0.55-0.72,1-0.64l14.68,2.72c0.93,0.17,0.95,1.51,0.02,1.7l-16.24,3.4
				C-1.68,6-2.23,5.42-2.07,4.8z"/>
			<path class="st10" d="M-2.05,4.74l1.54-6.06c0.11-0.44,0.54-0.72,0.99-0.63l14.53,2.69c0.92,0.17,0.94,1.49,0.02,1.68L-1.04,5.79
				C-1.66,5.92-2.2,5.36-2.05,4.74z"/>
			<path class="st11" d="M-2.03,4.68l1.52-6c0.11-0.44,0.54-0.71,0.98-0.63l14.38,2.67c0.92,0.17,0.93,1.48,0.02,1.67l-15.9,3.33
				C-1.64,5.85-2.18,5.29-2.03,4.68z"/>
			<path class="st12" d="M-2,4.62l1.51-5.93c0.11-0.43,0.53-0.7,0.97-0.62L14.7,0.7c0.91,0.17,0.92,1.46,0.02,1.65l-15.73,3.3
				C-1.62,5.77-2.16,5.22-2,4.62z"/>
			<path class="st13" d="M-1.98,4.55l1.49-5.87c0.11-0.43,0.53-0.7,0.96-0.62l14.08,2.61c0.9,0.17,0.91,1.45,0.02,1.63L-1,5.57
				C-1.61,5.7-2.13,5.15-1.98,4.55z"/>
			<path class="st14" d="M-1.96,4.49l1.47-5.81c0.11-0.42,0.52-0.69,0.95-0.61l13.92,2.58c0.89,0.17,0.9,1.43,0.02,1.62L-0.99,5.5
				C-1.59,5.62-2.11,5.08-1.96,4.49z"/>
			<path class="st15" d="M-1.94,4.43l1.46-5.74c0.1-0.42,0.52-0.68,0.94-0.6l13.77,2.55c0.88,0.16,0.89,1.42,0.02,1.6L-0.98,5.43
				C-1.57,5.55-2.08,5.01-1.94,4.43z"/>
			<path class="st16" d="M-1.92,4.37l1.44-5.68c0.1-0.41,0.51-0.68,0.93-0.6l13.62,2.53c0.87,0.16,0.88,1.4,0.02,1.58L-0.97,5.35
				C-1.55,5.47-2.06,4.94-1.92,4.37z"/>
			<path class="st17" d="M-1.89,4.3l1.42-5.62c0.1-0.41,0.51-0.67,0.92-0.59l13.47,2.5c0.86,0.16,0.87,1.39,0.02,1.57L-0.96,5.28
				C-1.53,5.4-2.04,4.87-1.89,4.3z"/>
			<path class="st18" d="M-1.87,4.24l1.41-5.55c0.1-0.41,0.5-0.66,0.91-0.58l13.31,2.47c0.85,0.16,0.86,1.37,0.02,1.55L-0.94,5.21
				C-1.51,5.32-2.01,4.81-1.87,4.24z"/>
			<path class="st19" d="M-1.85,4.18l1.39-5.49c0.1-0.4,0.5-0.66,0.9-0.58L13.6,0.55c0.84,0.16,0.85,1.36,0.02,1.53L-0.93,5.13
				C-1.5,5.25-1.99,4.74-1.85,4.18z"/>
			<path class="st20" d="M-1.83,4.12l1.37-5.43c0.1-0.4,0.49-0.65,0.89-0.57l13.01,2.41c0.83,0.16,0.84,1.34,0.02,1.52L-0.92,5.06
				C-1.48,5.18-1.97,4.67-1.83,4.12z"/>
			<path class="st21" d="M-1.81,4.05l1.36-5.36c0.1-0.39,0.48-0.64,0.88-0.57l12.86,2.39c0.82,0.15,0.83,1.33,0.02,1.5L-0.91,4.99
				C-1.46,5.1-1.94,4.6-1.81,4.05z"/>
			<path class="st22" d="M-1.78,3.99l1.34-5.3c0.1-0.39,0.48-0.63,0.87-0.56l12.7,2.36c0.81,0.15,0.82,1.31,0.02,1.48L-0.9,4.91
				C-1.44,5.03-1.92,4.53-1.78,3.99z"/>
			<path class="st23" d="M-1.76,3.93l1.33-5.24c0.09-0.38,0.47-0.63,0.86-0.55l12.55,2.33c0.8,0.15,0.81,1.3,0.01,1.46L-0.88,4.84
				C-1.42,4.95-1.9,4.46-1.76,3.93z"/>
			<path class="st24" d="M-1.74,3.87l1.31-5.17c0.09-0.38,0.47-0.62,0.85-0.55l12.4,2.3c0.79,0.15,0.8,1.28,0.01,1.45L-0.87,4.77
				C-1.41,4.88-1.87,4.39-1.74,3.87z"/>
			<path class="st25" d="M-1.72,3.8l1.29-5.11c0.09-0.38,0.46-0.61,0.84-0.54l12.25,2.27c0.78,0.15,0.8,1.27,0.01,1.43L-0.86,4.69
				C-1.39,4.8-1.85,4.32-1.72,3.8z"/>
			<path class="st26" d="M-1.7,3.74l1.28-5.05c0.09-0.37,0.46-0.61,0.83-0.53l12.1,2.25c0.77,0.15,0.79,1.25,0.01,1.41l-13.37,2.8
				C-1.37,4.73-1.82,4.26-1.7,3.74z"/>
			<path class="st27" d="M-1.67,3.68l1.26-4.98c0.09-0.37,0.45-0.6,0.82-0.53l11.94,2.22c0.76,0.14,0.78,1.24,0.01,1.4l-13.2,2.77
				C-1.35,4.65-1.8,4.19-1.67,3.68z"/>
			<path class="st28" d="M-1.65,3.62l1.24-4.92c0.09-0.36,0.45-0.59,0.81-0.52L12.2,0.36c0.76,0.14,0.77,1.22,0.01,1.38L-0.83,4.47
				C-1.33,4.58-1.78,4.12-1.65,3.62z"/>
			<path class="st29" d="M-1.63,3.55L-0.4-1.3c0.09-0.36,0.44-0.59,0.8-0.52l11.64,2.16c0.75,0.14,0.76,1.21,0.01,1.36L-0.81,4.4
				C-1.31,4.51-1.75,4.05-1.63,3.55z"/>
			<path class="st30" d="M-1.61,3.49L-0.4-1.3c0.09-0.35,0.44-0.58,0.79-0.51l11.49,2.13c0.74,0.14,0.75,1.19,0.01,1.35L-0.8,4.33
				C-1.3,4.43-1.73,3.98-1.61,3.49z"/>
			<path class="st31" d="M-1.59,3.43l1.2-4.73c0.08-0.35,0.43-0.57,0.78-0.5L11.73,0.3c0.73,0.14,0.74,1.18,0.01,1.33L-0.79,4.25
				C-1.28,4.36-1.71,3.91-1.59,3.43z"/>
			<path class="st32" d="M-1.56,3.37l1.18-4.67c0.08-0.35,0.42-0.56,0.77-0.5l11.18,2.08c0.72,0.14,0.73,1.16,0.01,1.31L-0.78,4.18
				C-1.26,4.28-1.68,3.84-1.56,3.37z"/>
			<path class="st33" d="M-1.54,3.3l1.16-4.6c0.08-0.34,0.42-0.56,0.76-0.49l11.03,2.05c0.71,0.13,0.72,1.15,0.01,1.29L-0.77,4.11
				C-1.24,4.21-1.66,3.78-1.54,3.3z"/>
			<path class="st34" d="M-1.52,3.24l1.15-4.54c0.08-0.34,0.41-0.55,0.75-0.48l10.88,2.02c0.7,0.13,0.71,1.13,0.01,1.28L-0.75,4.03
				C-1.22,4.13-1.64,3.71-1.52,3.24z"/>
			<path class="st35" d="M-1.5,3.18l1.13-4.48c0.08-0.33,0.41-0.54,0.74-0.48L11.1,0.22c0.69,0.13,0.7,1.12,0.01,1.26L-0.74,3.96
				C-1.21,4.06-1.61,3.64-1.5,3.18z"/>
			<path class="st36" d="M-1.48,3.12l1.11-4.41c0.08-0.33,0.4-0.54,0.73-0.47L10.95,0.2c0.68,0.13,0.69,1.1,0.01,1.24L-0.73,3.89
				C-1.19,3.98-1.59,3.57-1.48,3.12z"/>
			<path class="st37" d="M-1.45,3.05l1.1-4.35c0.08-0.32,0.4-0.53,0.72-0.47l10.42,1.94c0.67,0.13,0.68,1.09,0.01,1.23L-0.72,3.81
				C-1.17,3.91-1.56,3.5-1.45,3.05z"/>
			<path class="st38" d="M-1.43,2.99l1.08-4.29c0.08-0.32,0.39-0.52,0.71-0.46l10.27,1.91c0.66,0.13,0.67,1.07,0.01,1.21L-0.71,3.74
				C-1.15,3.83-1.54,3.43-1.43,2.99z"/>
			<path class="st39" d="M-1.41,2.93l1.07-4.22c0.07-0.32,0.39-0.52,0.71-0.45l10.12,1.88c0.65,0.12,0.66,1.06,0.01,1.19L-0.7,3.67
				C-1.13,3.76-1.52,3.36-1.41,2.93z"/>
			<path class="st40" d="M-1.39,2.87l1.05-4.16c0.07-0.31,0.38-0.51,0.7-0.45l9.96,1.85c0.64,0.12,0.65,1.04,0.01,1.18L-0.68,3.59
				C-1.12,3.69-1.49,3.29-1.39,2.87z"/>
			<path class="st41" d="M-1.37,2.8l1.03-4.1c0.07-0.31,0.38-0.5,0.69-0.44l9.81,1.83c0.63,0.12,0.64,1.03,0.01,1.16L-0.67,3.52
				C-1.1,3.61-1.47,3.23-1.37,2.8z"/>
			<path class="st42" d="M-1.34,2.74l1.02-4.04c0.07-0.3,0.37-0.5,0.68-0.43l9.66,1.8c0.62,0.12,0.63,1.01,0.01,1.14L-0.66,3.45
				C-1.08,3.54-1.45,3.16-1.34,2.74z"/>
			<path class="st43" d="M-1.32,2.68l1-3.97c0.07-0.3,0.36-0.49,0.67-0.43l9.51,1.77c0.61,0.12,0.62,1,0.01,1.12l-10.51,2.2
				C-1.06,3.46-1.42,3.09-1.32,2.68z"/>
			<path class="st44" d="M-1.3,2.62l0.98-3.91c0.07-0.29,0.36-0.48,0.66-0.42l9.35,1.74c0.61,0.12,0.61,0.98,0.01,1.11L-0.64,3.3
				C-1.04,3.39-1.4,3.02-1.3,2.62z"/>
			<path class="st45" d="M-1.28,2.55l0.97-3.85c0.07-0.29,0.35-0.47,0.65-0.42l9.2,1.71c0.6,0.12,0.6,0.97,0.01,1.09L-0.62,3.23
				C-1.02,3.31-1.37,2.95-1.28,2.55z"/>
			<path class="st46" d="M-1.26,2.49l0.95-3.78c0.07-0.29,0.35-0.47,0.64-0.41l9.05,1.69C9.97,0.1,9.98,0.94,9.39,1.06l-10,2.1
				C-1.01,3.24-1.35,2.88-1.26,2.49z"/>
			<path class="st47" d="M-1.23,2.43l0.94-3.72c0.07-0.28,0.34-0.46,0.63-0.4l8.9,1.66C9.8,0.08,9.81,0.9,9.23,1.02L-0.6,3.08
				C-0.99,3.16-1.33,2.81-1.23,2.43z"/>
			<path class="st48" d="M-1.21,2.37l0.92-3.66c0.06-0.28,0.34-0.45,0.62-0.4l8.75,1.63c0.57,0.11,0.57,0.92,0.01,1.04l-9.66,2.02
				C-0.97,3.09-1.3,2.74-1.21,2.37z"/>
			<path class="st49" d="M-1.19,2.3l0.9-3.59c0.06-0.27,0.33-0.45,0.61-0.39l8.59,1.6c0.56,0.11,0.56,0.91,0.01,1.02l-9.5,1.99
				C-0.95,3.01-1.28,2.68-1.19,2.3z"/>
			<path class="st50" d="M-1.17,2.24l0.89-3.53c0.06-0.27,0.33-0.44,0.6-0.38L8.76-0.1c0.55,0.11,0.55,0.89,0.01,1.01l-9.33,1.95
				C-0.93,2.94-1.26,2.61-1.17,2.24z"/>
			<path class="st51" d="M-1.15,2.18l0.87-3.47c0.06-0.26,0.32-0.43,0.59-0.38L8.6-0.12c0.54,0.11,0.54,0.88,0.01,0.99l-9.16,1.92
				C-0.92,2.87-1.23,2.54-1.15,2.18z"/>
			<path class="st52" d="M-1.12,2.12l0.85-3.4c0.06-0.26,0.32-0.43,0.58-0.37l8.14,1.52c0.53,0.1,0.54,0.86,0.01,0.97l-8.99,1.88
				C-0.9,2.79-1.21,2.47-1.12,2.12z"/>
			<path class="st53" d="M-1.1,2.05l0.84-3.34C-0.21-1.54,0.05-1.7,0.3-1.65l7.98,1.49c0.52,0.1,0.53,0.85,0.01,0.95l-8.82,1.85
				C-0.88,2.72-1.19,2.4-1.1,2.05z"/>
			<path class="st54" d="M-1.08,1.99l0.82-3.28C-0.2-1.53,0.05-1.7,0.3-1.64l7.83,1.46c0.51,0.1,0.52,0.83,0.01,0.94l-8.65,1.81
				C-0.86,2.64-1.16,2.33-1.08,1.99z"/>
			<path class="st55" d="M-1.06,1.93l0.81-3.21c0.06-0.25,0.3-0.4,0.55-0.35L7.97-0.2c0.5,0.1,0.51,0.82,0.01,0.92L-0.51,2.5
				C-0.84,2.57-1.14,2.26-1.06,1.93z"/>
			<path class="st56" d="M-1.04,1.87l0.79-3.15c0.05-0.24,0.29-0.4,0.54-0.35l7.53,1.41c0.49,0.1,0.5,0.8,0,0.9l-8.32,1.74
				C-0.82,2.49-1.11,2.19-1.04,1.87z"/>
			<path class="st57" d="M-1.01,1.8l0.77-3.09c0.05-0.24,0.29-0.39,0.53-0.34l7.38,1.38c0.48,0.1,0.49,0.79,0,0.89l-8.15,1.71
				C-0.81,2.42-1.09,2.13-1.01,1.8z"/>
			<path class="st58" d="M-0.99,1.74l0.76-3.02c0.05-0.23,0.28-0.38,0.52-0.33l7.22,1.35c0.47,0.09,0.48,0.77,0,0.87l-7.98,1.67
				C-0.79,2.34-1.07,2.06-0.99,1.74z"/>
			<path class="st59" d="M-0.97,1.68l0.74-2.96c0.05-0.23,0.28-0.38,0.51-0.33l7.07,1.32c0.46,0.09,0.47,0.76,0,0.85L-0.46,2.2
				C-0.77,2.27-1.04,1.99-0.97,1.68z"/>
			<path class="st60" d="M-0.95,1.62l0.72-2.9c0.05-0.23,0.27-0.37,0.5-0.32l6.92,1.29c0.45,0.09,0.46,0.74,0,0.84l-7.64,1.6
				C-0.75,2.19-1.02,1.92-0.95,1.62z"/>
			<path class="st61" d="M-0.93,1.55l0.71-2.83c0.05-0.22,0.27-0.36,0.49-0.32l6.77,1.27c0.45,0.09,0.45,0.73,0,0.82l-7.47,1.57
				C-0.73,2.12-1,1.85-0.93,1.55z"/>
			<path class="st62" d="M-0.9,1.49l0.69-2.77c0.05-0.22,0.26-0.36,0.48-0.31l6.61,1.24c0.44,0.09,0.44,0.71,0,0.8l-7.31,1.53
				C-0.72,2.05-0.97,1.78-0.9,1.49z"/>
			<path class="st63" d="M-0.88,1.43l0.67-2.71c0.05-0.21,0.26-0.35,0.47-0.3l6.46,1.21c0.43,0.09,0.43,0.7,0,0.79l-7.14,1.5
				C-0.7,1.97-0.95,1.71-0.88,1.43z"/>
			<path class="st64" d="M-0.86,1.37l0.66-2.64c0.04-0.21,0.25-0.34,0.46-0.3l6.31,1.18c0.42,0.08,0.42,0.68,0,0.77L-0.4,1.84
				C-0.68,1.9-0.93,1.64-0.86,1.37z"/>
			<path class="st65" d="M-0.84,1.3l0.64-2.58c0.04-0.2,0.25-0.33,0.45-0.29l6.16,1.15c0.41,0.08,0.41,0.67,0,0.75l-6.8,1.42
				C-0.66,1.82-0.9,1.58-0.84,1.3z"/>
			<path class="st66" d="M-0.82,1.24l0.63-2.52c0.04-0.2,0.24-0.33,0.44-0.28l6,1.13c0.4,0.08,0.4,0.65,0,0.73l-6.63,1.39
				C-0.64,1.75-0.88,1.51-0.82,1.24z"/>
			<path class="st67" d="M-0.79,1.18l0.61-2.45c0.04-0.2,0.23-0.32,0.43-0.28l5.85,1.1c0.39,0.08,0.39,0.64,0,0.72l-6.46,1.35
				C-0.62,1.67-0.85,1.44-0.79,1.18z"/>
			<path class="st68" d="M-0.77,1.12l0.59-2.39c0.04-0.19,0.23-0.31,0.42-0.27l5.7,1.07c0.38,0.08,0.38,0.62,0,0.7l-6.29,1.32
				C-0.61,1.6-0.83,1.37-0.77,1.12z"/>
			<path class="st69" d="M-0.75,1.05l0.58-2.33c0.04-0.19,0.22-0.31,0.41-0.27l5.55,1.04c0.37,0.08,0.37,0.61,0,0.68l-6.13,1.28
				C-0.59,1.52-0.81,1.3-0.75,1.05z"/>
			<path class="st70" d="M-0.73,0.99l0.56-2.26c0.04-0.18,0.22-0.3,0.4-0.26l5.4,1.01c0.36,0.07,0.36,0.59,0,0.67L-0.33,1.4
				C-0.57,1.45-0.78,1.23-0.73,0.99z"/>
			<path class="st71" d="M-0.71,0.93l0.54-2.2c0.04-0.18,0.21-0.29,0.39-0.25l5.24,0.99c0.35,0.07,0.35,0.58,0,0.65l-5.79,1.21
				C-0.55,1.37-0.76,1.16-0.71,0.93z"/>
			<path class="st72" d="M-0.68,0.87l0.53-2.14c0.03-0.17,0.21-0.29,0.38-0.25l5.09,0.96c0.34,0.07,0.34,0.56,0,0.63L-0.3,1.25
				C-0.53,1.3-0.74,1.09-0.68,0.87z"/>
			<path class="st73" d="M-0.66,0.8l0.51-2.07c0.03-0.17,0.2-0.28,0.37-0.24l4.94,0.93c0.33,0.07,0.33,0.55,0,0.62l-5.45,1.14
				C-0.52,1.23-0.71,1.03-0.66,0.8z"/>
			<path class="st74" d="M-0.64,0.74l0.5-2.01c0.03-0.16,0.2-0.27,0.36-0.23L5-0.6C5.33-0.53,5.33-0.07,5,0l-5.28,1.11
				C-0.5,1.15-0.69,0.96-0.64,0.74z"/>
			<path class="st75" d="M-0.62,0.68l0.48-1.95c0.03-0.16,0.19-0.27,0.35-0.23l4.63,0.87c0.31,0.07,0.31,0.52,0,0.58l-5.11,1.07
				C-0.48,1.08-0.66,0.89-0.62,0.68z"/>
			<path class="st76" d="M-0.6,0.62l0.46-1.88c0.03-0.16,0.19-0.26,0.34-0.22l4.48,0.85c0.3,0.06,0.3,0.5,0,0.56l-4.95,1.04
				C-0.46,1-0.64,0.82-0.6,0.62z"/>
			<path class="st77" d="M-0.57,0.55l0.45-1.82C-0.1-1.42,0.05-1.52,0.2-1.48l4.33,0.82c0.29,0.06,0.29,0.49,0,0.55l-4.78,1
				C-0.44,0.93-0.62,0.75-0.57,0.55z"/>
			<path class="st78" d="M-0.55,0.49l0.43-1.76c0.03-0.15,0.17-0.24,0.32-0.21l4.18,0.79c0.29,0.06,0.29,0.47,0,0.53l-4.61,0.97
				C-0.42,0.85-0.59,0.68-0.55,0.49z"/>
			<path class="st79" d="M-0.53,0.43l0.41-1.69c0.03-0.14,0.17-0.24,0.31-0.2L4.22-0.7c0.28,0.06,0.28,0.46,0,0.51l-4.44,0.93
				C-0.41,0.78-0.57,0.61-0.53,0.43z"/>
			<path class="st80" d="M-0.51,0.37l0.4-1.63c0.02-0.14,0.16-0.23,0.3-0.2l3.87,0.73c0.27,0.06,0.27,0.44,0,0.5l-4.27,0.9
				C-0.39,0.7-0.55,0.55-0.51,0.37z"/>
			<path class="st81" d="M-0.49,0.3l0.38-1.57c0.02-0.13,0.16-0.22,0.29-0.19l3.72,0.71c0.26,0.06,0.26,0.42,0,0.48l-4.1,0.86
				C-0.37,0.63-0.52,0.48-0.49,0.3z"/>
			<path class="st82" d="M-0.46,0.24l0.37-1.5c0.02-0.13,0.15-0.22,0.28-0.18l3.57,0.68C4-0.71,4-0.36,3.75-0.3l-3.93,0.82
				C-0.35,0.56-0.5,0.41-0.46,0.24z"/>
			<path class="st83" d="M-0.44,0.18l0.35-1.44c0.02-0.13,0.15-0.21,0.27-0.18L3.6-0.79c0.24,0.05,0.24,0.39,0,0.45l-3.77,0.79
				C-0.33,0.48-0.48,0.34-0.44,0.18z"/>
			<path class="st84" d="M-0.42,0.12l0.33-1.38c0.02-0.12,0.14-0.2,0.26-0.17l3.26,0.62c0.23,0.05,0.23,0.38,0,0.43l-3.6,0.75
				C-0.32,0.41-0.45,0.27-0.42,0.12z"/>
			<path class="st85" d="M-0.4,0.06l0.32-1.31c0.02-0.12,0.14-0.2,0.25-0.17l3.11,0.59c0.22,0.05,0.22,0.36,0,0.41L-0.15,0.3
				C-0.3,0.33-0.43,0.2-0.4,0.06z"/>
			<path class="st86" d="M-0.38-0.01l0.3-1.25c0.02-0.11,0.13-0.19,0.24-0.16l2.96,0.57c0.21,0.05,0.21,0.35,0,0.39l-3.26,0.68
				C-0.28,0.26-0.4,0.13-0.38-0.01z"/>
			<path class="st87" d="M-0.35-0.07l0.28-1.19c0.02-0.11,0.13-0.18,0.23-0.15l2.81,0.54c0.2,0.05,0.2,0.33,0,0.38l-3.09,0.65
				C-0.26,0.18-0.38,0.06-0.35-0.07z"/>
			<path class="st88" d="M-0.33-0.13l0.27-1.12c0.01-0.1,0.12-0.17,0.22-0.15l2.65,0.51c0.19,0.04,0.19,0.32,0,0.36l-2.92,0.61
				C-0.24,0.11-0.36,0-0.33-0.13z"/>
			<path class="st89" d="M-0.31-0.19l0.25-1.06c0.01-0.1,0.11-0.17,0.21-0.14l2.5,0.48c0.18,0.04,0.18,0.3-0.01,0.34L-0.1,0.01
				C-0.22,0.03-0.33-0.07-0.31-0.19z"/>
			<path class="st90" d="M-0.29-0.26l0.24-1c0.01-0.1,0.11-0.16,0.2-0.13L2.5-0.93C2.67-0.89,2.67-0.64,2.5-0.61l-2.59,0.54
				C-0.21-0.04-0.31-0.14-0.29-0.26z"/>
			<path class="st91" d="M-0.27-0.32l0.22-0.93c0.01-0.09,0.1-0.15,0.19-0.13l2.2,0.43C2.51-0.92,2.5-0.68,2.34-0.65l-2.42,0.51
				C-0.19-0.12-0.29-0.21-0.27-0.32z"/>
			<path class="st92" d="M-0.24-0.38l0.2-0.87c0.01-0.09,0.1-0.15,0.18-0.12l2.05,0.4c0.15,0.04,0.15,0.26-0.01,0.29l-2.25,0.47
				C-0.17-0.19-0.26-0.28-0.24-0.38z"/>
			<path class="st93" d="M-0.22-0.44l0.19-0.81c0.01-0.08,0.09-0.14,0.17-0.12L2.03-1c0.14,0.04,0.14,0.24-0.01,0.28l-2.08,0.44
				C-0.15-0.26-0.24-0.35-0.22-0.44z"/>
			<path class="st94" d="M-0.2-0.51l0.17-0.74c0.01-0.08,0.09-0.13,0.16-0.11l1.74,0.34c0.14,0.03,0.13,0.23-0.01,0.26l-1.91,0.4
				C-0.13-0.34-0.22-0.42-0.2-0.51z"/>
			<path class="st95" d="M-0.18-0.57l0.15-0.68c0.01-0.07,0.08-0.13,0.15-0.1l1.59,0.32C1.84-1.01,1.84-0.82,1.71-0.8l-1.74,0.37
				C-0.12-0.41-0.19-0.49-0.18-0.57z"/>
			<path class="st96" d="M-0.16-0.63l0.14-0.62c0.01-0.07,0.08-0.12,0.14-0.1l1.44,0.29c0.12,0.03,0.11,0.2-0.01,0.22L-0.02-0.5
				C-0.1-0.49-0.17-0.55-0.16-0.63z"/>
			<path class="st97" d="M-0.13-0.69l0.12-0.55c0-0.07,0.07-0.11,0.13-0.09l1.28,0.26C1.51-1.05,1.51-0.9,1.4-0.87l-1.41,0.3
				C-0.08-0.56-0.14-0.62-0.13-0.69z"/>
			<path class="st98" d="M-0.11-0.76l0.11-0.49c0-0.06,0.07-0.11,0.13-0.08L1.25-1.1c0.1,0.03,0.09,0.17-0.01,0.19L0-0.65
				C-0.06-0.64-0.12-0.69-0.11-0.76z"/>
			<path class="st99" d="M-0.09-0.82L0-1.25c0-0.06,0.06-0.1,0.12-0.08l0.98,0.2C1.18-1.1,1.18-0.97,1.09-0.95L0.02-0.72
				C-0.04-0.71-0.1-0.76-0.09-0.82z"/>
			<path class="st100" d="M-0.07-0.88L0-1.25C0-1.3,0.06-1.34,0.11-1.32l0.83,0.18C1.02-1.12,1.01-1,0.93-0.99L0.03-0.8
				C-0.02-0.79-0.07-0.83-0.07-0.88z"/>
			<path class="st101" d="M-0.05-0.94l0.06-0.3c0-0.05,0.05-0.08,0.1-0.07l0.68,0.15c0.07,0.02,0.06,0.12-0.01,0.14L0.04-0.87
				C-0.01-0.86-0.05-0.9-0.05-0.94z"/>
			<path class="st102" d="M-0.02-1.01l0.04-0.24c0-0.04,0.04-0.08,0.09-0.06l0.52,0.12c0.06,0.02,0.05,0.11-0.01,0.12L0.05-0.94
				C0.01-0.94-0.03-0.97-0.02-1.01z"/>
			<path class="st103" d="M0-1.07l0.02-0.17c0-0.04,0.04-0.07,0.08-0.05l0.37,0.09C0.52-1.19,0.51-1.11,0.46-1.1L0.06-1.02
				C0.03-1.01,0-1.04,0-1.07z"/>
			<path class="st104" d="M0.02-1.13l0.01-0.11c0-0.04,0.03-0.06,0.07-0.05l0.22,0.06C0.35-1.21,0.35-1.15,0.3-1.14L0.08-1.09
				C0.05-1.08,0.02-1.1,0.02-1.13z"/>
			<path class="st105" d="M0.04-1.19L0.03-1.24C0.03-1.27,0.06-1.3,0.09-1.28l0.07,0.04c0.03,0.02,0.03,0.06-0.01,0.07L0.09-1.16
				C0.07-1.16,0.05-1.17,0.04-1.19z"/>
		</g>
		<g>
			<linearGradient id="SVGID_1_" gradientUnits="userSpaceOnUse" x1="-7.2028" y1="16.6393" x2="6.9833" y2="16.6393">
				<stop  offset="0.499" style="stop-color:#FFFFFF"/>
				<stop  offset="0.501" style="stop-color:#F2F2F2"/>
			</linearGradient>
			<circle class="st106" cx="-0.11" cy="16.64" r="7.09"/>
			<g>
				<path class="st107" d="M7.09,16.42c0,3.92-3.18,7.09-7.09,7.09V9.32C3.92,9.32,7.09,12.5,7.09,16.42z"/>
				<path class="st107" d="M-7.09,16.42c0-3.92,3.18-7.09,7.09-7.09v14.19C-3.92,23.51-7.09,20.34-7.09,16.42z"/>
				<path class="st108" d="M0,25.91v-2.4c3.92,0,7.09-3.18,7.09-7.09c0-3.92-3.18-7.09-7.09-7.09V-1.6c0,0,5.88,8.71,8.43,13.65
					c0.47,0.91,0.8,1.91,0.96,2.96c0.07,0.46,0.1,0.93,0.1,1.4C9.5,21.66,5.25,25.91,0,25.91z"/>
				<path class="st109" d="M-7.09,16.42c0,3.92,3.18,7.09,7.09,7.09v2.4c-5.24,0-9.5-4.25-9.5-9.5c0-0.48,0.03-0.95,0.1-1.4
					c0.15-1.04,0.48-2.02,0.94-2.92C-5.92,7.17,0-1.6,0-1.6V9.32C-3.92,9.32-7.09,12.5-7.09,16.42z"/>
			</g>
			<g>
				<path class="st107" d="M6.98,16.64c0,3.92-3.18,7.09-7.09,7.09V9.55C3.81,9.55,6.98,12.72,6.98,16.64z"/>
				<path class="st107" d="M-7.2,16.64c0-3.92,3.18-7.09,7.09-7.09v14.19C-4.03,23.73-7.2,20.56-7.2,16.64z"/>
				<path class="st109" d="M-0.11,26.13v-2.4c3.92,0,7.09-3.18,7.09-7.09c0-3.92-3.18-7.09-7.09-7.09V-1.38
					c0,0,5.88,8.71,8.43,13.65c0.47,0.91,0.8,1.91,0.96,2.96c0.07,0.46,0.1,0.93,0.1,1.4C9.39,21.88,5.13,26.13-0.11,26.13z"/>
				<path class="st108" d="M-7.2,16.64c0,3.92,3.18,7.09,7.09,7.09v2.4c-5.24,0-9.5-4.25-9.5-9.5c0-0.48,0.03-0.95,0.1-1.4
					c0.15-1.04,0.48-2.02,0.94-2.92C-6.03,7.39-0.11-1.38-0.11-1.38V9.55C-4.03,9.55-7.2,12.72-7.2,16.64z"/>
			</g>
		</g>
	</g>
</symbol>
<g id="Layer_1" class="st110">
	
		<use xlink:href="#Pin-Point_2"  width="26.95" height="28.18" x="-9.61" y="-2.04" transform="matrix(1.3 0 0 -1.3 13.4604 34.7369)" style="display:inline;overflow:visible;"/>
</g>
<g id="Layer_2" class="st110">
	<text transform="matrix(1 0 0 1 7.9614 17.2402)" class="st111"><tspan x="0" y="0" class="st112 st113 st114">A</tspan><tspan x="5.34" y="0" class="st112 st113 st114">T</tspan></text>
	
		<use xlink:href="#Pin-Point_2"  width="26.95" height="28.18" x="-9.61" y="-2.04" transform="matrix(1.3 0 0 -1.3 13.4604 34.7369)" style="display:inline;overflow:visible;"/>
</g>
<g id="Layer_2_copy" class="st110">
	<text transform="matrix(1 0 0 1 7.5181 17.2402)" class="st115 st113 st114">BE</text>
	
		<use xlink:href="#Pin-Point_2"  width="26.95" height="28.18" x="-9.61" y="-2.04" transform="matrix(1.3 0 0 -1.3 13.4604 34.7369)" style="display:inline;overflow:visible;"/>
</g>
<g id="Layer_2_copy_2" class="st110">
	<text transform="matrix(1 0 0 1 9.4077 17.2402)" class="st115 st113 st114">IE</text>
	
		<use xlink:href="#Pin-Point_2"  width="26.95" height="28.18" x="-9.61" y="-2.04" transform="matrix(1.3 0 0 -1.3 13.4604 34.7369)" style="display:inline;overflow:visible;"/>
</g>
<g id="Layer_2_copy_3" class="st110">
	<text transform="matrix(1 0 0 1 7.0737 17.2402)" class="st115 st113 st114">GB</text>
	
		<use xlink:href="#Pin-Point_2"  width="26.95" height="28.18" x="-9.61" y="-2.04" transform="matrix(1.3 0 0 -1.3 13.4604 34.7369)" style="display:inline;overflow:visible;"/>
</g>
<g id="Layer_2_copy_4" class="st110">
	<text transform="matrix(1 0 0 1 7.2954 17.2402)" class="st115 st113 st114">DE</text>
	
		<use xlink:href="#Pin-Point_2"  width="26.95" height="28.18" x="-9.61" y="-2.04" transform="matrix(1.3 0 0 -1.3 13.4604 34.7369)" style="display:inline;overflow:visible;"/>
</g>
<g id="Layer_2_copy_5">
	
		<use xlink:href="#Pin-Point_2"  width="26.95" height="28.18" x="-9.61" y="-2.04" transform="matrix(1.3 0 0 -1.3 13.4604 34.7369)" style="overflow:visible;"/>
	<text transform="matrix(1 0 0 1 7.4097 17.2402)" class="st112 st113 st114">NL</text>
</g>
<g id="Layer_2_copy_6" class="st110">
	
		<use xlink:href="#Pin-Point_2"  width="26.95" height="28.18" x="-9.61" y="-2.04" transform="matrix(1.3 0 0 -1.3 13.4604 34.7369)" style="display:inline;overflow:visible;"/>
	<text transform="matrix(1 0 0 1 7.6313 17.2402)" class="st115 st113 st114">ES</text>
</g>
<g id="Layer_2_copy_7" class="st110">
	<g class="st111">
		
			<use xlink:href="#Pin-Point_2"  width="26.95" height="28.18" x="-9.61" y="-2.04" transform="matrix(1.3 0 0 -1.3 13.4604 34.7369)" style="overflow:visible;"/>
		<text transform="matrix(1 0 0 1 7.6313 17.2402)" class="st112 st113 st114">SE</text>
	</g>
</g>
<g id="Layer_2_copy_8" class="st110">
	
		<use xlink:href="#Pin-Point_2"  width="26.95" height="28.18" x="-9.61" y="-2.04" transform="matrix(1.3 0 0 -1.3 13.4604 34.7369)" style="display:inline;overflow:visible;"/>
	<text transform="matrix(1 0 0 1 7.0737 17.2402)" class="st115 st113 st114">CH</text>
</g>
</svg>
